%TF.GenerationSoftware,KiCad,Pcbnew,(5.1.6-0-10_14)*%
%TF.CreationDate,2020-10-31T20:27:49+00:00*%
%TF.ProjectId,DeWinCNC,44655769-6e43-44e4-932e-6b696361645f,0.5*%
%TF.SameCoordinates,Original*%
%TF.FileFunction,Legend,Bot*%
%TF.FilePolarity,Positive*%
%FSLAX46Y46*%
G04 Gerber Fmt 4.6, Leading zero omitted, Abs format (unit mm)*
G04 Created by KiCad (PCBNEW (5.1.6-0-10_14)) date 2020-10-31 20:27:49*
%MOMM*%
%LPD*%
G01*
G04 APERTURE LIST*
%ADD10C,0.300000*%
%ADD11C,0.120000*%
%ADD12C,0.150000*%
G04 APERTURE END LIST*
D10*
X182306428Y-110533571D02*
X182306428Y-109033571D01*
X181949285Y-109033571D01*
X181735000Y-109105000D01*
X181592142Y-109247857D01*
X181520714Y-109390714D01*
X181449285Y-109676428D01*
X181449285Y-109890714D01*
X181520714Y-110176428D01*
X181592142Y-110319285D01*
X181735000Y-110462142D01*
X181949285Y-110533571D01*
X182306428Y-110533571D01*
X180235000Y-110462142D02*
X180377857Y-110533571D01*
X180663571Y-110533571D01*
X180806428Y-110462142D01*
X180877857Y-110319285D01*
X180877857Y-109747857D01*
X180806428Y-109605000D01*
X180663571Y-109533571D01*
X180377857Y-109533571D01*
X180235000Y-109605000D01*
X180163571Y-109747857D01*
X180163571Y-109890714D01*
X180877857Y-110033571D01*
X179663571Y-109033571D02*
X179306428Y-110533571D01*
X179020714Y-109462142D01*
X178735000Y-110533571D01*
X178377857Y-109033571D01*
X177806428Y-110533571D02*
X177806428Y-109533571D01*
X177806428Y-109033571D02*
X177877857Y-109105000D01*
X177806428Y-109176428D01*
X177735000Y-109105000D01*
X177806428Y-109033571D01*
X177806428Y-109176428D01*
X177092142Y-109533571D02*
X177092142Y-110533571D01*
X177092142Y-109676428D02*
X177020714Y-109605000D01*
X176877857Y-109533571D01*
X176663571Y-109533571D01*
X176520714Y-109605000D01*
X176449285Y-109747857D01*
X176449285Y-110533571D01*
X174877857Y-110390714D02*
X174949285Y-110462142D01*
X175163571Y-110533571D01*
X175306428Y-110533571D01*
X175520714Y-110462142D01*
X175663571Y-110319285D01*
X175735000Y-110176428D01*
X175806428Y-109890714D01*
X175806428Y-109676428D01*
X175735000Y-109390714D01*
X175663571Y-109247857D01*
X175520714Y-109105000D01*
X175306428Y-109033571D01*
X175163571Y-109033571D01*
X174949285Y-109105000D01*
X174877857Y-109176428D01*
X174235000Y-110533571D02*
X174235000Y-109033571D01*
X173377857Y-110533571D01*
X173377857Y-109033571D01*
X171806428Y-110390714D02*
X171877857Y-110462142D01*
X172092142Y-110533571D01*
X172235000Y-110533571D01*
X172449285Y-110462142D01*
X172592142Y-110319285D01*
X172663571Y-110176428D01*
X172735000Y-109890714D01*
X172735000Y-109676428D01*
X172663571Y-109390714D01*
X172592142Y-109247857D01*
X172449285Y-109105000D01*
X172235000Y-109033571D01*
X172092142Y-109033571D01*
X171877857Y-109105000D01*
X171806428Y-109176428D01*
X169592142Y-111105000D02*
X169663571Y-111033571D01*
X169806428Y-110819285D01*
X169877857Y-110676428D01*
X169949285Y-110462142D01*
X170020714Y-110105000D01*
X170020714Y-109819285D01*
X169949285Y-109462142D01*
X169877857Y-109247857D01*
X169806428Y-109105000D01*
X169663571Y-108890714D01*
X169592142Y-108819285D01*
X168377857Y-110462142D02*
X168520714Y-110533571D01*
X168806428Y-110533571D01*
X168949285Y-110462142D01*
X169020714Y-110390714D01*
X169092142Y-110247857D01*
X169092142Y-109819285D01*
X169020714Y-109676428D01*
X168949285Y-109605000D01*
X168806428Y-109533571D01*
X168520714Y-109533571D01*
X168377857Y-109605000D01*
X167877857Y-111105000D02*
X167806428Y-111033571D01*
X167663571Y-110819285D01*
X167592142Y-110676428D01*
X167520714Y-110462142D01*
X167449285Y-110105000D01*
X167449285Y-109819285D01*
X167520714Y-109462142D01*
X167592142Y-109247857D01*
X167663571Y-109105000D01*
X167806428Y-108890714D01*
X167877857Y-108819285D01*
X166806428Y-109176428D02*
X166735000Y-109105000D01*
X166592142Y-109033571D01*
X166235000Y-109033571D01*
X166092142Y-109105000D01*
X166020714Y-109176428D01*
X165949285Y-109319285D01*
X165949285Y-109462142D01*
X166020714Y-109676428D01*
X166877857Y-110533571D01*
X165949285Y-110533571D01*
X165020714Y-109033571D02*
X164877857Y-109033571D01*
X164735000Y-109105000D01*
X164663571Y-109176428D01*
X164592142Y-109319285D01*
X164520714Y-109605000D01*
X164520714Y-109962142D01*
X164592142Y-110247857D01*
X164663571Y-110390714D01*
X164735000Y-110462142D01*
X164877857Y-110533571D01*
X165020714Y-110533571D01*
X165163571Y-110462142D01*
X165235000Y-110390714D01*
X165306428Y-110247857D01*
X165377857Y-109962142D01*
X165377857Y-109605000D01*
X165306428Y-109319285D01*
X165235000Y-109176428D01*
X165163571Y-109105000D01*
X165020714Y-109033571D01*
X163949285Y-109176428D02*
X163877857Y-109105000D01*
X163735000Y-109033571D01*
X163377857Y-109033571D01*
X163235000Y-109105000D01*
X163163571Y-109176428D01*
X163092142Y-109319285D01*
X163092142Y-109462142D01*
X163163571Y-109676428D01*
X164020714Y-110533571D01*
X163092142Y-110533571D01*
X162163571Y-109033571D02*
X162020714Y-109033571D01*
X161877857Y-109105000D01*
X161806428Y-109176428D01*
X161735000Y-109319285D01*
X161663571Y-109605000D01*
X161663571Y-109962142D01*
X161735000Y-110247857D01*
X161806428Y-110390714D01*
X161877857Y-110462142D01*
X162020714Y-110533571D01*
X162163571Y-110533571D01*
X162306428Y-110462142D01*
X162377857Y-110390714D01*
X162449285Y-110247857D01*
X162520714Y-109962142D01*
X162520714Y-109605000D01*
X162449285Y-109319285D01*
X162377857Y-109176428D01*
X162306428Y-109105000D01*
X162163571Y-109033571D01*
X160092142Y-109033571D02*
X159235000Y-109033571D01*
X159663571Y-110533571D02*
X159663571Y-109033571D01*
X158163571Y-110462142D02*
X158306428Y-110533571D01*
X158592142Y-110533571D01*
X158735000Y-110462142D01*
X158806428Y-110319285D01*
X158806428Y-109747857D01*
X158735000Y-109605000D01*
X158592142Y-109533571D01*
X158306428Y-109533571D01*
X158163571Y-109605000D01*
X158092142Y-109747857D01*
X158092142Y-109890714D01*
X158806428Y-110033571D01*
X156806428Y-110462142D02*
X156949285Y-110533571D01*
X157235000Y-110533571D01*
X157377857Y-110462142D01*
X157449285Y-110390714D01*
X157520714Y-110247857D01*
X157520714Y-109819285D01*
X157449285Y-109676428D01*
X157377857Y-109605000D01*
X157235000Y-109533571D01*
X156949285Y-109533571D01*
X156806428Y-109605000D01*
X156163571Y-110533571D02*
X156163571Y-109033571D01*
X155520714Y-110533571D02*
X155520714Y-109747857D01*
X155592142Y-109605000D01*
X155735000Y-109533571D01*
X155949285Y-109533571D01*
X156092142Y-109605000D01*
X156163571Y-109676428D01*
X153949285Y-110390714D02*
X154020714Y-110462142D01*
X154235000Y-110533571D01*
X154377857Y-110533571D01*
X154592142Y-110462142D01*
X154735000Y-110319285D01*
X154806428Y-110176428D01*
X154877857Y-109890714D01*
X154877857Y-109676428D01*
X154806428Y-109390714D01*
X154735000Y-109247857D01*
X154592142Y-109105000D01*
X154377857Y-109033571D01*
X154235000Y-109033571D01*
X154020714Y-109105000D01*
X153949285Y-109176428D01*
X153092142Y-110533571D02*
X153235000Y-110462142D01*
X153306428Y-110390714D01*
X153377857Y-110247857D01*
X153377857Y-109819285D01*
X153306428Y-109676428D01*
X153235000Y-109605000D01*
X153092142Y-109533571D01*
X152877857Y-109533571D01*
X152735000Y-109605000D01*
X152663571Y-109676428D01*
X152592142Y-109819285D01*
X152592142Y-110247857D01*
X152663571Y-110390714D01*
X152735000Y-110462142D01*
X152877857Y-110533571D01*
X153092142Y-110533571D01*
X151735000Y-110533571D02*
X151877857Y-110462142D01*
X151949285Y-110319285D01*
X151949285Y-109033571D01*
X150520714Y-110533571D02*
X150520714Y-109747857D01*
X150592142Y-109605000D01*
X150735000Y-109533571D01*
X151020714Y-109533571D01*
X151163571Y-109605000D01*
X150520714Y-110462142D02*
X150663571Y-110533571D01*
X151020714Y-110533571D01*
X151163571Y-110462142D01*
X151235000Y-110319285D01*
X151235000Y-110176428D01*
X151163571Y-110033571D01*
X151020714Y-109962142D01*
X150663571Y-109962142D01*
X150520714Y-109890714D01*
X149806428Y-110533571D02*
X149806428Y-109033571D01*
X149806428Y-109605000D02*
X149663571Y-109533571D01*
X149377857Y-109533571D01*
X149235000Y-109605000D01*
X149163571Y-109676428D01*
X149092142Y-109819285D01*
X149092142Y-110247857D01*
X149163571Y-110390714D01*
X149235000Y-110462142D01*
X149377857Y-110533571D01*
X149663571Y-110533571D01*
X149806428Y-110462142D01*
X162619142Y-91483571D02*
X163119142Y-90769285D01*
X163476285Y-91483571D02*
X163476285Y-89983571D01*
X162904857Y-89983571D01*
X162762000Y-90055000D01*
X162690571Y-90126428D01*
X162619142Y-90269285D01*
X162619142Y-90483571D01*
X162690571Y-90626428D01*
X162762000Y-90697857D01*
X162904857Y-90769285D01*
X163476285Y-90769285D01*
X161404857Y-91412142D02*
X161547714Y-91483571D01*
X161833428Y-91483571D01*
X161976285Y-91412142D01*
X162047714Y-91269285D01*
X162047714Y-90697857D01*
X161976285Y-90555000D01*
X161833428Y-90483571D01*
X161547714Y-90483571D01*
X161404857Y-90555000D01*
X161333428Y-90697857D01*
X161333428Y-90840714D01*
X162047714Y-90983571D01*
X160833428Y-90483571D02*
X160476285Y-91483571D01*
X160119142Y-90483571D01*
X158119142Y-89983571D02*
X157976285Y-89983571D01*
X157833428Y-90055000D01*
X157762000Y-90126428D01*
X157690571Y-90269285D01*
X157619142Y-90555000D01*
X157619142Y-90912142D01*
X157690571Y-91197857D01*
X157762000Y-91340714D01*
X157833428Y-91412142D01*
X157976285Y-91483571D01*
X158119142Y-91483571D01*
X158262000Y-91412142D01*
X158333428Y-91340714D01*
X158404857Y-91197857D01*
X158476285Y-90912142D01*
X158476285Y-90555000D01*
X158404857Y-90269285D01*
X158333428Y-90126428D01*
X158262000Y-90055000D01*
X158119142Y-89983571D01*
X156976285Y-91340714D02*
X156904857Y-91412142D01*
X156976285Y-91483571D01*
X157047714Y-91412142D01*
X156976285Y-91340714D01*
X156976285Y-91483571D01*
X156190571Y-91483571D02*
X155904857Y-91483571D01*
X155762000Y-91412142D01*
X155690571Y-91340714D01*
X155547714Y-91126428D01*
X155476285Y-90840714D01*
X155476285Y-90269285D01*
X155547714Y-90126428D01*
X155619142Y-90055000D01*
X155762000Y-89983571D01*
X156047714Y-89983571D01*
X156190571Y-90055000D01*
X156262000Y-90126428D01*
X156333428Y-90269285D01*
X156333428Y-90626428D01*
X156262000Y-90769285D01*
X156190571Y-90840714D01*
X156047714Y-90912142D01*
X155762000Y-90912142D01*
X155619142Y-90840714D01*
X155547714Y-90769285D01*
X155476285Y-90626428D01*
D11*
%TO.C,JM2*%
X152460000Y-69790000D02*
X152460000Y-72450000D01*
X129540000Y-69790000D02*
X152460000Y-69790000D01*
X129540000Y-72450000D02*
X152460000Y-72450000D01*
X129540000Y-69790000D02*
X129540000Y-72450000D01*
X128270000Y-69790000D02*
X126940000Y-69790000D01*
X126940000Y-69790000D02*
X126940000Y-71120000D01*
%TO.C,JM5*%
X156270000Y-118050000D02*
X156270000Y-120710000D01*
X138430000Y-118050000D02*
X156270000Y-118050000D01*
X138430000Y-120710000D02*
X156270000Y-120710000D01*
X138430000Y-118050000D02*
X138430000Y-120710000D01*
X137160000Y-118050000D02*
X135830000Y-118050000D01*
X135830000Y-118050000D02*
X135830000Y-119380000D01*
%TO.C,JM1*%
X179130000Y-118050000D02*
X179130000Y-120710000D01*
X161290000Y-118050000D02*
X179130000Y-118050000D01*
X161290000Y-120710000D02*
X179130000Y-120710000D01*
X161290000Y-118050000D02*
X161290000Y-120710000D01*
X160020000Y-118050000D02*
X158690000Y-118050000D01*
X158690000Y-118050000D02*
X158690000Y-119380000D01*
%TO.C,JM6*%
X201990000Y-118050000D02*
X201990000Y-120710000D01*
X184150000Y-118050000D02*
X201990000Y-118050000D01*
X184150000Y-120710000D02*
X201990000Y-120710000D01*
X184150000Y-118050000D02*
X184150000Y-120710000D01*
X182880000Y-118050000D02*
X181550000Y-118050000D01*
X181550000Y-118050000D02*
X181550000Y-119380000D01*
%TO.C,JM3*%
X174050000Y-69790000D02*
X174050000Y-72450000D01*
X156210000Y-69790000D02*
X174050000Y-69790000D01*
X156210000Y-72450000D02*
X174050000Y-72450000D01*
X156210000Y-69790000D02*
X156210000Y-72450000D01*
X154940000Y-69790000D02*
X153610000Y-69790000D01*
X153610000Y-69790000D02*
X153610000Y-71120000D01*
%TO.C,JM4*%
X197418000Y-69790000D02*
X197418000Y-72450000D01*
X179578000Y-69790000D02*
X197418000Y-69790000D01*
X179578000Y-72450000D02*
X197418000Y-72450000D01*
X179578000Y-69790000D02*
X179578000Y-72450000D01*
X178308000Y-69790000D02*
X176978000Y-69790000D01*
X176978000Y-69790000D02*
X176978000Y-71120000D01*
%TO.C,JM2*%
D12*
X131714761Y-68540380D02*
X131714761Y-69254666D01*
X131762380Y-69397523D01*
X131857619Y-69492761D01*
X132000476Y-69540380D01*
X132095714Y-69540380D01*
X131238571Y-69540380D02*
X131238571Y-68540380D01*
X130905238Y-69254666D01*
X130571904Y-68540380D01*
X130571904Y-69540380D01*
X130143333Y-68635619D02*
X130095714Y-68588000D01*
X130000476Y-68540380D01*
X129762380Y-68540380D01*
X129667142Y-68588000D01*
X129619523Y-68635619D01*
X129571904Y-68730857D01*
X129571904Y-68826095D01*
X129619523Y-68968952D01*
X130190952Y-69540380D01*
X129571904Y-69540380D01*
%TO.C,JM5*%
X140604761Y-120864380D02*
X140604761Y-121578666D01*
X140652380Y-121721523D01*
X140747619Y-121816761D01*
X140890476Y-121864380D01*
X140985714Y-121864380D01*
X140128571Y-121864380D02*
X140128571Y-120864380D01*
X139795238Y-121578666D01*
X139461904Y-120864380D01*
X139461904Y-121864380D01*
X138509523Y-120864380D02*
X138985714Y-120864380D01*
X139033333Y-121340571D01*
X138985714Y-121292952D01*
X138890476Y-121245333D01*
X138652380Y-121245333D01*
X138557142Y-121292952D01*
X138509523Y-121340571D01*
X138461904Y-121435809D01*
X138461904Y-121673904D01*
X138509523Y-121769142D01*
X138557142Y-121816761D01*
X138652380Y-121864380D01*
X138890476Y-121864380D01*
X138985714Y-121816761D01*
X139033333Y-121769142D01*
%TO.C,JM1*%
X163464761Y-120864380D02*
X163464761Y-121578666D01*
X163512380Y-121721523D01*
X163607619Y-121816761D01*
X163750476Y-121864380D01*
X163845714Y-121864380D01*
X162988571Y-121864380D02*
X162988571Y-120864380D01*
X162655238Y-121578666D01*
X162321904Y-120864380D01*
X162321904Y-121864380D01*
X161321904Y-121864380D02*
X161893333Y-121864380D01*
X161607619Y-121864380D02*
X161607619Y-120864380D01*
X161702857Y-121007238D01*
X161798095Y-121102476D01*
X161893333Y-121150095D01*
%TO.C,JM6*%
X186324761Y-120864380D02*
X186324761Y-121578666D01*
X186372380Y-121721523D01*
X186467619Y-121816761D01*
X186610476Y-121864380D01*
X186705714Y-121864380D01*
X185848571Y-121864380D02*
X185848571Y-120864380D01*
X185515238Y-121578666D01*
X185181904Y-120864380D01*
X185181904Y-121864380D01*
X184277142Y-120864380D02*
X184467619Y-120864380D01*
X184562857Y-120912000D01*
X184610476Y-120959619D01*
X184705714Y-121102476D01*
X184753333Y-121292952D01*
X184753333Y-121673904D01*
X184705714Y-121769142D01*
X184658095Y-121816761D01*
X184562857Y-121864380D01*
X184372380Y-121864380D01*
X184277142Y-121816761D01*
X184229523Y-121769142D01*
X184181904Y-121673904D01*
X184181904Y-121435809D01*
X184229523Y-121340571D01*
X184277142Y-121292952D01*
X184372380Y-121245333D01*
X184562857Y-121245333D01*
X184658095Y-121292952D01*
X184705714Y-121340571D01*
X184753333Y-121435809D01*
%TO.C,JM3*%
X160924761Y-68540380D02*
X160924761Y-69254666D01*
X160972380Y-69397523D01*
X161067619Y-69492761D01*
X161210476Y-69540380D01*
X161305714Y-69540380D01*
X160448571Y-69540380D02*
X160448571Y-68540380D01*
X160115238Y-69254666D01*
X159781904Y-68540380D01*
X159781904Y-69540380D01*
X159400952Y-68540380D02*
X158781904Y-68540380D01*
X159115238Y-68921333D01*
X158972380Y-68921333D01*
X158877142Y-68968952D01*
X158829523Y-69016571D01*
X158781904Y-69111809D01*
X158781904Y-69349904D01*
X158829523Y-69445142D01*
X158877142Y-69492761D01*
X158972380Y-69540380D01*
X159258095Y-69540380D01*
X159353333Y-69492761D01*
X159400952Y-69445142D01*
%TO.C,JM4*%
X181244761Y-68540380D02*
X181244761Y-69254666D01*
X181292380Y-69397523D01*
X181387619Y-69492761D01*
X181530476Y-69540380D01*
X181625714Y-69540380D01*
X180768571Y-69540380D02*
X180768571Y-68540380D01*
X180435238Y-69254666D01*
X180101904Y-68540380D01*
X180101904Y-69540380D01*
X179197142Y-68873714D02*
X179197142Y-69540380D01*
X179435238Y-68492761D02*
X179673333Y-69207047D01*
X179054285Y-69207047D01*
%TO.C,J1*%
X202999333Y-116082380D02*
X202999333Y-116796666D01*
X203046952Y-116939523D01*
X203142190Y-117034761D01*
X203285047Y-117082380D01*
X203380285Y-117082380D01*
X201999333Y-117082380D02*
X202570761Y-117082380D01*
X202285047Y-117082380D02*
X202285047Y-116082380D01*
X202380285Y-116225238D01*
X202475523Y-116320476D01*
X202570761Y-116368095D01*
%TO.C,J36*%
X114601523Y-122896380D02*
X114601523Y-123610666D01*
X114649142Y-123753523D01*
X114744380Y-123848761D01*
X114887238Y-123896380D01*
X114982476Y-123896380D01*
X114220571Y-122896380D02*
X113601523Y-122896380D01*
X113934857Y-123277333D01*
X113792000Y-123277333D01*
X113696761Y-123324952D01*
X113649142Y-123372571D01*
X113601523Y-123467809D01*
X113601523Y-123705904D01*
X113649142Y-123801142D01*
X113696761Y-123848761D01*
X113792000Y-123896380D01*
X114077714Y-123896380D01*
X114172952Y-123848761D01*
X114220571Y-123801142D01*
X112744380Y-122896380D02*
X112934857Y-122896380D01*
X113030095Y-122944000D01*
X113077714Y-122991619D01*
X113172952Y-123134476D01*
X113220571Y-123324952D01*
X113220571Y-123705904D01*
X113172952Y-123801142D01*
X113125333Y-123848761D01*
X113030095Y-123896380D01*
X112839619Y-123896380D01*
X112744380Y-123848761D01*
X112696761Y-123801142D01*
X112649142Y-123705904D01*
X112649142Y-123467809D01*
X112696761Y-123372571D01*
X112744380Y-123324952D01*
X112839619Y-123277333D01*
X113030095Y-123277333D01*
X113125333Y-123324952D01*
X113172952Y-123372571D01*
X113220571Y-123467809D01*
%TO.C,J30*%
X114601523Y-110196380D02*
X114601523Y-110910666D01*
X114649142Y-111053523D01*
X114744380Y-111148761D01*
X114887238Y-111196380D01*
X114982476Y-111196380D01*
X114220571Y-110196380D02*
X113601523Y-110196380D01*
X113934857Y-110577333D01*
X113792000Y-110577333D01*
X113696761Y-110624952D01*
X113649142Y-110672571D01*
X113601523Y-110767809D01*
X113601523Y-111005904D01*
X113649142Y-111101142D01*
X113696761Y-111148761D01*
X113792000Y-111196380D01*
X114077714Y-111196380D01*
X114172952Y-111148761D01*
X114220571Y-111101142D01*
X112982476Y-110196380D02*
X112887238Y-110196380D01*
X112792000Y-110244000D01*
X112744380Y-110291619D01*
X112696761Y-110386857D01*
X112649142Y-110577333D01*
X112649142Y-110815428D01*
X112696761Y-111005904D01*
X112744380Y-111101142D01*
X112792000Y-111148761D01*
X112887238Y-111196380D01*
X112982476Y-111196380D01*
X113077714Y-111148761D01*
X113125333Y-111101142D01*
X113172952Y-111005904D01*
X113220571Y-110815428D01*
X113220571Y-110577333D01*
X113172952Y-110386857D01*
X113125333Y-110291619D01*
X113077714Y-110244000D01*
X112982476Y-110196380D01*
%TO.C,J262*%
X115585714Y-100036380D02*
X115585714Y-100750666D01*
X115633333Y-100893523D01*
X115728571Y-100988761D01*
X115871428Y-101036380D01*
X115966666Y-101036380D01*
X115157142Y-100131619D02*
X115109523Y-100084000D01*
X115014285Y-100036380D01*
X114776190Y-100036380D01*
X114680952Y-100084000D01*
X114633333Y-100131619D01*
X114585714Y-100226857D01*
X114585714Y-100322095D01*
X114633333Y-100464952D01*
X115204761Y-101036380D01*
X114585714Y-101036380D01*
X113728571Y-100036380D02*
X113919047Y-100036380D01*
X114014285Y-100084000D01*
X114061904Y-100131619D01*
X114157142Y-100274476D01*
X114204761Y-100464952D01*
X114204761Y-100845904D01*
X114157142Y-100941142D01*
X114109523Y-100988761D01*
X114014285Y-101036380D01*
X113823809Y-101036380D01*
X113728571Y-100988761D01*
X113680952Y-100941142D01*
X113633333Y-100845904D01*
X113633333Y-100607809D01*
X113680952Y-100512571D01*
X113728571Y-100464952D01*
X113823809Y-100417333D01*
X114014285Y-100417333D01*
X114109523Y-100464952D01*
X114157142Y-100512571D01*
X114204761Y-100607809D01*
X113252380Y-100131619D02*
X113204761Y-100084000D01*
X113109523Y-100036380D01*
X112871428Y-100036380D01*
X112776190Y-100084000D01*
X112728571Y-100131619D01*
X112680952Y-100226857D01*
X112680952Y-100322095D01*
X112728571Y-100464952D01*
X113300000Y-101036380D01*
X112680952Y-101036380D01*
%TO.C,J261*%
X115585714Y-89876380D02*
X115585714Y-90590666D01*
X115633333Y-90733523D01*
X115728571Y-90828761D01*
X115871428Y-90876380D01*
X115966666Y-90876380D01*
X115157142Y-89971619D02*
X115109523Y-89924000D01*
X115014285Y-89876380D01*
X114776190Y-89876380D01*
X114680952Y-89924000D01*
X114633333Y-89971619D01*
X114585714Y-90066857D01*
X114585714Y-90162095D01*
X114633333Y-90304952D01*
X115204761Y-90876380D01*
X114585714Y-90876380D01*
X113728571Y-89876380D02*
X113919047Y-89876380D01*
X114014285Y-89924000D01*
X114061904Y-89971619D01*
X114157142Y-90114476D01*
X114204761Y-90304952D01*
X114204761Y-90685904D01*
X114157142Y-90781142D01*
X114109523Y-90828761D01*
X114014285Y-90876380D01*
X113823809Y-90876380D01*
X113728571Y-90828761D01*
X113680952Y-90781142D01*
X113633333Y-90685904D01*
X113633333Y-90447809D01*
X113680952Y-90352571D01*
X113728571Y-90304952D01*
X113823809Y-90257333D01*
X114014285Y-90257333D01*
X114109523Y-90304952D01*
X114157142Y-90352571D01*
X114204761Y-90447809D01*
X112680952Y-90876380D02*
X113252380Y-90876380D01*
X112966666Y-90876380D02*
X112966666Y-89876380D01*
X113061904Y-90019238D01*
X113157142Y-90114476D01*
X113252380Y-90162095D01*
%TO.C,J28*%
X114601523Y-79716380D02*
X114601523Y-80430666D01*
X114649142Y-80573523D01*
X114744380Y-80668761D01*
X114887238Y-80716380D01*
X114982476Y-80716380D01*
X114172952Y-79811619D02*
X114125333Y-79764000D01*
X114030095Y-79716380D01*
X113792000Y-79716380D01*
X113696761Y-79764000D01*
X113649142Y-79811619D01*
X113601523Y-79906857D01*
X113601523Y-80002095D01*
X113649142Y-80144952D01*
X114220571Y-80716380D01*
X113601523Y-80716380D01*
X113030095Y-80144952D02*
X113125333Y-80097333D01*
X113172952Y-80049714D01*
X113220571Y-79954476D01*
X113220571Y-79906857D01*
X113172952Y-79811619D01*
X113125333Y-79764000D01*
X113030095Y-79716380D01*
X112839619Y-79716380D01*
X112744380Y-79764000D01*
X112696761Y-79811619D01*
X112649142Y-79906857D01*
X112649142Y-79954476D01*
X112696761Y-80049714D01*
X112744380Y-80097333D01*
X112839619Y-80144952D01*
X113030095Y-80144952D01*
X113125333Y-80192571D01*
X113172952Y-80240190D01*
X113220571Y-80335428D01*
X113220571Y-80525904D01*
X113172952Y-80621142D01*
X113125333Y-80668761D01*
X113030095Y-80716380D01*
X112839619Y-80716380D01*
X112744380Y-80668761D01*
X112696761Y-80621142D01*
X112649142Y-80525904D01*
X112649142Y-80335428D01*
X112696761Y-80240190D01*
X112744380Y-80192571D01*
X112839619Y-80144952D01*
%TD*%
M02*
