%TF.GenerationSoftware,KiCad,Pcbnew,(5.1.6-0-10_14)*%
%TF.CreationDate,2020-10-31T20:27:49+00:00*%
%TF.ProjectId,DeWinCNC,44655769-6e43-44e4-932e-6b696361645f,0.5*%
%TF.SameCoordinates,Original*%
%TF.FileFunction,Legend,Top*%
%TF.FilePolarity,Positive*%
%FSLAX46Y46*%
G04 Gerber Fmt 4.6, Leading zero omitted, Abs format (unit mm)*
G04 Created by KiCad (PCBNEW (5.1.6-0-10_14)) date 2020-10-31 20:27:49*
%MOMM*%
%LPD*%
G01*
G04 APERTURE LIST*
%ADD10C,0.150000*%
%ADD11C,0.120000*%
G04 APERTURE END LIST*
D10*
X161965142Y-121197714D02*
X161203238Y-121483428D01*
X161965142Y-121769142D01*
X162393714Y-121816761D02*
X162536571Y-121864380D01*
X162774666Y-121864380D01*
X162869904Y-121816761D01*
X162917523Y-121769142D01*
X162965142Y-121673904D01*
X162965142Y-121578666D01*
X162917523Y-121483428D01*
X162869904Y-121435809D01*
X162774666Y-121388190D01*
X162584190Y-121340571D01*
X162488952Y-121292952D01*
X162441333Y-121245333D01*
X162393714Y-121150095D01*
X162393714Y-121054857D01*
X162441333Y-120959619D01*
X162488952Y-120912000D01*
X162584190Y-120864380D01*
X162822285Y-120864380D01*
X162965142Y-120912000D01*
X163774666Y-121816761D02*
X163679428Y-121864380D01*
X163488952Y-121864380D01*
X163393714Y-121816761D01*
X163346095Y-121721523D01*
X163346095Y-121340571D01*
X163393714Y-121245333D01*
X163488952Y-121197714D01*
X163679428Y-121197714D01*
X163774666Y-121245333D01*
X163822285Y-121340571D01*
X163822285Y-121435809D01*
X163346095Y-121531047D01*
X164250857Y-121864380D02*
X164250857Y-121197714D01*
X164250857Y-121388190D02*
X164298476Y-121292952D01*
X164346095Y-121245333D01*
X164441333Y-121197714D01*
X164536571Y-121197714D01*
X164774666Y-121197714D02*
X165012761Y-121864380D01*
X165250857Y-121197714D01*
X165774666Y-121864380D02*
X165679428Y-121816761D01*
X165631809Y-121769142D01*
X165584190Y-121673904D01*
X165584190Y-121388190D01*
X165631809Y-121292952D01*
X165679428Y-121245333D01*
X165774666Y-121197714D01*
X165917523Y-121197714D01*
X166012761Y-121245333D01*
X166060380Y-121292952D01*
X166108000Y-121388190D01*
X166108000Y-121673904D01*
X166060380Y-121769142D01*
X166012761Y-121816761D01*
X165917523Y-121864380D01*
X165774666Y-121864380D01*
X166488952Y-121816761D02*
X166584190Y-121864380D01*
X166774666Y-121864380D01*
X166869904Y-121816761D01*
X166917523Y-121721523D01*
X166917523Y-121673904D01*
X166869904Y-121578666D01*
X166774666Y-121531047D01*
X166631809Y-121531047D01*
X166536571Y-121483428D01*
X166488952Y-121388190D01*
X166488952Y-121340571D01*
X166536571Y-121245333D01*
X166631809Y-121197714D01*
X166774666Y-121197714D01*
X166869904Y-121245333D01*
X167869904Y-121864380D02*
X167298476Y-121864380D01*
X167584190Y-121864380D02*
X167584190Y-120864380D01*
X167488952Y-121007238D01*
X167393714Y-121102476D01*
X167298476Y-121150095D01*
X168298476Y-121483428D02*
X169060380Y-121483428D01*
X169965142Y-121197714D02*
X169965142Y-121864380D01*
X169727047Y-120816761D02*
X169488952Y-121531047D01*
X170108000Y-121531047D01*
X161219238Y-64524000D02*
X161124000Y-64476380D01*
X160981142Y-64476380D01*
X160838285Y-64524000D01*
X160743047Y-64619238D01*
X160695428Y-64714476D01*
X160647809Y-64904952D01*
X160647809Y-65047809D01*
X160695428Y-65238285D01*
X160743047Y-65333523D01*
X160838285Y-65428761D01*
X160981142Y-65476380D01*
X161076380Y-65476380D01*
X161219238Y-65428761D01*
X161266857Y-65381142D01*
X161266857Y-65047809D01*
X161076380Y-65047809D01*
X161695428Y-65476380D02*
X161695428Y-64476380D01*
X162266857Y-65476380D01*
X162266857Y-64476380D01*
X162743047Y-65476380D02*
X162743047Y-64476380D01*
X162981142Y-64476380D01*
X163124000Y-64524000D01*
X163219238Y-64619238D01*
X163266857Y-64714476D01*
X163314476Y-64904952D01*
X163314476Y-65047809D01*
X163266857Y-65238285D01*
X163219238Y-65333523D01*
X163124000Y-65428761D01*
X162981142Y-65476380D01*
X162743047Y-65476380D01*
X163790666Y-65428761D02*
X163790666Y-65476380D01*
X163743047Y-65571619D01*
X163695428Y-65619238D01*
X164743047Y-65476380D02*
X164171619Y-65476380D01*
X164457333Y-65476380D02*
X164457333Y-64476380D01*
X164362095Y-64619238D01*
X164266857Y-64714476D01*
X164171619Y-64762095D01*
X165171619Y-65095428D02*
X165933523Y-65095428D01*
X166314476Y-64476380D02*
X166552571Y-65476380D01*
X166743047Y-64762095D01*
X166933523Y-65476380D01*
X167171619Y-64476380D01*
X167552571Y-65476380D02*
X167552571Y-64809714D01*
X167552571Y-64476380D02*
X167504952Y-64524000D01*
X167552571Y-64571619D01*
X167600190Y-64524000D01*
X167552571Y-64476380D01*
X167552571Y-64571619D01*
X168028761Y-65476380D02*
X168028761Y-64809714D01*
X168028761Y-65000190D02*
X168076380Y-64904952D01*
X168124000Y-64857333D01*
X168219238Y-64809714D01*
X168314476Y-64809714D01*
X169028761Y-65428761D02*
X168933523Y-65476380D01*
X168743047Y-65476380D01*
X168647809Y-65428761D01*
X168600190Y-65333523D01*
X168600190Y-64952571D01*
X168647809Y-64857333D01*
X168743047Y-64809714D01*
X168933523Y-64809714D01*
X169028761Y-64857333D01*
X169076380Y-64952571D01*
X169076380Y-65047809D01*
X168600190Y-65143047D01*
X169552571Y-65428761D02*
X169552571Y-65476380D01*
X169504952Y-65571619D01*
X169457333Y-65619238D01*
X170457333Y-64476380D02*
X169981142Y-64476380D01*
X169933523Y-64952571D01*
X169981142Y-64904952D01*
X170076380Y-64857333D01*
X170314476Y-64857333D01*
X170409714Y-64904952D01*
X170457333Y-64952571D01*
X170504952Y-65047809D01*
X170504952Y-65285904D01*
X170457333Y-65381142D01*
X170409714Y-65428761D01*
X170314476Y-65476380D01*
X170076380Y-65476380D01*
X169981142Y-65428761D01*
X169933523Y-65381142D01*
X170790666Y-64476380D02*
X171124000Y-65476380D01*
X171457333Y-64476380D01*
X171790666Y-65095428D02*
X172552571Y-65095428D01*
X172171619Y-65476380D02*
X172171619Y-64714476D01*
X117365142Y-62952380D02*
X118031809Y-63952380D01*
X118031809Y-62952380D02*
X117365142Y-63952380D01*
X118412761Y-63571428D02*
X119174666Y-63571428D01*
X121079428Y-62952380D02*
X121746095Y-63952380D01*
X121746095Y-62952380D02*
X121079428Y-63952380D01*
X122127047Y-63571428D02*
X122888952Y-63571428D01*
X122508000Y-63952380D02*
X122508000Y-63190476D01*
X125079428Y-63476190D02*
X125079428Y-63952380D01*
X124746095Y-62952380D02*
X125079428Y-63476190D01*
X125412761Y-62952380D01*
X125746095Y-63571428D02*
X126508000Y-63571428D01*
X128698476Y-63476190D02*
X128698476Y-63952380D01*
X128365142Y-62952380D02*
X128698476Y-63476190D01*
X129031809Y-62952380D01*
X129365142Y-63571428D02*
X130127047Y-63571428D01*
X129746095Y-63952380D02*
X129746095Y-63190476D01*
X132031809Y-62952380D02*
X132698476Y-62952380D01*
X132031809Y-63952380D01*
X132698476Y-63952380D01*
X133079428Y-63571428D02*
X133841333Y-63571428D01*
X135746095Y-62952380D02*
X136412761Y-62952380D01*
X135746095Y-63952380D01*
X136412761Y-63952380D01*
X136793714Y-63571428D02*
X137555619Y-63571428D01*
X137174666Y-63952380D02*
X137174666Y-63190476D01*
D11*
%TO.C,J40*%
X196910000Y-64322000D02*
X196910000Y-61662000D01*
X179070000Y-64322000D02*
X196910000Y-64322000D01*
X179070000Y-61662000D02*
X196910000Y-61662000D01*
X179070000Y-64322000D02*
X179070000Y-61662000D01*
X177800000Y-64322000D02*
X176470000Y-64322000D01*
X176470000Y-64322000D02*
X176470000Y-62992000D01*
%TO.C,R4*%
X122161359Y-106359905D02*
G75*
G02*
X120712000Y-106262867I-749359J-320095D01*
G01*
%TO.C,R6*%
X121653359Y-86039905D02*
G75*
G02*
X120204000Y-85942867I-749359J-320095D01*
G01*
%TO.C,J1*%
X207044000Y-115630000D02*
X205714000Y-115630000D01*
X207044000Y-114300000D02*
X207044000Y-115630000D01*
X204444000Y-115630000D02*
X201844000Y-115630000D01*
X204444000Y-113030000D02*
X204444000Y-115630000D01*
X207044000Y-113030000D02*
X204444000Y-113030000D01*
X201844000Y-115630000D02*
X201844000Y-69790000D01*
X207044000Y-113030000D02*
X207044000Y-69790000D01*
X207044000Y-69790000D02*
X201844000Y-69790000D01*
%TO.C,J43*%
X160528000Y-51562000D02*
X145288000Y-51562000D01*
X160528000Y-59182000D02*
X145288000Y-59182000D01*
X160528000Y-52832000D02*
X145288000Y-52832000D01*
X145288000Y-51562000D02*
X145288000Y-59182000D01*
X160528000Y-51562000D02*
X160528000Y-59182000D01*
%TO.C,J41*%
X128016000Y-51562000D02*
X112776000Y-51562000D01*
X128016000Y-59182000D02*
X112776000Y-59182000D01*
X128016000Y-52832000D02*
X112776000Y-52832000D01*
X112776000Y-51562000D02*
X112776000Y-59182000D01*
X128016000Y-51562000D02*
X128016000Y-59182000D01*
%TO.C,J42*%
X144272000Y-51562000D02*
X129032000Y-51562000D01*
X144272000Y-59182000D02*
X129032000Y-59182000D01*
X144272000Y-52832000D02*
X129032000Y-52832000D01*
X129032000Y-51562000D02*
X129032000Y-59182000D01*
X144272000Y-51562000D02*
X144272000Y-59182000D01*
%TO.C,J47*%
X145288000Y-67310000D02*
X145288000Y-59690000D01*
X160528000Y-67310000D02*
X160528000Y-59690000D01*
X145288000Y-66040000D02*
X160528000Y-66040000D01*
X145288000Y-59690000D02*
X160528000Y-59690000D01*
X145288000Y-67310000D02*
X160528000Y-67310000D01*
%TO.C,F1*%
X125580000Y-124378000D02*
X125580000Y-124628000D01*
X125580000Y-121428000D02*
X125580000Y-122879000D01*
X118280000Y-123178000D02*
X118280000Y-124628000D01*
X118280000Y-121428000D02*
X118280000Y-121678000D01*
X125359000Y-124628000D02*
X125580000Y-124628000D01*
X118280000Y-124628000D02*
X123602000Y-124628000D01*
X120259000Y-121428000D02*
X125580000Y-121428000D01*
X118280000Y-121428000D02*
X118501000Y-121428000D01*
%TO.C,D6*%
X118411134Y-118401850D02*
G75*
G02*
X120280000Y-118461239I968866J1053850D01*
G01*
%TO.C,D5*%
X132635134Y-120941850D02*
G75*
G02*
X134504000Y-121001239I968866J1053850D01*
G01*
%TO.C,J4*%
X130362000Y-128330000D02*
X130362000Y-125670000D01*
X127762000Y-128330000D02*
X130362000Y-128330000D01*
X127762000Y-125670000D02*
X130362000Y-125670000D01*
X127762000Y-128330000D02*
X127762000Y-125670000D01*
X126492000Y-128330000D02*
X125162000Y-128330000D01*
X125162000Y-128330000D02*
X125162000Y-127000000D01*
%TO.C,J10*%
X118558000Y-125670000D02*
X118558000Y-128330000D01*
X121158000Y-125670000D02*
X118558000Y-125670000D01*
X121158000Y-128330000D02*
X118558000Y-128330000D01*
X121158000Y-125670000D02*
X121158000Y-128330000D01*
X122428000Y-125670000D02*
X123758000Y-125670000D01*
X123758000Y-125670000D02*
X123758000Y-127000000D01*
%TO.C,C10*%
X134016000Y-125589000D02*
X134016000Y-126847000D01*
X132176000Y-125589000D02*
X132176000Y-126847000D01*
%TO.C,C9*%
X128129000Y-122524000D02*
X129387000Y-122524000D01*
X128129000Y-124364000D02*
X129387000Y-124364000D01*
%TO.C,U5*%
X121372000Y-116110000D02*
X131612000Y-116110000D01*
X121372000Y-120751000D02*
X131612000Y-120751000D01*
X121372000Y-116110000D02*
X121372000Y-120751000D01*
X131612000Y-116110000D02*
X131612000Y-120751000D01*
X121372000Y-117620000D02*
X131612000Y-117620000D01*
X124642000Y-116110000D02*
X124642000Y-117620000D01*
X128343000Y-116110000D02*
X128343000Y-117620000D01*
%TO.C,C5*%
X138063000Y-127920000D02*
X136805000Y-127920000D01*
X138063000Y-126080000D02*
X136805000Y-126080000D01*
%TO.C,C7*%
X175107000Y-80168000D02*
X173849000Y-80168000D01*
X175107000Y-78328000D02*
X173849000Y-78328000D01*
%TO.C,J37*%
X176590000Y-77530000D02*
X176590000Y-74870000D01*
X171450000Y-77530000D02*
X176590000Y-77530000D01*
X171450000Y-74870000D02*
X176590000Y-74870000D01*
X171450000Y-77530000D02*
X171450000Y-74870000D01*
X170180000Y-77530000D02*
X168850000Y-77530000D01*
X168850000Y-77530000D02*
X168850000Y-76200000D01*
%TO.C,R8*%
X198720095Y-78981359D02*
G75*
G02*
X198817133Y-77532000I-320095J749359D01*
G01*
%TO.C,R9*%
X198720095Y-76949359D02*
G75*
G02*
X198817133Y-75500000I-320095J749359D01*
G01*
%TO.C,R10*%
X169616095Y-79997359D02*
G75*
G02*
X169713133Y-78548000I-320095J749359D01*
G01*
%TO.C,C6*%
X202272000Y-72378000D02*
G75*
G03*
X202272000Y-72378000I-2120000J0D01*
G01*
X199312000Y-72378000D02*
X198072000Y-72378000D01*
X202232000Y-72378000D02*
X200992000Y-72378000D01*
X199312000Y-72418000D02*
X198072000Y-72418000D01*
X202232000Y-72418000D02*
X200992000Y-72418000D01*
X199312000Y-72458000D02*
X198073000Y-72458000D01*
X202231000Y-72458000D02*
X200992000Y-72458000D01*
X202229000Y-72498000D02*
X200992000Y-72498000D01*
X199312000Y-72498000D02*
X198075000Y-72498000D01*
X202226000Y-72538000D02*
X200992000Y-72538000D01*
X199312000Y-72538000D02*
X198078000Y-72538000D01*
X202223000Y-72578000D02*
X200992000Y-72578000D01*
X199312000Y-72578000D02*
X198081000Y-72578000D01*
X202219000Y-72618000D02*
X200992000Y-72618000D01*
X199312000Y-72618000D02*
X198085000Y-72618000D01*
X202214000Y-72658000D02*
X200992000Y-72658000D01*
X199312000Y-72658000D02*
X198090000Y-72658000D01*
X202208000Y-72698000D02*
X200992000Y-72698000D01*
X199312000Y-72698000D02*
X198096000Y-72698000D01*
X202202000Y-72738000D02*
X200992000Y-72738000D01*
X199312000Y-72738000D02*
X198102000Y-72738000D01*
X202194000Y-72778000D02*
X200992000Y-72778000D01*
X199312000Y-72778000D02*
X198110000Y-72778000D01*
X202186000Y-72818000D02*
X200992000Y-72818000D01*
X199312000Y-72818000D02*
X198118000Y-72818000D01*
X202177000Y-72858000D02*
X200992000Y-72858000D01*
X199312000Y-72858000D02*
X198127000Y-72858000D01*
X202168000Y-72898000D02*
X200992000Y-72898000D01*
X199312000Y-72898000D02*
X198136000Y-72898000D01*
X202157000Y-72938000D02*
X200992000Y-72938000D01*
X199312000Y-72938000D02*
X198147000Y-72938000D01*
X202146000Y-72978000D02*
X200992000Y-72978000D01*
X199312000Y-72978000D02*
X198158000Y-72978000D01*
X202134000Y-73018000D02*
X200992000Y-73018000D01*
X199312000Y-73018000D02*
X198170000Y-73018000D01*
X202120000Y-73058000D02*
X200992000Y-73058000D01*
X199312000Y-73058000D02*
X198184000Y-73058000D01*
X202106000Y-73099000D02*
X200992000Y-73099000D01*
X199312000Y-73099000D02*
X198198000Y-73099000D01*
X202092000Y-73139000D02*
X200992000Y-73139000D01*
X199312000Y-73139000D02*
X198212000Y-73139000D01*
X202076000Y-73179000D02*
X200992000Y-73179000D01*
X199312000Y-73179000D02*
X198228000Y-73179000D01*
X202059000Y-73219000D02*
X200992000Y-73219000D01*
X199312000Y-73219000D02*
X198245000Y-73219000D01*
X202041000Y-73259000D02*
X200992000Y-73259000D01*
X199312000Y-73259000D02*
X198263000Y-73259000D01*
X202022000Y-73299000D02*
X200992000Y-73299000D01*
X199312000Y-73299000D02*
X198282000Y-73299000D01*
X202003000Y-73339000D02*
X200992000Y-73339000D01*
X199312000Y-73339000D02*
X198301000Y-73339000D01*
X201982000Y-73379000D02*
X200992000Y-73379000D01*
X199312000Y-73379000D02*
X198322000Y-73379000D01*
X201960000Y-73419000D02*
X200992000Y-73419000D01*
X199312000Y-73419000D02*
X198344000Y-73419000D01*
X201937000Y-73459000D02*
X200992000Y-73459000D01*
X199312000Y-73459000D02*
X198367000Y-73459000D01*
X201912000Y-73499000D02*
X200992000Y-73499000D01*
X199312000Y-73499000D02*
X198392000Y-73499000D01*
X201887000Y-73539000D02*
X200992000Y-73539000D01*
X199312000Y-73539000D02*
X198417000Y-73539000D01*
X201860000Y-73579000D02*
X200992000Y-73579000D01*
X199312000Y-73579000D02*
X198444000Y-73579000D01*
X201832000Y-73619000D02*
X200992000Y-73619000D01*
X199312000Y-73619000D02*
X198472000Y-73619000D01*
X201802000Y-73659000D02*
X200992000Y-73659000D01*
X199312000Y-73659000D02*
X198502000Y-73659000D01*
X201771000Y-73699000D02*
X200992000Y-73699000D01*
X199312000Y-73699000D02*
X198533000Y-73699000D01*
X201739000Y-73739000D02*
X200992000Y-73739000D01*
X199312000Y-73739000D02*
X198565000Y-73739000D01*
X201704000Y-73779000D02*
X200992000Y-73779000D01*
X199312000Y-73779000D02*
X198600000Y-73779000D01*
X201668000Y-73819000D02*
X200992000Y-73819000D01*
X199312000Y-73819000D02*
X198636000Y-73819000D01*
X201630000Y-73859000D02*
X200992000Y-73859000D01*
X199312000Y-73859000D02*
X198674000Y-73859000D01*
X201590000Y-73899000D02*
X200992000Y-73899000D01*
X199312000Y-73899000D02*
X198714000Y-73899000D01*
X201548000Y-73939000D02*
X200992000Y-73939000D01*
X199312000Y-73939000D02*
X198756000Y-73939000D01*
X201503000Y-73979000D02*
X198801000Y-73979000D01*
X201456000Y-74019000D02*
X198848000Y-74019000D01*
X201406000Y-74059000D02*
X198898000Y-74059000D01*
X201352000Y-74099000D02*
X198952000Y-74099000D01*
X201294000Y-74139000D02*
X199010000Y-74139000D01*
X201232000Y-74179000D02*
X199072000Y-74179000D01*
X201165000Y-74219000D02*
X199139000Y-74219000D01*
X201092000Y-74259000D02*
X199212000Y-74259000D01*
X201011000Y-74299000D02*
X199293000Y-74299000D01*
X200920000Y-74339000D02*
X199384000Y-74339000D01*
X200816000Y-74379000D02*
X199488000Y-74379000D01*
X200689000Y-74419000D02*
X199615000Y-74419000D01*
X200522000Y-74459000D02*
X199782000Y-74459000D01*
X201347000Y-70108199D02*
X201347000Y-70508199D01*
X201547000Y-70308199D02*
X201147000Y-70308199D01*
%TO.C,J46*%
X209296000Y-51562000D02*
X194056000Y-51562000D01*
X209296000Y-59182000D02*
X194056000Y-59182000D01*
X209296000Y-52832000D02*
X194056000Y-52832000D01*
X194056000Y-51562000D02*
X194056000Y-59182000D01*
X209296000Y-51562000D02*
X209296000Y-59182000D01*
%TO.C,J45*%
X193040000Y-51562000D02*
X177800000Y-51562000D01*
X193040000Y-59182000D02*
X177800000Y-59182000D01*
X193040000Y-52832000D02*
X177800000Y-52832000D01*
X177800000Y-51562000D02*
X177800000Y-59182000D01*
X193040000Y-51562000D02*
X193040000Y-59182000D01*
%TO.C,J44*%
X176784000Y-51562000D02*
X161544000Y-51562000D01*
X176784000Y-59182000D02*
X161544000Y-59182000D01*
X176784000Y-52832000D02*
X161544000Y-52832000D01*
X161544000Y-51562000D02*
X161544000Y-59182000D01*
X176784000Y-51562000D02*
X176784000Y-59182000D01*
%TO.C,J38*%
X139640000Y-97850000D02*
X139640000Y-96520000D01*
X140970000Y-97850000D02*
X139640000Y-97850000D01*
X139640000Y-95250000D02*
X139640000Y-92650000D01*
X142240000Y-95250000D02*
X139640000Y-95250000D01*
X142240000Y-97850000D02*
X142240000Y-95250000D01*
X139640000Y-92650000D02*
X190560000Y-92650000D01*
X142240000Y-97850000D02*
X190560000Y-97850000D01*
X190560000Y-97850000D02*
X190560000Y-92650000D01*
%TO.C,RESET*%
X148355000Y-126190000D02*
X148355000Y-124690000D01*
X147105000Y-122190000D02*
X142605000Y-122190000D01*
X141355000Y-124690000D02*
X141355000Y-126190000D01*
X142605000Y-128690000D02*
X147105000Y-128690000D01*
%TO.C,C4*%
X139546000Y-123444000D02*
G75*
G03*
X139546000Y-123444000I-2120000J0D01*
G01*
X137426000Y-122604000D02*
X137426000Y-121364000D01*
X137426000Y-125524000D02*
X137426000Y-124284000D01*
X137386000Y-122604000D02*
X137386000Y-121364000D01*
X137386000Y-125524000D02*
X137386000Y-124284000D01*
X137346000Y-122604000D02*
X137346000Y-121365000D01*
X137346000Y-125523000D02*
X137346000Y-124284000D01*
X137306000Y-125521000D02*
X137306000Y-124284000D01*
X137306000Y-122604000D02*
X137306000Y-121367000D01*
X137266000Y-125518000D02*
X137266000Y-124284000D01*
X137266000Y-122604000D02*
X137266000Y-121370000D01*
X137226000Y-125515000D02*
X137226000Y-124284000D01*
X137226000Y-122604000D02*
X137226000Y-121373000D01*
X137186000Y-125511000D02*
X137186000Y-124284000D01*
X137186000Y-122604000D02*
X137186000Y-121377000D01*
X137146000Y-125506000D02*
X137146000Y-124284000D01*
X137146000Y-122604000D02*
X137146000Y-121382000D01*
X137106000Y-125500000D02*
X137106000Y-124284000D01*
X137106000Y-122604000D02*
X137106000Y-121388000D01*
X137066000Y-125494000D02*
X137066000Y-124284000D01*
X137066000Y-122604000D02*
X137066000Y-121394000D01*
X137026000Y-125486000D02*
X137026000Y-124284000D01*
X137026000Y-122604000D02*
X137026000Y-121402000D01*
X136986000Y-125478000D02*
X136986000Y-124284000D01*
X136986000Y-122604000D02*
X136986000Y-121410000D01*
X136946000Y-125469000D02*
X136946000Y-124284000D01*
X136946000Y-122604000D02*
X136946000Y-121419000D01*
X136906000Y-125460000D02*
X136906000Y-124284000D01*
X136906000Y-122604000D02*
X136906000Y-121428000D01*
X136866000Y-125449000D02*
X136866000Y-124284000D01*
X136866000Y-122604000D02*
X136866000Y-121439000D01*
X136826000Y-125438000D02*
X136826000Y-124284000D01*
X136826000Y-122604000D02*
X136826000Y-121450000D01*
X136786000Y-125426000D02*
X136786000Y-124284000D01*
X136786000Y-122604000D02*
X136786000Y-121462000D01*
X136746000Y-125412000D02*
X136746000Y-124284000D01*
X136746000Y-122604000D02*
X136746000Y-121476000D01*
X136705000Y-125398000D02*
X136705000Y-124284000D01*
X136705000Y-122604000D02*
X136705000Y-121490000D01*
X136665000Y-125384000D02*
X136665000Y-124284000D01*
X136665000Y-122604000D02*
X136665000Y-121504000D01*
X136625000Y-125368000D02*
X136625000Y-124284000D01*
X136625000Y-122604000D02*
X136625000Y-121520000D01*
X136585000Y-125351000D02*
X136585000Y-124284000D01*
X136585000Y-122604000D02*
X136585000Y-121537000D01*
X136545000Y-125333000D02*
X136545000Y-124284000D01*
X136545000Y-122604000D02*
X136545000Y-121555000D01*
X136505000Y-125314000D02*
X136505000Y-124284000D01*
X136505000Y-122604000D02*
X136505000Y-121574000D01*
X136465000Y-125295000D02*
X136465000Y-124284000D01*
X136465000Y-122604000D02*
X136465000Y-121593000D01*
X136425000Y-125274000D02*
X136425000Y-124284000D01*
X136425000Y-122604000D02*
X136425000Y-121614000D01*
X136385000Y-125252000D02*
X136385000Y-124284000D01*
X136385000Y-122604000D02*
X136385000Y-121636000D01*
X136345000Y-125229000D02*
X136345000Y-124284000D01*
X136345000Y-122604000D02*
X136345000Y-121659000D01*
X136305000Y-125204000D02*
X136305000Y-124284000D01*
X136305000Y-122604000D02*
X136305000Y-121684000D01*
X136265000Y-125179000D02*
X136265000Y-124284000D01*
X136265000Y-122604000D02*
X136265000Y-121709000D01*
X136225000Y-125152000D02*
X136225000Y-124284000D01*
X136225000Y-122604000D02*
X136225000Y-121736000D01*
X136185000Y-125124000D02*
X136185000Y-124284000D01*
X136185000Y-122604000D02*
X136185000Y-121764000D01*
X136145000Y-125094000D02*
X136145000Y-124284000D01*
X136145000Y-122604000D02*
X136145000Y-121794000D01*
X136105000Y-125063000D02*
X136105000Y-124284000D01*
X136105000Y-122604000D02*
X136105000Y-121825000D01*
X136065000Y-125031000D02*
X136065000Y-124284000D01*
X136065000Y-122604000D02*
X136065000Y-121857000D01*
X136025000Y-124996000D02*
X136025000Y-124284000D01*
X136025000Y-122604000D02*
X136025000Y-121892000D01*
X135985000Y-124960000D02*
X135985000Y-124284000D01*
X135985000Y-122604000D02*
X135985000Y-121928000D01*
X135945000Y-124922000D02*
X135945000Y-124284000D01*
X135945000Y-122604000D02*
X135945000Y-121966000D01*
X135905000Y-124882000D02*
X135905000Y-124284000D01*
X135905000Y-122604000D02*
X135905000Y-122006000D01*
X135865000Y-124840000D02*
X135865000Y-124284000D01*
X135865000Y-122604000D02*
X135865000Y-122048000D01*
X135825000Y-124795000D02*
X135825000Y-122093000D01*
X135785000Y-124748000D02*
X135785000Y-122140000D01*
X135745000Y-124698000D02*
X135745000Y-122190000D01*
X135705000Y-124644000D02*
X135705000Y-122244000D01*
X135665000Y-124586000D02*
X135665000Y-122302000D01*
X135625000Y-124524000D02*
X135625000Y-122364000D01*
X135585000Y-124457000D02*
X135585000Y-122431000D01*
X135545000Y-124384000D02*
X135545000Y-122504000D01*
X135505000Y-124303000D02*
X135505000Y-122585000D01*
X135465000Y-124212000D02*
X135465000Y-122676000D01*
X135425000Y-124108000D02*
X135425000Y-122780000D01*
X135385000Y-123981000D02*
X135385000Y-122907000D01*
X135345000Y-123814000D02*
X135345000Y-123074000D01*
X139695801Y-124639000D02*
X139295801Y-124639000D01*
X139495801Y-124839000D02*
X139495801Y-124439000D01*
%TO.C,R5*%
X119705095Y-97269359D02*
G75*
G02*
X119802133Y-95820000I-320095J749359D01*
G01*
%TO.C,D4*%
X117981000Y-112550000D02*
X118300000Y-112550000D01*
X120460000Y-112550000D02*
X120779000Y-112550000D01*
X118299276Y-108246758D02*
G75*
G03*
X117981251Y-112550000I1080724J-2243242D01*
G01*
X120460724Y-108246758D02*
G75*
G02*
X120778749Y-112550000I-1080724J-2243242D01*
G01*
X118299039Y-108807287D02*
G75*
G03*
X118300000Y-112173330I1080961J-1682713D01*
G01*
X120460961Y-108807287D02*
G75*
G02*
X120460000Y-112173330I-1080961J-1682713D01*
G01*
%TO.C,D3*%
X117981000Y-102390000D02*
X118300000Y-102390000D01*
X120460000Y-102390000D02*
X120779000Y-102390000D01*
X118299276Y-98086758D02*
G75*
G03*
X117981251Y-102390000I1080724J-2243242D01*
G01*
X120460724Y-98086758D02*
G75*
G02*
X120778749Y-102390000I-1080724J-2243242D01*
G01*
X118299039Y-98647287D02*
G75*
G03*
X118300000Y-102013330I1080961J-1682713D01*
G01*
X120460961Y-98647287D02*
G75*
G02*
X120460000Y-102013330I-1080961J-1682713D01*
G01*
%TO.C,D2*%
X117981000Y-92230000D02*
X118300000Y-92230000D01*
X120460000Y-92230000D02*
X120779000Y-92230000D01*
X118299276Y-87926758D02*
G75*
G03*
X117981251Y-92230000I1080724J-2243242D01*
G01*
X120460724Y-87926758D02*
G75*
G02*
X120778749Y-92230000I-1080724J-2243242D01*
G01*
X118299039Y-88487287D02*
G75*
G03*
X118300000Y-91853330I1080961J-1682713D01*
G01*
X120460961Y-88487287D02*
G75*
G02*
X120460000Y-91853330I-1080961J-1682713D01*
G01*
%TO.C,D1*%
X117981000Y-82070000D02*
X118300000Y-82070000D01*
X120460000Y-82070000D02*
X120779000Y-82070000D01*
X120460961Y-78327287D02*
G75*
G02*
X120460000Y-81693330I-1080961J-1682713D01*
G01*
X118299039Y-78327287D02*
G75*
G03*
X118300000Y-81693330I1080961J-1682713D01*
G01*
X120460724Y-77766758D02*
G75*
G02*
X120778749Y-82070000I-1080724J-2243242D01*
G01*
X118299276Y-77766758D02*
G75*
G03*
X117981251Y-82070000I1080724J-2243242D01*
G01*
%TO.C,R7*%
X119705095Y-76949359D02*
G75*
G02*
X119802133Y-75500000I-320095J749359D01*
G01*
%TO.C,R1*%
X182565095Y-85839359D02*
G75*
G02*
X182662133Y-84390000I-320095J749359D01*
G01*
%TO.C,R2*%
X187645095Y-85839359D02*
G75*
G02*
X187742133Y-84390000I-320095J749359D01*
G01*
%TO.C,R3*%
X192725095Y-85839359D02*
G75*
G02*
X192822133Y-84390000I-320095J749359D01*
G01*
%TO.C,C1*%
X200990000Y-97790000D02*
G75*
G03*
X200990000Y-97790000I-2120000J0D01*
G01*
X198870000Y-98630000D02*
X198870000Y-99870000D01*
X198870000Y-95710000D02*
X198870000Y-96950000D01*
X198910000Y-98630000D02*
X198910000Y-99870000D01*
X198910000Y-95710000D02*
X198910000Y-96950000D01*
X198950000Y-98630000D02*
X198950000Y-99869000D01*
X198950000Y-95711000D02*
X198950000Y-96950000D01*
X198990000Y-95713000D02*
X198990000Y-96950000D01*
X198990000Y-98630000D02*
X198990000Y-99867000D01*
X199030000Y-95716000D02*
X199030000Y-96950000D01*
X199030000Y-98630000D02*
X199030000Y-99864000D01*
X199070000Y-95719000D02*
X199070000Y-96950000D01*
X199070000Y-98630000D02*
X199070000Y-99861000D01*
X199110000Y-95723000D02*
X199110000Y-96950000D01*
X199110000Y-98630000D02*
X199110000Y-99857000D01*
X199150000Y-95728000D02*
X199150000Y-96950000D01*
X199150000Y-98630000D02*
X199150000Y-99852000D01*
X199190000Y-95734000D02*
X199190000Y-96950000D01*
X199190000Y-98630000D02*
X199190000Y-99846000D01*
X199230000Y-95740000D02*
X199230000Y-96950000D01*
X199230000Y-98630000D02*
X199230000Y-99840000D01*
X199270000Y-95748000D02*
X199270000Y-96950000D01*
X199270000Y-98630000D02*
X199270000Y-99832000D01*
X199310000Y-95756000D02*
X199310000Y-96950000D01*
X199310000Y-98630000D02*
X199310000Y-99824000D01*
X199350000Y-95765000D02*
X199350000Y-96950000D01*
X199350000Y-98630000D02*
X199350000Y-99815000D01*
X199390000Y-95774000D02*
X199390000Y-96950000D01*
X199390000Y-98630000D02*
X199390000Y-99806000D01*
X199430000Y-95785000D02*
X199430000Y-96950000D01*
X199430000Y-98630000D02*
X199430000Y-99795000D01*
X199470000Y-95796000D02*
X199470000Y-96950000D01*
X199470000Y-98630000D02*
X199470000Y-99784000D01*
X199510000Y-95808000D02*
X199510000Y-96950000D01*
X199510000Y-98630000D02*
X199510000Y-99772000D01*
X199550000Y-95822000D02*
X199550000Y-96950000D01*
X199550000Y-98630000D02*
X199550000Y-99758000D01*
X199591000Y-95836000D02*
X199591000Y-96950000D01*
X199591000Y-98630000D02*
X199591000Y-99744000D01*
X199631000Y-95850000D02*
X199631000Y-96950000D01*
X199631000Y-98630000D02*
X199631000Y-99730000D01*
X199671000Y-95866000D02*
X199671000Y-96950000D01*
X199671000Y-98630000D02*
X199671000Y-99714000D01*
X199711000Y-95883000D02*
X199711000Y-96950000D01*
X199711000Y-98630000D02*
X199711000Y-99697000D01*
X199751000Y-95901000D02*
X199751000Y-96950000D01*
X199751000Y-98630000D02*
X199751000Y-99679000D01*
X199791000Y-95920000D02*
X199791000Y-96950000D01*
X199791000Y-98630000D02*
X199791000Y-99660000D01*
X199831000Y-95939000D02*
X199831000Y-96950000D01*
X199831000Y-98630000D02*
X199831000Y-99641000D01*
X199871000Y-95960000D02*
X199871000Y-96950000D01*
X199871000Y-98630000D02*
X199871000Y-99620000D01*
X199911000Y-95982000D02*
X199911000Y-96950000D01*
X199911000Y-98630000D02*
X199911000Y-99598000D01*
X199951000Y-96005000D02*
X199951000Y-96950000D01*
X199951000Y-98630000D02*
X199951000Y-99575000D01*
X199991000Y-96030000D02*
X199991000Y-96950000D01*
X199991000Y-98630000D02*
X199991000Y-99550000D01*
X200031000Y-96055000D02*
X200031000Y-96950000D01*
X200031000Y-98630000D02*
X200031000Y-99525000D01*
X200071000Y-96082000D02*
X200071000Y-96950000D01*
X200071000Y-98630000D02*
X200071000Y-99498000D01*
X200111000Y-96110000D02*
X200111000Y-96950000D01*
X200111000Y-98630000D02*
X200111000Y-99470000D01*
X200151000Y-96140000D02*
X200151000Y-96950000D01*
X200151000Y-98630000D02*
X200151000Y-99440000D01*
X200191000Y-96171000D02*
X200191000Y-96950000D01*
X200191000Y-98630000D02*
X200191000Y-99409000D01*
X200231000Y-96203000D02*
X200231000Y-96950000D01*
X200231000Y-98630000D02*
X200231000Y-99377000D01*
X200271000Y-96238000D02*
X200271000Y-96950000D01*
X200271000Y-98630000D02*
X200271000Y-99342000D01*
X200311000Y-96274000D02*
X200311000Y-96950000D01*
X200311000Y-98630000D02*
X200311000Y-99306000D01*
X200351000Y-96312000D02*
X200351000Y-96950000D01*
X200351000Y-98630000D02*
X200351000Y-99268000D01*
X200391000Y-96352000D02*
X200391000Y-96950000D01*
X200391000Y-98630000D02*
X200391000Y-99228000D01*
X200431000Y-96394000D02*
X200431000Y-96950000D01*
X200431000Y-98630000D02*
X200431000Y-99186000D01*
X200471000Y-96439000D02*
X200471000Y-99141000D01*
X200511000Y-96486000D02*
X200511000Y-99094000D01*
X200551000Y-96536000D02*
X200551000Y-99044000D01*
X200591000Y-96590000D02*
X200591000Y-98990000D01*
X200631000Y-96648000D02*
X200631000Y-98932000D01*
X200671000Y-96710000D02*
X200671000Y-98870000D01*
X200711000Y-96777000D02*
X200711000Y-98803000D01*
X200751000Y-96850000D02*
X200751000Y-98730000D01*
X200791000Y-96931000D02*
X200791000Y-98649000D01*
X200831000Y-97022000D02*
X200831000Y-98558000D01*
X200871000Y-97126000D02*
X200871000Y-98454000D01*
X200911000Y-97253000D02*
X200911000Y-98327000D01*
X200951000Y-97420000D02*
X200951000Y-98160000D01*
X196600199Y-96595000D02*
X197000199Y-96595000D01*
X196800199Y-96395000D02*
X196800199Y-96795000D01*
%TO.C,C2*%
X200990000Y-92710000D02*
G75*
G03*
X200990000Y-92710000I-2120000J0D01*
G01*
X198870000Y-93550000D02*
X198870000Y-94790000D01*
X198870000Y-90630000D02*
X198870000Y-91870000D01*
X198910000Y-93550000D02*
X198910000Y-94790000D01*
X198910000Y-90630000D02*
X198910000Y-91870000D01*
X198950000Y-93550000D02*
X198950000Y-94789000D01*
X198950000Y-90631000D02*
X198950000Y-91870000D01*
X198990000Y-90633000D02*
X198990000Y-91870000D01*
X198990000Y-93550000D02*
X198990000Y-94787000D01*
X199030000Y-90636000D02*
X199030000Y-91870000D01*
X199030000Y-93550000D02*
X199030000Y-94784000D01*
X199070000Y-90639000D02*
X199070000Y-91870000D01*
X199070000Y-93550000D02*
X199070000Y-94781000D01*
X199110000Y-90643000D02*
X199110000Y-91870000D01*
X199110000Y-93550000D02*
X199110000Y-94777000D01*
X199150000Y-90648000D02*
X199150000Y-91870000D01*
X199150000Y-93550000D02*
X199150000Y-94772000D01*
X199190000Y-90654000D02*
X199190000Y-91870000D01*
X199190000Y-93550000D02*
X199190000Y-94766000D01*
X199230000Y-90660000D02*
X199230000Y-91870000D01*
X199230000Y-93550000D02*
X199230000Y-94760000D01*
X199270000Y-90668000D02*
X199270000Y-91870000D01*
X199270000Y-93550000D02*
X199270000Y-94752000D01*
X199310000Y-90676000D02*
X199310000Y-91870000D01*
X199310000Y-93550000D02*
X199310000Y-94744000D01*
X199350000Y-90685000D02*
X199350000Y-91870000D01*
X199350000Y-93550000D02*
X199350000Y-94735000D01*
X199390000Y-90694000D02*
X199390000Y-91870000D01*
X199390000Y-93550000D02*
X199390000Y-94726000D01*
X199430000Y-90705000D02*
X199430000Y-91870000D01*
X199430000Y-93550000D02*
X199430000Y-94715000D01*
X199470000Y-90716000D02*
X199470000Y-91870000D01*
X199470000Y-93550000D02*
X199470000Y-94704000D01*
X199510000Y-90728000D02*
X199510000Y-91870000D01*
X199510000Y-93550000D02*
X199510000Y-94692000D01*
X199550000Y-90742000D02*
X199550000Y-91870000D01*
X199550000Y-93550000D02*
X199550000Y-94678000D01*
X199591000Y-90756000D02*
X199591000Y-91870000D01*
X199591000Y-93550000D02*
X199591000Y-94664000D01*
X199631000Y-90770000D02*
X199631000Y-91870000D01*
X199631000Y-93550000D02*
X199631000Y-94650000D01*
X199671000Y-90786000D02*
X199671000Y-91870000D01*
X199671000Y-93550000D02*
X199671000Y-94634000D01*
X199711000Y-90803000D02*
X199711000Y-91870000D01*
X199711000Y-93550000D02*
X199711000Y-94617000D01*
X199751000Y-90821000D02*
X199751000Y-91870000D01*
X199751000Y-93550000D02*
X199751000Y-94599000D01*
X199791000Y-90840000D02*
X199791000Y-91870000D01*
X199791000Y-93550000D02*
X199791000Y-94580000D01*
X199831000Y-90859000D02*
X199831000Y-91870000D01*
X199831000Y-93550000D02*
X199831000Y-94561000D01*
X199871000Y-90880000D02*
X199871000Y-91870000D01*
X199871000Y-93550000D02*
X199871000Y-94540000D01*
X199911000Y-90902000D02*
X199911000Y-91870000D01*
X199911000Y-93550000D02*
X199911000Y-94518000D01*
X199951000Y-90925000D02*
X199951000Y-91870000D01*
X199951000Y-93550000D02*
X199951000Y-94495000D01*
X199991000Y-90950000D02*
X199991000Y-91870000D01*
X199991000Y-93550000D02*
X199991000Y-94470000D01*
X200031000Y-90975000D02*
X200031000Y-91870000D01*
X200031000Y-93550000D02*
X200031000Y-94445000D01*
X200071000Y-91002000D02*
X200071000Y-91870000D01*
X200071000Y-93550000D02*
X200071000Y-94418000D01*
X200111000Y-91030000D02*
X200111000Y-91870000D01*
X200111000Y-93550000D02*
X200111000Y-94390000D01*
X200151000Y-91060000D02*
X200151000Y-91870000D01*
X200151000Y-93550000D02*
X200151000Y-94360000D01*
X200191000Y-91091000D02*
X200191000Y-91870000D01*
X200191000Y-93550000D02*
X200191000Y-94329000D01*
X200231000Y-91123000D02*
X200231000Y-91870000D01*
X200231000Y-93550000D02*
X200231000Y-94297000D01*
X200271000Y-91158000D02*
X200271000Y-91870000D01*
X200271000Y-93550000D02*
X200271000Y-94262000D01*
X200311000Y-91194000D02*
X200311000Y-91870000D01*
X200311000Y-93550000D02*
X200311000Y-94226000D01*
X200351000Y-91232000D02*
X200351000Y-91870000D01*
X200351000Y-93550000D02*
X200351000Y-94188000D01*
X200391000Y-91272000D02*
X200391000Y-91870000D01*
X200391000Y-93550000D02*
X200391000Y-94148000D01*
X200431000Y-91314000D02*
X200431000Y-91870000D01*
X200431000Y-93550000D02*
X200431000Y-94106000D01*
X200471000Y-91359000D02*
X200471000Y-94061000D01*
X200511000Y-91406000D02*
X200511000Y-94014000D01*
X200551000Y-91456000D02*
X200551000Y-93964000D01*
X200591000Y-91510000D02*
X200591000Y-93910000D01*
X200631000Y-91568000D02*
X200631000Y-93852000D01*
X200671000Y-91630000D02*
X200671000Y-93790000D01*
X200711000Y-91697000D02*
X200711000Y-93723000D01*
X200751000Y-91770000D02*
X200751000Y-93650000D01*
X200791000Y-91851000D02*
X200791000Y-93569000D01*
X200831000Y-91942000D02*
X200831000Y-93478000D01*
X200871000Y-92046000D02*
X200871000Y-93374000D01*
X200911000Y-92173000D02*
X200911000Y-93247000D01*
X200951000Y-92340000D02*
X200951000Y-93080000D01*
X196600199Y-91515000D02*
X197000199Y-91515000D01*
X196800199Y-91315000D02*
X196800199Y-91715000D01*
%TO.C,C3*%
X200990000Y-87630000D02*
G75*
G03*
X200990000Y-87630000I-2120000J0D01*
G01*
X198870000Y-88470000D02*
X198870000Y-89710000D01*
X198870000Y-85550000D02*
X198870000Y-86790000D01*
X198910000Y-88470000D02*
X198910000Y-89710000D01*
X198910000Y-85550000D02*
X198910000Y-86790000D01*
X198950000Y-88470000D02*
X198950000Y-89709000D01*
X198950000Y-85551000D02*
X198950000Y-86790000D01*
X198990000Y-85553000D02*
X198990000Y-86790000D01*
X198990000Y-88470000D02*
X198990000Y-89707000D01*
X199030000Y-85556000D02*
X199030000Y-86790000D01*
X199030000Y-88470000D02*
X199030000Y-89704000D01*
X199070000Y-85559000D02*
X199070000Y-86790000D01*
X199070000Y-88470000D02*
X199070000Y-89701000D01*
X199110000Y-85563000D02*
X199110000Y-86790000D01*
X199110000Y-88470000D02*
X199110000Y-89697000D01*
X199150000Y-85568000D02*
X199150000Y-86790000D01*
X199150000Y-88470000D02*
X199150000Y-89692000D01*
X199190000Y-85574000D02*
X199190000Y-86790000D01*
X199190000Y-88470000D02*
X199190000Y-89686000D01*
X199230000Y-85580000D02*
X199230000Y-86790000D01*
X199230000Y-88470000D02*
X199230000Y-89680000D01*
X199270000Y-85588000D02*
X199270000Y-86790000D01*
X199270000Y-88470000D02*
X199270000Y-89672000D01*
X199310000Y-85596000D02*
X199310000Y-86790000D01*
X199310000Y-88470000D02*
X199310000Y-89664000D01*
X199350000Y-85605000D02*
X199350000Y-86790000D01*
X199350000Y-88470000D02*
X199350000Y-89655000D01*
X199390000Y-85614000D02*
X199390000Y-86790000D01*
X199390000Y-88470000D02*
X199390000Y-89646000D01*
X199430000Y-85625000D02*
X199430000Y-86790000D01*
X199430000Y-88470000D02*
X199430000Y-89635000D01*
X199470000Y-85636000D02*
X199470000Y-86790000D01*
X199470000Y-88470000D02*
X199470000Y-89624000D01*
X199510000Y-85648000D02*
X199510000Y-86790000D01*
X199510000Y-88470000D02*
X199510000Y-89612000D01*
X199550000Y-85662000D02*
X199550000Y-86790000D01*
X199550000Y-88470000D02*
X199550000Y-89598000D01*
X199591000Y-85676000D02*
X199591000Y-86790000D01*
X199591000Y-88470000D02*
X199591000Y-89584000D01*
X199631000Y-85690000D02*
X199631000Y-86790000D01*
X199631000Y-88470000D02*
X199631000Y-89570000D01*
X199671000Y-85706000D02*
X199671000Y-86790000D01*
X199671000Y-88470000D02*
X199671000Y-89554000D01*
X199711000Y-85723000D02*
X199711000Y-86790000D01*
X199711000Y-88470000D02*
X199711000Y-89537000D01*
X199751000Y-85741000D02*
X199751000Y-86790000D01*
X199751000Y-88470000D02*
X199751000Y-89519000D01*
X199791000Y-85760000D02*
X199791000Y-86790000D01*
X199791000Y-88470000D02*
X199791000Y-89500000D01*
X199831000Y-85779000D02*
X199831000Y-86790000D01*
X199831000Y-88470000D02*
X199831000Y-89481000D01*
X199871000Y-85800000D02*
X199871000Y-86790000D01*
X199871000Y-88470000D02*
X199871000Y-89460000D01*
X199911000Y-85822000D02*
X199911000Y-86790000D01*
X199911000Y-88470000D02*
X199911000Y-89438000D01*
X199951000Y-85845000D02*
X199951000Y-86790000D01*
X199951000Y-88470000D02*
X199951000Y-89415000D01*
X199991000Y-85870000D02*
X199991000Y-86790000D01*
X199991000Y-88470000D02*
X199991000Y-89390000D01*
X200031000Y-85895000D02*
X200031000Y-86790000D01*
X200031000Y-88470000D02*
X200031000Y-89365000D01*
X200071000Y-85922000D02*
X200071000Y-86790000D01*
X200071000Y-88470000D02*
X200071000Y-89338000D01*
X200111000Y-85950000D02*
X200111000Y-86790000D01*
X200111000Y-88470000D02*
X200111000Y-89310000D01*
X200151000Y-85980000D02*
X200151000Y-86790000D01*
X200151000Y-88470000D02*
X200151000Y-89280000D01*
X200191000Y-86011000D02*
X200191000Y-86790000D01*
X200191000Y-88470000D02*
X200191000Y-89249000D01*
X200231000Y-86043000D02*
X200231000Y-86790000D01*
X200231000Y-88470000D02*
X200231000Y-89217000D01*
X200271000Y-86078000D02*
X200271000Y-86790000D01*
X200271000Y-88470000D02*
X200271000Y-89182000D01*
X200311000Y-86114000D02*
X200311000Y-86790000D01*
X200311000Y-88470000D02*
X200311000Y-89146000D01*
X200351000Y-86152000D02*
X200351000Y-86790000D01*
X200351000Y-88470000D02*
X200351000Y-89108000D01*
X200391000Y-86192000D02*
X200391000Y-86790000D01*
X200391000Y-88470000D02*
X200391000Y-89068000D01*
X200431000Y-86234000D02*
X200431000Y-86790000D01*
X200431000Y-88470000D02*
X200431000Y-89026000D01*
X200471000Y-86279000D02*
X200471000Y-88981000D01*
X200511000Y-86326000D02*
X200511000Y-88934000D01*
X200551000Y-86376000D02*
X200551000Y-88884000D01*
X200591000Y-86430000D02*
X200591000Y-88830000D01*
X200631000Y-86488000D02*
X200631000Y-88772000D01*
X200671000Y-86550000D02*
X200671000Y-88710000D01*
X200711000Y-86617000D02*
X200711000Y-88643000D01*
X200751000Y-86690000D02*
X200751000Y-88570000D01*
X200791000Y-86771000D02*
X200791000Y-88489000D01*
X200831000Y-86862000D02*
X200831000Y-88398000D01*
X200871000Y-86966000D02*
X200871000Y-88294000D01*
X200911000Y-87093000D02*
X200911000Y-88167000D01*
X200951000Y-87260000D02*
X200951000Y-88000000D01*
X196600199Y-86435000D02*
X197000199Y-86435000D01*
X196800199Y-86235000D02*
X196800199Y-86635000D01*
%TO.C,J36*%
X111125000Y-128270000D02*
X111125000Y-118110000D01*
X109855000Y-128270000D02*
X117475000Y-128270000D01*
X117475000Y-128270000D02*
X117475000Y-118110000D01*
X117475000Y-118110000D02*
X109855000Y-118110000D01*
X109855000Y-118110000D02*
X109855000Y-128270000D01*
%TO.C,J33*%
X182820000Y-114360000D02*
X182820000Y-113030000D01*
X184150000Y-114360000D02*
X182820000Y-114360000D01*
X185420000Y-114360000D02*
X185420000Y-111700000D01*
X185420000Y-111700000D02*
X190560000Y-111700000D01*
X185420000Y-114360000D02*
X190560000Y-114360000D01*
X190560000Y-114360000D02*
X190560000Y-111700000D01*
%TO.C,J32*%
X162500000Y-114360000D02*
X162500000Y-113030000D01*
X163830000Y-114360000D02*
X162500000Y-114360000D01*
X165100000Y-114360000D02*
X165100000Y-111700000D01*
X165100000Y-111700000D02*
X170240000Y-111700000D01*
X165100000Y-114360000D02*
X170240000Y-114360000D01*
X170240000Y-114360000D02*
X170240000Y-111700000D01*
%TO.C,J31*%
X142180000Y-114360000D02*
X142180000Y-113030000D01*
X143510000Y-114360000D02*
X142180000Y-114360000D01*
X144780000Y-114360000D02*
X144780000Y-111700000D01*
X144780000Y-111700000D02*
X149920000Y-111700000D01*
X144780000Y-114360000D02*
X149920000Y-114360000D01*
X149920000Y-114360000D02*
X149920000Y-111700000D01*
%TO.C,J16*%
X176530000Y-101600000D02*
X176530000Y-109220000D01*
X196850000Y-109220000D02*
X196850000Y-101600000D01*
X196850000Y-107950000D02*
X176530000Y-107950000D01*
X176530000Y-101600000D02*
X196850000Y-101600000D01*
X176530000Y-109220000D02*
X196850000Y-109220000D01*
%TO.C,J15*%
X156210000Y-101600000D02*
X156210000Y-109220000D01*
X176530000Y-109220000D02*
X176530000Y-101600000D01*
X176530000Y-107950000D02*
X156210000Y-107950000D01*
X156210000Y-101600000D02*
X176530000Y-101600000D01*
X156210000Y-109220000D02*
X176530000Y-109220000D01*
%TO.C,J14*%
X135890000Y-101600000D02*
X135890000Y-109220000D01*
X156210000Y-109220000D02*
X156210000Y-101600000D01*
X156210000Y-107950000D02*
X135890000Y-107950000D01*
X135890000Y-101600000D02*
X156210000Y-101600000D01*
X135890000Y-109220000D02*
X156210000Y-109220000D01*
%TO.C,J18*%
X135890000Y-81280000D02*
X135890000Y-88900000D01*
X156210000Y-88900000D02*
X156210000Y-81280000D01*
X156210000Y-87630000D02*
X135890000Y-87630000D01*
X135890000Y-81280000D02*
X156210000Y-81280000D01*
X135890000Y-88900000D02*
X156210000Y-88900000D01*
%TO.C,J25*%
X156210000Y-81280000D02*
X156210000Y-88900000D01*
X176530000Y-88900000D02*
X176530000Y-81280000D01*
X176530000Y-87630000D02*
X156210000Y-87630000D01*
X156210000Y-81280000D02*
X176530000Y-81280000D01*
X156210000Y-88900000D02*
X176530000Y-88900000D01*
%TO.C,J30*%
X111125000Y-115570000D02*
X111125000Y-105410000D01*
X109855000Y-115570000D02*
X117475000Y-115570000D01*
X117475000Y-115570000D02*
X117475000Y-105410000D01*
X117475000Y-105410000D02*
X109855000Y-105410000D01*
X109855000Y-105410000D02*
X109855000Y-115570000D01*
%TO.C,J262*%
X111125000Y-105410000D02*
X111125000Y-95250000D01*
X109855000Y-105410000D02*
X117475000Y-105410000D01*
X117475000Y-105410000D02*
X117475000Y-95250000D01*
X117475000Y-95250000D02*
X109855000Y-95250000D01*
X109855000Y-95250000D02*
X109855000Y-105410000D01*
%TO.C,J261*%
X111125000Y-95250000D02*
X111125000Y-85090000D01*
X109855000Y-95250000D02*
X117475000Y-95250000D01*
X117475000Y-95250000D02*
X117475000Y-85090000D01*
X117475000Y-85090000D02*
X109855000Y-85090000D01*
X109855000Y-85090000D02*
X109855000Y-95250000D01*
%TO.C,J28*%
X111125000Y-85090000D02*
X111125000Y-74930000D01*
X109855000Y-85090000D02*
X117475000Y-85090000D01*
X117475000Y-85090000D02*
X117475000Y-74930000D01*
X117475000Y-74930000D02*
X109855000Y-74930000D01*
X109855000Y-74930000D02*
X109855000Y-85090000D01*
D10*
%TO.C,P10*%
X208026000Y-119380000D02*
G75*
G03*
X208026000Y-119380000I-2286000J0D01*
G01*
%TO.C,P11*%
X122056000Y-71120000D02*
G75*
G03*
X122056000Y-71120000I-2286000J0D01*
G01*
D11*
%TO.C,J27*%
X180280000Y-88960000D02*
X180280000Y-87630000D01*
X181610000Y-88960000D02*
X180280000Y-88960000D01*
X182880000Y-88960000D02*
X182880000Y-86300000D01*
X182880000Y-86300000D02*
X195640000Y-86300000D01*
X182880000Y-88960000D02*
X195640000Y-88960000D01*
X195640000Y-88960000D02*
X195640000Y-86300000D01*
%TO.C,J3*%
X153730000Y-128330000D02*
X152400000Y-128330000D01*
X153730000Y-127000000D02*
X153730000Y-128330000D01*
X153730000Y-125730000D02*
X151070000Y-125730000D01*
X151070000Y-125730000D02*
X151070000Y-120590000D01*
X153730000Y-125730000D02*
X153730000Y-120590000D01*
X153730000Y-120590000D02*
X151070000Y-120590000D01*
%TO.C,J7*%
X156270000Y-128330000D02*
X154940000Y-128330000D01*
X156270000Y-127000000D02*
X156270000Y-128330000D01*
X156270000Y-125730000D02*
X153610000Y-125730000D01*
X153610000Y-125730000D02*
X153610000Y-120590000D01*
X156270000Y-125730000D02*
X156270000Y-120590000D01*
X156270000Y-120590000D02*
X153610000Y-120590000D01*
%TO.C,J11*%
X158810000Y-128330000D02*
X157480000Y-128330000D01*
X158810000Y-127000000D02*
X158810000Y-128330000D01*
X158810000Y-125730000D02*
X156150000Y-125730000D01*
X156150000Y-125730000D02*
X156150000Y-120590000D01*
X158810000Y-125730000D02*
X158810000Y-120590000D01*
X158810000Y-120590000D02*
X156150000Y-120590000D01*
%TO.C,J13*%
X161350000Y-128330000D02*
X160020000Y-128330000D01*
X161350000Y-127000000D02*
X161350000Y-128330000D01*
X161350000Y-125730000D02*
X158690000Y-125730000D01*
X158690000Y-125730000D02*
X158690000Y-120590000D01*
X161350000Y-125730000D02*
X161350000Y-120590000D01*
X161350000Y-120590000D02*
X158690000Y-120590000D01*
%TO.C,J12*%
X166310000Y-125790000D02*
X166310000Y-124460000D01*
X167640000Y-125790000D02*
X166310000Y-125790000D01*
X168910000Y-125790000D02*
X168910000Y-123130000D01*
X168910000Y-123130000D02*
X176590000Y-123130000D01*
X168910000Y-125790000D02*
X176590000Y-125790000D01*
X176590000Y-125790000D02*
X176590000Y-123130000D01*
%TO.C,J6*%
X166310000Y-128330000D02*
X166310000Y-127000000D01*
X167640000Y-128330000D02*
X166310000Y-128330000D01*
X168910000Y-128330000D02*
X168910000Y-125670000D01*
X168910000Y-125670000D02*
X176590000Y-125670000D01*
X168910000Y-128330000D02*
X176590000Y-128330000D01*
X176590000Y-128330000D02*
X176590000Y-125670000D01*
%TO.C,J8*%
X181550000Y-128330000D02*
X181550000Y-127000000D01*
X182880000Y-128330000D02*
X181550000Y-128330000D01*
X181550000Y-125730000D02*
X181550000Y-123130000D01*
X184150000Y-125730000D02*
X181550000Y-125730000D01*
X184150000Y-128330000D02*
X184150000Y-125730000D01*
X181550000Y-123130000D02*
X194370000Y-123130000D01*
X184150000Y-128330000D02*
X194370000Y-128330000D01*
X194370000Y-128330000D02*
X194370000Y-123130000D01*
%TO.C,J9*%
X209610000Y-123130000D02*
X209610000Y-124460000D01*
X208280000Y-123130000D02*
X209610000Y-123130000D01*
X209610000Y-125730000D02*
X209610000Y-128330000D01*
X207010000Y-125730000D02*
X209610000Y-125730000D01*
X207010000Y-123130000D02*
X207010000Y-125730000D01*
X209610000Y-128330000D02*
X199330000Y-128330000D01*
X207010000Y-123130000D02*
X199330000Y-123130000D01*
X199330000Y-123130000D02*
X199330000Y-128330000D01*
%TO.C,J39*%
X138490000Y-77530000D02*
X137160000Y-77530000D01*
X138490000Y-76200000D02*
X138490000Y-77530000D01*
X138490000Y-74930000D02*
X135830000Y-74930000D01*
X135830000Y-74930000D02*
X135830000Y-72330000D01*
X138490000Y-74930000D02*
X138490000Y-72330000D01*
X138490000Y-72330000D02*
X135830000Y-72330000D01*
%TO.C,J19*%
X179010000Y-74870000D02*
X180340000Y-74870000D01*
X179010000Y-76200000D02*
X179010000Y-74870000D01*
X179010000Y-77470000D02*
X181670000Y-77470000D01*
X181670000Y-77470000D02*
X181670000Y-82610000D01*
X179010000Y-77470000D02*
X179010000Y-82610000D01*
X179010000Y-82610000D02*
X181670000Y-82610000D01*
%TO.C,J20*%
X181550000Y-74870000D02*
X182880000Y-74870000D01*
X181550000Y-76200000D02*
X181550000Y-74870000D01*
X181550000Y-77470000D02*
X184210000Y-77470000D01*
X184210000Y-77470000D02*
X184210000Y-82610000D01*
X181550000Y-77470000D02*
X181550000Y-82610000D01*
X181550000Y-82610000D02*
X184210000Y-82610000D01*
%TO.C,J21*%
X184090000Y-74870000D02*
X185420000Y-74870000D01*
X184090000Y-76200000D02*
X184090000Y-74870000D01*
X184090000Y-77470000D02*
X186750000Y-77470000D01*
X186750000Y-77470000D02*
X186750000Y-82610000D01*
X184090000Y-77470000D02*
X184090000Y-82610000D01*
X184090000Y-82610000D02*
X186750000Y-82610000D01*
%TO.C,J22*%
X186630000Y-74870000D02*
X187960000Y-74870000D01*
X186630000Y-76200000D02*
X186630000Y-74870000D01*
X186630000Y-77470000D02*
X189290000Y-77470000D01*
X189290000Y-77470000D02*
X189290000Y-82610000D01*
X186630000Y-77470000D02*
X186630000Y-82610000D01*
X186630000Y-82610000D02*
X189290000Y-82610000D01*
%TO.C,J23*%
X189170000Y-74870000D02*
X190500000Y-74870000D01*
X189170000Y-76200000D02*
X189170000Y-74870000D01*
X189170000Y-77470000D02*
X191830000Y-77470000D01*
X191830000Y-77470000D02*
X191830000Y-82610000D01*
X189170000Y-77470000D02*
X189170000Y-82610000D01*
X189170000Y-82610000D02*
X191830000Y-82610000D01*
%TO.C,J24*%
X191710000Y-74870000D02*
X193040000Y-74870000D01*
X191710000Y-76200000D02*
X191710000Y-74870000D01*
X191710000Y-77470000D02*
X194370000Y-77470000D01*
X194370000Y-77470000D02*
X194370000Y-82610000D01*
X191710000Y-77470000D02*
X191710000Y-82610000D01*
X191710000Y-82610000D02*
X194370000Y-82610000D01*
%TO.C,J29*%
X197418000Y-82610000D02*
X196088000Y-82610000D01*
X197418000Y-81280000D02*
X197418000Y-82610000D01*
X197418000Y-80010000D02*
X194758000Y-80010000D01*
X194758000Y-80010000D02*
X194758000Y-72330000D01*
X197418000Y-80010000D02*
X197418000Y-72330000D01*
X197418000Y-72330000D02*
X194758000Y-72330000D01*
%TO.C,J2*%
X209610000Y-115630000D02*
X208280000Y-115630000D01*
X209610000Y-114300000D02*
X209610000Y-115630000D01*
X209610000Y-113030000D02*
X206950000Y-113030000D01*
X206950000Y-113030000D02*
X206950000Y-69790000D01*
X209610000Y-113030000D02*
X209610000Y-69790000D01*
X209610000Y-69790000D02*
X206950000Y-69790000D01*
%TO.C,J35*%
X158690000Y-77530000D02*
X158690000Y-76200000D01*
X160020000Y-77530000D02*
X158690000Y-77530000D01*
X161290000Y-77530000D02*
X161290000Y-74870000D01*
X161290000Y-74870000D02*
X166430000Y-74870000D01*
X161290000Y-77530000D02*
X166430000Y-77530000D01*
X166430000Y-77530000D02*
X166430000Y-74870000D01*
%TO.C,J34*%
X148530000Y-77530000D02*
X148530000Y-76200000D01*
X149860000Y-77530000D02*
X148530000Y-77530000D01*
X151130000Y-77530000D02*
X151130000Y-74870000D01*
X151130000Y-74870000D02*
X156270000Y-74870000D01*
X151130000Y-77530000D02*
X156270000Y-77530000D01*
X156270000Y-77530000D02*
X156270000Y-74870000D01*
%TO.C,J5*%
X138370000Y-77530000D02*
X138370000Y-76200000D01*
X139700000Y-77530000D02*
X138370000Y-77530000D01*
X140970000Y-77530000D02*
X140970000Y-74870000D01*
X140970000Y-74870000D02*
X146110000Y-74870000D01*
X140970000Y-77530000D02*
X146110000Y-77530000D01*
X146110000Y-77530000D02*
X146110000Y-74870000D01*
D10*
%TO.C,U1*%
X134810000Y-95710000D02*
X129110000Y-95710000D01*
X134810000Y-77010000D02*
X134810000Y-95710000D01*
X129110000Y-77010000D02*
X134810000Y-77010000D01*
X129110000Y-95710000D02*
X129110000Y-77010000D01*
X134810000Y-81360000D02*
X132310000Y-80020000D01*
X134810000Y-91360000D02*
X132310000Y-92700000D01*
X130510000Y-87630000D02*
X130510000Y-82550000D01*
X130510000Y-92710000D02*
X130510000Y-90170000D01*
%TO.C,U2*%
X124160000Y-92710000D02*
X124160000Y-90170000D01*
X124160000Y-87630000D02*
X124160000Y-82550000D01*
X128460000Y-91360000D02*
X125960000Y-92700000D01*
X128460000Y-81360000D02*
X125960000Y-80020000D01*
X122760000Y-95710000D02*
X122760000Y-77010000D01*
X122760000Y-77010000D02*
X128460000Y-77010000D01*
X128460000Y-77010000D02*
X128460000Y-95710000D01*
X128460000Y-95710000D02*
X122760000Y-95710000D01*
%TO.C,U3*%
X134810000Y-115395000D02*
X129110000Y-115395000D01*
X134810000Y-96695000D02*
X134810000Y-115395000D01*
X129110000Y-96695000D02*
X134810000Y-96695000D01*
X129110000Y-115395000D02*
X129110000Y-96695000D01*
X134810000Y-101045000D02*
X132310000Y-99705000D01*
X134810000Y-111045000D02*
X132310000Y-112385000D01*
X130510000Y-107315000D02*
X130510000Y-102235000D01*
X130510000Y-112395000D02*
X130510000Y-109855000D01*
%TO.C,U4*%
X124160000Y-112395000D02*
X124160000Y-109855000D01*
X124160000Y-107315000D02*
X124160000Y-102235000D01*
X128460000Y-111045000D02*
X125960000Y-112385000D01*
X128460000Y-101045000D02*
X125960000Y-99705000D01*
X122760000Y-115395000D02*
X122760000Y-96695000D01*
X122760000Y-96695000D02*
X128460000Y-96695000D01*
X128460000Y-96695000D02*
X128460000Y-115395000D01*
X128460000Y-115395000D02*
X122760000Y-115395000D01*
%TO.C,J40*%
X197818476Y-63968380D02*
X197818476Y-64682666D01*
X197770857Y-64825523D01*
X197675619Y-64920761D01*
X197532761Y-64968380D01*
X197437523Y-64968380D01*
X198723238Y-64301714D02*
X198723238Y-64968380D01*
X198485142Y-63920761D02*
X198247047Y-64635047D01*
X198866095Y-64635047D01*
X199437523Y-63968380D02*
X199532761Y-63968380D01*
X199628000Y-64016000D01*
X199675619Y-64063619D01*
X199723238Y-64158857D01*
X199770857Y-64349333D01*
X199770857Y-64587428D01*
X199723238Y-64777904D01*
X199675619Y-64873142D01*
X199628000Y-64920761D01*
X199532761Y-64968380D01*
X199437523Y-64968380D01*
X199342285Y-64920761D01*
X199294666Y-64873142D01*
X199247047Y-64777904D01*
X199199428Y-64587428D01*
X199199428Y-64349333D01*
X199247047Y-64158857D01*
X199294666Y-64063619D01*
X199342285Y-64016000D01*
X199437523Y-63968380D01*
%TO.C,R4*%
X119213333Y-107640380D02*
X118880000Y-107164190D01*
X118641904Y-107640380D02*
X118641904Y-106640380D01*
X119022857Y-106640380D01*
X119118095Y-106688000D01*
X119165714Y-106735619D01*
X119213333Y-106830857D01*
X119213333Y-106973714D01*
X119165714Y-107068952D01*
X119118095Y-107116571D01*
X119022857Y-107164190D01*
X118641904Y-107164190D01*
X120070476Y-106973714D02*
X120070476Y-107640380D01*
X119832380Y-106592761D02*
X119594285Y-107307047D01*
X120213333Y-107307047D01*
%TO.C,R6*%
X118705333Y-86812380D02*
X118372000Y-86336190D01*
X118133904Y-86812380D02*
X118133904Y-85812380D01*
X118514857Y-85812380D01*
X118610095Y-85860000D01*
X118657714Y-85907619D01*
X118705333Y-86002857D01*
X118705333Y-86145714D01*
X118657714Y-86240952D01*
X118610095Y-86288571D01*
X118514857Y-86336190D01*
X118133904Y-86336190D01*
X119562476Y-85812380D02*
X119372000Y-85812380D01*
X119276761Y-85860000D01*
X119229142Y-85907619D01*
X119133904Y-86050476D01*
X119086285Y-86240952D01*
X119086285Y-86621904D01*
X119133904Y-86717142D01*
X119181523Y-86764761D01*
X119276761Y-86812380D01*
X119467238Y-86812380D01*
X119562476Y-86764761D01*
X119610095Y-86717142D01*
X119657714Y-86621904D01*
X119657714Y-86383809D01*
X119610095Y-86288571D01*
X119562476Y-86240952D01*
X119467238Y-86193333D01*
X119276761Y-86193333D01*
X119181523Y-86240952D01*
X119133904Y-86288571D01*
X119086285Y-86383809D01*
%TO.C,J43*%
X161242476Y-59904380D02*
X161242476Y-60618666D01*
X161194857Y-60761523D01*
X161099619Y-60856761D01*
X160956761Y-60904380D01*
X160861523Y-60904380D01*
X162147238Y-60237714D02*
X162147238Y-60904380D01*
X161909142Y-59856761D02*
X161671047Y-60571047D01*
X162290095Y-60571047D01*
X162575809Y-59904380D02*
X163194857Y-59904380D01*
X162861523Y-60285333D01*
X163004380Y-60285333D01*
X163099619Y-60332952D01*
X163147238Y-60380571D01*
X163194857Y-60475809D01*
X163194857Y-60713904D01*
X163147238Y-60809142D01*
X163099619Y-60856761D01*
X163004380Y-60904380D01*
X162718666Y-60904380D01*
X162623428Y-60856761D01*
X162575809Y-60809142D01*
%TO.C,J41*%
X125682476Y-59904380D02*
X125682476Y-60618666D01*
X125634857Y-60761523D01*
X125539619Y-60856761D01*
X125396761Y-60904380D01*
X125301523Y-60904380D01*
X126587238Y-60237714D02*
X126587238Y-60904380D01*
X126349142Y-59856761D02*
X126111047Y-60571047D01*
X126730095Y-60571047D01*
X127634857Y-60904380D02*
X127063428Y-60904380D01*
X127349142Y-60904380D02*
X127349142Y-59904380D01*
X127253904Y-60047238D01*
X127158666Y-60142476D01*
X127063428Y-60190095D01*
%TO.C,J42*%
X141938476Y-59904380D02*
X141938476Y-60618666D01*
X141890857Y-60761523D01*
X141795619Y-60856761D01*
X141652761Y-60904380D01*
X141557523Y-60904380D01*
X142843238Y-60237714D02*
X142843238Y-60904380D01*
X142605142Y-59856761D02*
X142367047Y-60571047D01*
X142986095Y-60571047D01*
X143319428Y-59999619D02*
X143367047Y-59952000D01*
X143462285Y-59904380D01*
X143700380Y-59904380D01*
X143795619Y-59952000D01*
X143843238Y-59999619D01*
X143890857Y-60094857D01*
X143890857Y-60190095D01*
X143843238Y-60332952D01*
X143271809Y-60904380D01*
X143890857Y-60904380D01*
%TO.C,J47*%
X142446476Y-64476380D02*
X142446476Y-65190666D01*
X142398857Y-65333523D01*
X142303619Y-65428761D01*
X142160761Y-65476380D01*
X142065523Y-65476380D01*
X143351238Y-64809714D02*
X143351238Y-65476380D01*
X143113142Y-64428761D02*
X142875047Y-65143047D01*
X143494095Y-65143047D01*
X143779809Y-64476380D02*
X144446476Y-64476380D01*
X144017904Y-65476380D01*
%TO.C,F1*%
X121586666Y-122864571D02*
X121253333Y-122864571D01*
X121253333Y-123388380D02*
X121253333Y-122388380D01*
X121729523Y-122388380D01*
X122634285Y-123388380D02*
X122062857Y-123388380D01*
X122348571Y-123388380D02*
X122348571Y-122388380D01*
X122253333Y-122531238D01*
X122158095Y-122626476D01*
X122062857Y-122674095D01*
%TO.C,D6*%
X116101904Y-117800380D02*
X116101904Y-116800380D01*
X116340000Y-116800380D01*
X116482857Y-116848000D01*
X116578095Y-116943238D01*
X116625714Y-117038476D01*
X116673333Y-117228952D01*
X116673333Y-117371809D01*
X116625714Y-117562285D01*
X116578095Y-117657523D01*
X116482857Y-117752761D01*
X116340000Y-117800380D01*
X116101904Y-117800380D01*
X117530476Y-116800380D02*
X117340000Y-116800380D01*
X117244761Y-116848000D01*
X117197142Y-116895619D01*
X117101904Y-117038476D01*
X117054285Y-117228952D01*
X117054285Y-117609904D01*
X117101904Y-117705142D01*
X117149523Y-117752761D01*
X117244761Y-117800380D01*
X117435238Y-117800380D01*
X117530476Y-117752761D01*
X117578095Y-117705142D01*
X117625714Y-117609904D01*
X117625714Y-117371809D01*
X117578095Y-117276571D01*
X117530476Y-117228952D01*
X117435238Y-117181333D01*
X117244761Y-117181333D01*
X117149523Y-117228952D01*
X117101904Y-117276571D01*
X117054285Y-117371809D01*
X118022666Y-120126095D02*
X118022666Y-119649904D01*
X118308380Y-120221333D02*
X117308380Y-119888000D01*
X118308380Y-119554666D01*
%TO.C,D5*%
X133881904Y-118308380D02*
X133881904Y-117308380D01*
X134120000Y-117308380D01*
X134262857Y-117356000D01*
X134358095Y-117451238D01*
X134405714Y-117546476D01*
X134453333Y-117736952D01*
X134453333Y-117879809D01*
X134405714Y-118070285D01*
X134358095Y-118165523D01*
X134262857Y-118260761D01*
X134120000Y-118308380D01*
X133881904Y-118308380D01*
X135358095Y-117308380D02*
X134881904Y-117308380D01*
X134834285Y-117784571D01*
X134881904Y-117736952D01*
X134977142Y-117689333D01*
X135215238Y-117689333D01*
X135310476Y-117736952D01*
X135358095Y-117784571D01*
X135405714Y-117879809D01*
X135405714Y-118117904D01*
X135358095Y-118213142D01*
X135310476Y-118260761D01*
X135215238Y-118308380D01*
X134977142Y-118308380D01*
X134881904Y-118260761D01*
X134834285Y-118213142D01*
X131738666Y-122666095D02*
X131738666Y-122189904D01*
X132024380Y-122761333D02*
X131024380Y-122428000D01*
X132024380Y-122094666D01*
%TO.C,J4*%
X130730666Y-127976380D02*
X130730666Y-128690666D01*
X130683047Y-128833523D01*
X130587809Y-128928761D01*
X130444952Y-128976380D01*
X130349714Y-128976380D01*
X131635428Y-128309714D02*
X131635428Y-128976380D01*
X131397333Y-127928761D02*
X131159238Y-128643047D01*
X131778285Y-128643047D01*
%TO.C,J10*%
X123142476Y-127976380D02*
X123142476Y-128690666D01*
X123094857Y-128833523D01*
X122999619Y-128928761D01*
X122856761Y-128976380D01*
X122761523Y-128976380D01*
X124142476Y-128976380D02*
X123571047Y-128976380D01*
X123856761Y-128976380D02*
X123856761Y-127976380D01*
X123761523Y-128119238D01*
X123666285Y-128214476D01*
X123571047Y-128262095D01*
X124761523Y-127976380D02*
X124856761Y-127976380D01*
X124952000Y-128024000D01*
X124999619Y-128071619D01*
X125047238Y-128166857D01*
X125094857Y-128357333D01*
X125094857Y-128595428D01*
X125047238Y-128785904D01*
X124999619Y-128881142D01*
X124952000Y-128928761D01*
X124856761Y-128976380D01*
X124761523Y-128976380D01*
X124666285Y-128928761D01*
X124618666Y-128881142D01*
X124571047Y-128785904D01*
X124523428Y-128595428D01*
X124523428Y-128357333D01*
X124571047Y-128166857D01*
X124618666Y-128071619D01*
X124666285Y-128024000D01*
X124761523Y-127976380D01*
%TO.C,C10*%
X131929142Y-126118857D02*
X131976761Y-126166476D01*
X132024380Y-126309333D01*
X132024380Y-126404571D01*
X131976761Y-126547428D01*
X131881523Y-126642666D01*
X131786285Y-126690285D01*
X131595809Y-126737904D01*
X131452952Y-126737904D01*
X131262476Y-126690285D01*
X131167238Y-126642666D01*
X131072000Y-126547428D01*
X131024380Y-126404571D01*
X131024380Y-126309333D01*
X131072000Y-126166476D01*
X131119619Y-126118857D01*
X132024380Y-125166476D02*
X132024380Y-125737904D01*
X132024380Y-125452190D02*
X131024380Y-125452190D01*
X131167238Y-125547428D01*
X131262476Y-125642666D01*
X131310095Y-125737904D01*
X131024380Y-124547428D02*
X131024380Y-124452190D01*
X131072000Y-124356952D01*
X131119619Y-124309333D01*
X131214857Y-124261714D01*
X131405333Y-124214095D01*
X131643428Y-124214095D01*
X131833904Y-124261714D01*
X131929142Y-124309333D01*
X131976761Y-124356952D01*
X132024380Y-124452190D01*
X132024380Y-124547428D01*
X131976761Y-124642666D01*
X131929142Y-124690285D01*
X131833904Y-124737904D01*
X131643428Y-124785523D01*
X131405333Y-124785523D01*
X131214857Y-124737904D01*
X131119619Y-124690285D01*
X131072000Y-124642666D01*
X131024380Y-124547428D01*
%TO.C,C9*%
X128357333Y-122277142D02*
X128309714Y-122324761D01*
X128166857Y-122372380D01*
X128071619Y-122372380D01*
X127928761Y-122324761D01*
X127833523Y-122229523D01*
X127785904Y-122134285D01*
X127738285Y-121943809D01*
X127738285Y-121800952D01*
X127785904Y-121610476D01*
X127833523Y-121515238D01*
X127928761Y-121420000D01*
X128071619Y-121372380D01*
X128166857Y-121372380D01*
X128309714Y-121420000D01*
X128357333Y-121467619D01*
X128833523Y-122372380D02*
X129024000Y-122372380D01*
X129119238Y-122324761D01*
X129166857Y-122277142D01*
X129262095Y-122134285D01*
X129309714Y-121943809D01*
X129309714Y-121562857D01*
X129262095Y-121467619D01*
X129214476Y-121420000D01*
X129119238Y-121372380D01*
X128928761Y-121372380D01*
X128833523Y-121420000D01*
X128785904Y-121467619D01*
X128738285Y-121562857D01*
X128738285Y-121800952D01*
X128785904Y-121896190D01*
X128833523Y-121943809D01*
X128928761Y-121991428D01*
X129119238Y-121991428D01*
X129214476Y-121943809D01*
X129262095Y-121896190D01*
X129309714Y-121800952D01*
%TO.C,U5*%
X131826095Y-115784380D02*
X131826095Y-116593904D01*
X131873714Y-116689142D01*
X131921333Y-116736761D01*
X132016571Y-116784380D01*
X132207047Y-116784380D01*
X132302285Y-116736761D01*
X132349904Y-116689142D01*
X132397523Y-116593904D01*
X132397523Y-115784380D01*
X133349904Y-115784380D02*
X132873714Y-115784380D01*
X132826095Y-116260571D01*
X132873714Y-116212952D01*
X132968952Y-116165333D01*
X133207047Y-116165333D01*
X133302285Y-116212952D01*
X133349904Y-116260571D01*
X133397523Y-116355809D01*
X133397523Y-116593904D01*
X133349904Y-116689142D01*
X133302285Y-116736761D01*
X133207047Y-116784380D01*
X132968952Y-116784380D01*
X132873714Y-116736761D01*
X132826095Y-116689142D01*
%TO.C,C5*%
X134961333Y-125833142D02*
X134913714Y-125880761D01*
X134770857Y-125928380D01*
X134675619Y-125928380D01*
X134532761Y-125880761D01*
X134437523Y-125785523D01*
X134389904Y-125690285D01*
X134342285Y-125499809D01*
X134342285Y-125356952D01*
X134389904Y-125166476D01*
X134437523Y-125071238D01*
X134532761Y-124976000D01*
X134675619Y-124928380D01*
X134770857Y-124928380D01*
X134913714Y-124976000D01*
X134961333Y-125023619D01*
X135866095Y-124928380D02*
X135389904Y-124928380D01*
X135342285Y-125404571D01*
X135389904Y-125356952D01*
X135485142Y-125309333D01*
X135723238Y-125309333D01*
X135818476Y-125356952D01*
X135866095Y-125404571D01*
X135913714Y-125499809D01*
X135913714Y-125737904D01*
X135866095Y-125833142D01*
X135818476Y-125880761D01*
X135723238Y-125928380D01*
X135485142Y-125928380D01*
X135389904Y-125880761D01*
X135342285Y-125833142D01*
%TO.C,C7*%
X177125333Y-81129142D02*
X177077714Y-81176761D01*
X176934857Y-81224380D01*
X176839619Y-81224380D01*
X176696761Y-81176761D01*
X176601523Y-81081523D01*
X176553904Y-80986285D01*
X176506285Y-80795809D01*
X176506285Y-80652952D01*
X176553904Y-80462476D01*
X176601523Y-80367238D01*
X176696761Y-80272000D01*
X176839619Y-80224380D01*
X176934857Y-80224380D01*
X177077714Y-80272000D01*
X177125333Y-80319619D01*
X177458666Y-80224380D02*
X178125333Y-80224380D01*
X177696761Y-81224380D01*
%TO.C,J37*%
X167302380Y-77009523D02*
X168016666Y-77009523D01*
X168159523Y-77057142D01*
X168254761Y-77152380D01*
X168302380Y-77295238D01*
X168302380Y-77390476D01*
X167302380Y-76628571D02*
X167302380Y-76009523D01*
X167683333Y-76342857D01*
X167683333Y-76200000D01*
X167730952Y-76104761D01*
X167778571Y-76057142D01*
X167873809Y-76009523D01*
X168111904Y-76009523D01*
X168207142Y-76057142D01*
X168254761Y-76104761D01*
X168302380Y-76200000D01*
X168302380Y-76485714D01*
X168254761Y-76580952D01*
X168207142Y-76628571D01*
X167302380Y-75676190D02*
X167302380Y-75009523D01*
X168302380Y-75438095D01*
%TO.C,R8*%
X201001333Y-80208380D02*
X200668000Y-79732190D01*
X200429904Y-80208380D02*
X200429904Y-79208380D01*
X200810857Y-79208380D01*
X200906095Y-79256000D01*
X200953714Y-79303619D01*
X201001333Y-79398857D01*
X201001333Y-79541714D01*
X200953714Y-79636952D01*
X200906095Y-79684571D01*
X200810857Y-79732190D01*
X200429904Y-79732190D01*
X201572761Y-79636952D02*
X201477523Y-79589333D01*
X201429904Y-79541714D01*
X201382285Y-79446476D01*
X201382285Y-79398857D01*
X201429904Y-79303619D01*
X201477523Y-79256000D01*
X201572761Y-79208380D01*
X201763238Y-79208380D01*
X201858476Y-79256000D01*
X201906095Y-79303619D01*
X201953714Y-79398857D01*
X201953714Y-79446476D01*
X201906095Y-79541714D01*
X201858476Y-79589333D01*
X201763238Y-79636952D01*
X201572761Y-79636952D01*
X201477523Y-79684571D01*
X201429904Y-79732190D01*
X201382285Y-79827428D01*
X201382285Y-80017904D01*
X201429904Y-80113142D01*
X201477523Y-80160761D01*
X201572761Y-80208380D01*
X201763238Y-80208380D01*
X201858476Y-80160761D01*
X201906095Y-80113142D01*
X201953714Y-80017904D01*
X201953714Y-79827428D01*
X201906095Y-79732190D01*
X201858476Y-79684571D01*
X201763238Y-79636952D01*
%TO.C,R9*%
X201001333Y-75636380D02*
X200668000Y-75160190D01*
X200429904Y-75636380D02*
X200429904Y-74636380D01*
X200810857Y-74636380D01*
X200906095Y-74684000D01*
X200953714Y-74731619D01*
X201001333Y-74826857D01*
X201001333Y-74969714D01*
X200953714Y-75064952D01*
X200906095Y-75112571D01*
X200810857Y-75160190D01*
X200429904Y-75160190D01*
X201477523Y-75636380D02*
X201668000Y-75636380D01*
X201763238Y-75588761D01*
X201810857Y-75541142D01*
X201906095Y-75398285D01*
X201953714Y-75207809D01*
X201953714Y-74826857D01*
X201906095Y-74731619D01*
X201858476Y-74684000D01*
X201763238Y-74636380D01*
X201572761Y-74636380D01*
X201477523Y-74684000D01*
X201429904Y-74731619D01*
X201382285Y-74826857D01*
X201382285Y-75064952D01*
X201429904Y-75160190D01*
X201477523Y-75207809D01*
X201572761Y-75255428D01*
X201763238Y-75255428D01*
X201858476Y-75207809D01*
X201906095Y-75160190D01*
X201953714Y-75064952D01*
%TO.C,R10*%
X165981142Y-79192380D02*
X165647809Y-78716190D01*
X165409714Y-79192380D02*
X165409714Y-78192380D01*
X165790666Y-78192380D01*
X165885904Y-78240000D01*
X165933523Y-78287619D01*
X165981142Y-78382857D01*
X165981142Y-78525714D01*
X165933523Y-78620952D01*
X165885904Y-78668571D01*
X165790666Y-78716190D01*
X165409714Y-78716190D01*
X166933523Y-79192380D02*
X166362095Y-79192380D01*
X166647809Y-79192380D02*
X166647809Y-78192380D01*
X166552571Y-78335238D01*
X166457333Y-78430476D01*
X166362095Y-78478095D01*
X167552571Y-78192380D02*
X167647809Y-78192380D01*
X167743047Y-78240000D01*
X167790666Y-78287619D01*
X167838285Y-78382857D01*
X167885904Y-78573333D01*
X167885904Y-78811428D01*
X167838285Y-79001904D01*
X167790666Y-79097142D01*
X167743047Y-79144761D01*
X167647809Y-79192380D01*
X167552571Y-79192380D01*
X167457333Y-79144761D01*
X167409714Y-79097142D01*
X167362095Y-79001904D01*
X167314476Y-78811428D01*
X167314476Y-78573333D01*
X167362095Y-78382857D01*
X167409714Y-78287619D01*
X167457333Y-78240000D01*
X167552571Y-78192380D01*
%TO.C,C6*%
X198477142Y-70270666D02*
X198524761Y-70318285D01*
X198572380Y-70461142D01*
X198572380Y-70556380D01*
X198524761Y-70699238D01*
X198429523Y-70794476D01*
X198334285Y-70842095D01*
X198143809Y-70889714D01*
X198000952Y-70889714D01*
X197810476Y-70842095D01*
X197715238Y-70794476D01*
X197620000Y-70699238D01*
X197572380Y-70556380D01*
X197572380Y-70461142D01*
X197620000Y-70318285D01*
X197667619Y-70270666D01*
X197572380Y-69413523D02*
X197572380Y-69604000D01*
X197620000Y-69699238D01*
X197667619Y-69746857D01*
X197810476Y-69842095D01*
X198000952Y-69889714D01*
X198381904Y-69889714D01*
X198477142Y-69842095D01*
X198524761Y-69794476D01*
X198572380Y-69699238D01*
X198572380Y-69508761D01*
X198524761Y-69413523D01*
X198477142Y-69365904D01*
X198381904Y-69318285D01*
X198143809Y-69318285D01*
X198048571Y-69365904D01*
X198000952Y-69413523D01*
X197953333Y-69508761D01*
X197953333Y-69699238D01*
X198000952Y-69794476D01*
X198048571Y-69842095D01*
X198143809Y-69889714D01*
%TO.C,J46*%
X203025476Y-59777380D02*
X203025476Y-60491666D01*
X202977857Y-60634523D01*
X202882619Y-60729761D01*
X202739761Y-60777380D01*
X202644523Y-60777380D01*
X203930238Y-60110714D02*
X203930238Y-60777380D01*
X203692142Y-59729761D02*
X203454047Y-60444047D01*
X204073095Y-60444047D01*
X204882619Y-59777380D02*
X204692142Y-59777380D01*
X204596904Y-59825000D01*
X204549285Y-59872619D01*
X204454047Y-60015476D01*
X204406428Y-60205952D01*
X204406428Y-60586904D01*
X204454047Y-60682142D01*
X204501666Y-60729761D01*
X204596904Y-60777380D01*
X204787380Y-60777380D01*
X204882619Y-60729761D01*
X204930238Y-60682142D01*
X204977857Y-60586904D01*
X204977857Y-60348809D01*
X204930238Y-60253571D01*
X204882619Y-60205952D01*
X204787380Y-60158333D01*
X204596904Y-60158333D01*
X204501666Y-60205952D01*
X204454047Y-60253571D01*
X204406428Y-60348809D01*
%TO.C,J45*%
X190198476Y-59904380D02*
X190198476Y-60618666D01*
X190150857Y-60761523D01*
X190055619Y-60856761D01*
X189912761Y-60904380D01*
X189817523Y-60904380D01*
X191103238Y-60237714D02*
X191103238Y-60904380D01*
X190865142Y-59856761D02*
X190627047Y-60571047D01*
X191246095Y-60571047D01*
X192103238Y-59904380D02*
X191627047Y-59904380D01*
X191579428Y-60380571D01*
X191627047Y-60332952D01*
X191722285Y-60285333D01*
X191960380Y-60285333D01*
X192055619Y-60332952D01*
X192103238Y-60380571D01*
X192150857Y-60475809D01*
X192150857Y-60713904D01*
X192103238Y-60809142D01*
X192055619Y-60856761D01*
X191960380Y-60904380D01*
X191722285Y-60904380D01*
X191627047Y-60856761D01*
X191579428Y-60809142D01*
%TO.C,J44*%
X172926476Y-59904380D02*
X172926476Y-60618666D01*
X172878857Y-60761523D01*
X172783619Y-60856761D01*
X172640761Y-60904380D01*
X172545523Y-60904380D01*
X173831238Y-60237714D02*
X173831238Y-60904380D01*
X173593142Y-59856761D02*
X173355047Y-60571047D01*
X173974095Y-60571047D01*
X174783619Y-60237714D02*
X174783619Y-60904380D01*
X174545523Y-59856761D02*
X174307428Y-60571047D01*
X174926476Y-60571047D01*
%TO.C,J38*%
X138092380Y-97329523D02*
X138806666Y-97329523D01*
X138949523Y-97377142D01*
X139044761Y-97472380D01*
X139092380Y-97615238D01*
X139092380Y-97710476D01*
X138092380Y-96948571D02*
X138092380Y-96329523D01*
X138473333Y-96662857D01*
X138473333Y-96520000D01*
X138520952Y-96424761D01*
X138568571Y-96377142D01*
X138663809Y-96329523D01*
X138901904Y-96329523D01*
X138997142Y-96377142D01*
X139044761Y-96424761D01*
X139092380Y-96520000D01*
X139092380Y-96805714D01*
X139044761Y-96900952D01*
X138997142Y-96948571D01*
X138520952Y-95758095D02*
X138473333Y-95853333D01*
X138425714Y-95900952D01*
X138330476Y-95948571D01*
X138282857Y-95948571D01*
X138187619Y-95900952D01*
X138140000Y-95853333D01*
X138092380Y-95758095D01*
X138092380Y-95567619D01*
X138140000Y-95472380D01*
X138187619Y-95424761D01*
X138282857Y-95377142D01*
X138330476Y-95377142D01*
X138425714Y-95424761D01*
X138473333Y-95472380D01*
X138520952Y-95567619D01*
X138520952Y-95758095D01*
X138568571Y-95853333D01*
X138616190Y-95900952D01*
X138711428Y-95948571D01*
X138901904Y-95948571D01*
X138997142Y-95900952D01*
X139044761Y-95853333D01*
X139092380Y-95758095D01*
X139092380Y-95567619D01*
X139044761Y-95472380D01*
X138997142Y-95424761D01*
X138901904Y-95377142D01*
X138711428Y-95377142D01*
X138616190Y-95424761D01*
X138568571Y-95472380D01*
X138520952Y-95567619D01*
%TO.C,RESET*%
X150820380Y-126928380D02*
X150344190Y-127261714D01*
X150820380Y-127499809D02*
X149820380Y-127499809D01*
X149820380Y-127118857D01*
X149868000Y-127023619D01*
X149915619Y-126976000D01*
X150010857Y-126928380D01*
X150153714Y-126928380D01*
X150248952Y-126976000D01*
X150296571Y-127023619D01*
X150344190Y-127118857D01*
X150344190Y-127499809D01*
X150296571Y-126499809D02*
X150296571Y-126166476D01*
X150820380Y-126023619D02*
X150820380Y-126499809D01*
X149820380Y-126499809D01*
X149820380Y-126023619D01*
X150772761Y-125642666D02*
X150820380Y-125499809D01*
X150820380Y-125261714D01*
X150772761Y-125166476D01*
X150725142Y-125118857D01*
X150629904Y-125071238D01*
X150534666Y-125071238D01*
X150439428Y-125118857D01*
X150391809Y-125166476D01*
X150344190Y-125261714D01*
X150296571Y-125452190D01*
X150248952Y-125547428D01*
X150201333Y-125595047D01*
X150106095Y-125642666D01*
X150010857Y-125642666D01*
X149915619Y-125595047D01*
X149868000Y-125547428D01*
X149820380Y-125452190D01*
X149820380Y-125214095D01*
X149868000Y-125071238D01*
X150296571Y-124642666D02*
X150296571Y-124309333D01*
X150820380Y-124166476D02*
X150820380Y-124642666D01*
X149820380Y-124642666D01*
X149820380Y-124166476D01*
X149820380Y-123880761D02*
X149820380Y-123309333D01*
X150820380Y-123595047D02*
X149820380Y-123595047D01*
%TO.C,C4*%
X139533333Y-121769142D02*
X139485714Y-121816761D01*
X139342857Y-121864380D01*
X139247619Y-121864380D01*
X139104761Y-121816761D01*
X139009523Y-121721523D01*
X138961904Y-121626285D01*
X138914285Y-121435809D01*
X138914285Y-121292952D01*
X138961904Y-121102476D01*
X139009523Y-121007238D01*
X139104761Y-120912000D01*
X139247619Y-120864380D01*
X139342857Y-120864380D01*
X139485714Y-120912000D01*
X139533333Y-120959619D01*
X140390476Y-121197714D02*
X140390476Y-121864380D01*
X140152380Y-120816761D02*
X139914285Y-121531047D01*
X140533333Y-121531047D01*
%TO.C,R5*%
X121245333Y-95448380D02*
X120912000Y-94972190D01*
X120673904Y-95448380D02*
X120673904Y-94448380D01*
X121054857Y-94448380D01*
X121150095Y-94496000D01*
X121197714Y-94543619D01*
X121245333Y-94638857D01*
X121245333Y-94781714D01*
X121197714Y-94876952D01*
X121150095Y-94924571D01*
X121054857Y-94972190D01*
X120673904Y-94972190D01*
X122150095Y-94448380D02*
X121673904Y-94448380D01*
X121626285Y-94924571D01*
X121673904Y-94876952D01*
X121769142Y-94829333D01*
X122007238Y-94829333D01*
X122102476Y-94876952D01*
X122150095Y-94924571D01*
X122197714Y-95019809D01*
X122197714Y-95257904D01*
X122150095Y-95353142D01*
X122102476Y-95400761D01*
X122007238Y-95448380D01*
X121769142Y-95448380D01*
X121673904Y-95400761D01*
X121626285Y-95353142D01*
%TO.C,D4*%
X118133904Y-114752380D02*
X118133904Y-113752380D01*
X118372000Y-113752380D01*
X118514857Y-113800000D01*
X118610095Y-113895238D01*
X118657714Y-113990476D01*
X118705333Y-114180952D01*
X118705333Y-114323809D01*
X118657714Y-114514285D01*
X118610095Y-114609523D01*
X118514857Y-114704761D01*
X118372000Y-114752380D01*
X118133904Y-114752380D01*
X119562476Y-114085714D02*
X119562476Y-114752380D01*
X119324380Y-113704761D02*
X119086285Y-114419047D01*
X119705333Y-114419047D01*
%TO.C,D3*%
X118133904Y-104592380D02*
X118133904Y-103592380D01*
X118372000Y-103592380D01*
X118514857Y-103640000D01*
X118610095Y-103735238D01*
X118657714Y-103830476D01*
X118705333Y-104020952D01*
X118705333Y-104163809D01*
X118657714Y-104354285D01*
X118610095Y-104449523D01*
X118514857Y-104544761D01*
X118372000Y-104592380D01*
X118133904Y-104592380D01*
X119038666Y-103592380D02*
X119657714Y-103592380D01*
X119324380Y-103973333D01*
X119467238Y-103973333D01*
X119562476Y-104020952D01*
X119610095Y-104068571D01*
X119657714Y-104163809D01*
X119657714Y-104401904D01*
X119610095Y-104497142D01*
X119562476Y-104544761D01*
X119467238Y-104592380D01*
X119181523Y-104592380D01*
X119086285Y-104544761D01*
X119038666Y-104497142D01*
%TO.C,D2*%
X118133904Y-94432380D02*
X118133904Y-93432380D01*
X118372000Y-93432380D01*
X118514857Y-93480000D01*
X118610095Y-93575238D01*
X118657714Y-93670476D01*
X118705333Y-93860952D01*
X118705333Y-94003809D01*
X118657714Y-94194285D01*
X118610095Y-94289523D01*
X118514857Y-94384761D01*
X118372000Y-94432380D01*
X118133904Y-94432380D01*
X119086285Y-93527619D02*
X119133904Y-93480000D01*
X119229142Y-93432380D01*
X119467238Y-93432380D01*
X119562476Y-93480000D01*
X119610095Y-93527619D01*
X119657714Y-93622857D01*
X119657714Y-93718095D01*
X119610095Y-93860952D01*
X119038666Y-94432380D01*
X119657714Y-94432380D01*
%TO.C,D1*%
X118133904Y-84272380D02*
X118133904Y-83272380D01*
X118372000Y-83272380D01*
X118514857Y-83320000D01*
X118610095Y-83415238D01*
X118657714Y-83510476D01*
X118705333Y-83700952D01*
X118705333Y-83843809D01*
X118657714Y-84034285D01*
X118610095Y-84129523D01*
X118514857Y-84224761D01*
X118372000Y-84272380D01*
X118133904Y-84272380D01*
X119657714Y-84272380D02*
X119086285Y-84272380D01*
X119372000Y-84272380D02*
X119372000Y-83272380D01*
X119276761Y-83415238D01*
X119181523Y-83510476D01*
X119086285Y-83558095D01*
%TO.C,R7*%
X122261333Y-75128380D02*
X121928000Y-74652190D01*
X121689904Y-75128380D02*
X121689904Y-74128380D01*
X122070857Y-74128380D01*
X122166095Y-74176000D01*
X122213714Y-74223619D01*
X122261333Y-74318857D01*
X122261333Y-74461714D01*
X122213714Y-74556952D01*
X122166095Y-74604571D01*
X122070857Y-74652190D01*
X121689904Y-74652190D01*
X122594666Y-74128380D02*
X123261333Y-74128380D01*
X122832761Y-75128380D01*
%TO.C,R1*%
X182713333Y-90876380D02*
X182380000Y-90400190D01*
X182141904Y-90876380D02*
X182141904Y-89876380D01*
X182522857Y-89876380D01*
X182618095Y-89924000D01*
X182665714Y-89971619D01*
X182713333Y-90066857D01*
X182713333Y-90209714D01*
X182665714Y-90304952D01*
X182618095Y-90352571D01*
X182522857Y-90400190D01*
X182141904Y-90400190D01*
X183665714Y-90876380D02*
X183094285Y-90876380D01*
X183380000Y-90876380D02*
X183380000Y-89876380D01*
X183284761Y-90019238D01*
X183189523Y-90114476D01*
X183094285Y-90162095D01*
%TO.C,R2*%
X187793333Y-90876380D02*
X187460000Y-90400190D01*
X187221904Y-90876380D02*
X187221904Y-89876380D01*
X187602857Y-89876380D01*
X187698095Y-89924000D01*
X187745714Y-89971619D01*
X187793333Y-90066857D01*
X187793333Y-90209714D01*
X187745714Y-90304952D01*
X187698095Y-90352571D01*
X187602857Y-90400190D01*
X187221904Y-90400190D01*
X188174285Y-89971619D02*
X188221904Y-89924000D01*
X188317142Y-89876380D01*
X188555238Y-89876380D01*
X188650476Y-89924000D01*
X188698095Y-89971619D01*
X188745714Y-90066857D01*
X188745714Y-90162095D01*
X188698095Y-90304952D01*
X188126666Y-90876380D01*
X188745714Y-90876380D01*
%TO.C,R3*%
X192873333Y-90876380D02*
X192540000Y-90400190D01*
X192301904Y-90876380D02*
X192301904Y-89876380D01*
X192682857Y-89876380D01*
X192778095Y-89924000D01*
X192825714Y-89971619D01*
X192873333Y-90066857D01*
X192873333Y-90209714D01*
X192825714Y-90304952D01*
X192778095Y-90352571D01*
X192682857Y-90400190D01*
X192301904Y-90400190D01*
X193206666Y-89876380D02*
X193825714Y-89876380D01*
X193492380Y-90257333D01*
X193635238Y-90257333D01*
X193730476Y-90304952D01*
X193778095Y-90352571D01*
X193825714Y-90447809D01*
X193825714Y-90685904D01*
X193778095Y-90781142D01*
X193730476Y-90828761D01*
X193635238Y-90876380D01*
X193349523Y-90876380D01*
X193254285Y-90828761D01*
X193206666Y-90781142D01*
%TO.C,C1*%
X200493333Y-100433142D02*
X200445714Y-100480761D01*
X200302857Y-100528380D01*
X200207619Y-100528380D01*
X200064761Y-100480761D01*
X199969523Y-100385523D01*
X199921904Y-100290285D01*
X199874285Y-100099809D01*
X199874285Y-99956952D01*
X199921904Y-99766476D01*
X199969523Y-99671238D01*
X200064761Y-99576000D01*
X200207619Y-99528380D01*
X200302857Y-99528380D01*
X200445714Y-99576000D01*
X200493333Y-99623619D01*
X201445714Y-100528380D02*
X200874285Y-100528380D01*
X201160000Y-100528380D02*
X201160000Y-99528380D01*
X201064761Y-99671238D01*
X200969523Y-99766476D01*
X200874285Y-99814095D01*
%TO.C,C2*%
X200493333Y-95353142D02*
X200445714Y-95400761D01*
X200302857Y-95448380D01*
X200207619Y-95448380D01*
X200064761Y-95400761D01*
X199969523Y-95305523D01*
X199921904Y-95210285D01*
X199874285Y-95019809D01*
X199874285Y-94876952D01*
X199921904Y-94686476D01*
X199969523Y-94591238D01*
X200064761Y-94496000D01*
X200207619Y-94448380D01*
X200302857Y-94448380D01*
X200445714Y-94496000D01*
X200493333Y-94543619D01*
X200874285Y-94543619D02*
X200921904Y-94496000D01*
X201017142Y-94448380D01*
X201255238Y-94448380D01*
X201350476Y-94496000D01*
X201398095Y-94543619D01*
X201445714Y-94638857D01*
X201445714Y-94734095D01*
X201398095Y-94876952D01*
X200826666Y-95448380D01*
X201445714Y-95448380D01*
%TO.C,C3*%
X200493333Y-90273142D02*
X200445714Y-90320761D01*
X200302857Y-90368380D01*
X200207619Y-90368380D01*
X200064761Y-90320761D01*
X199969523Y-90225523D01*
X199921904Y-90130285D01*
X199874285Y-89939809D01*
X199874285Y-89796952D01*
X199921904Y-89606476D01*
X199969523Y-89511238D01*
X200064761Y-89416000D01*
X200207619Y-89368380D01*
X200302857Y-89368380D01*
X200445714Y-89416000D01*
X200493333Y-89463619D01*
X200826666Y-89368380D02*
X201445714Y-89368380D01*
X201112380Y-89749333D01*
X201255238Y-89749333D01*
X201350476Y-89796952D01*
X201398095Y-89844571D01*
X201445714Y-89939809D01*
X201445714Y-90177904D01*
X201398095Y-90273142D01*
X201350476Y-90320761D01*
X201255238Y-90368380D01*
X200969523Y-90368380D01*
X200874285Y-90320761D01*
X200826666Y-90273142D01*
%TO.C,J33*%
X180165476Y-111212380D02*
X180165476Y-111926666D01*
X180117857Y-112069523D01*
X180022619Y-112164761D01*
X179879761Y-112212380D01*
X179784523Y-112212380D01*
X180546428Y-111212380D02*
X181165476Y-111212380D01*
X180832142Y-111593333D01*
X180975000Y-111593333D01*
X181070238Y-111640952D01*
X181117857Y-111688571D01*
X181165476Y-111783809D01*
X181165476Y-112021904D01*
X181117857Y-112117142D01*
X181070238Y-112164761D01*
X180975000Y-112212380D01*
X180689285Y-112212380D01*
X180594047Y-112164761D01*
X180546428Y-112117142D01*
X181498809Y-111212380D02*
X182117857Y-111212380D01*
X181784523Y-111593333D01*
X181927380Y-111593333D01*
X182022619Y-111640952D01*
X182070238Y-111688571D01*
X182117857Y-111783809D01*
X182117857Y-112021904D01*
X182070238Y-112117142D01*
X182022619Y-112164761D01*
X181927380Y-112212380D01*
X181641666Y-112212380D01*
X181546428Y-112164761D01*
X181498809Y-112117142D01*
%TO.C,J32*%
X159845476Y-111212380D02*
X159845476Y-111926666D01*
X159797857Y-112069523D01*
X159702619Y-112164761D01*
X159559761Y-112212380D01*
X159464523Y-112212380D01*
X160226428Y-111212380D02*
X160845476Y-111212380D01*
X160512142Y-111593333D01*
X160655000Y-111593333D01*
X160750238Y-111640952D01*
X160797857Y-111688571D01*
X160845476Y-111783809D01*
X160845476Y-112021904D01*
X160797857Y-112117142D01*
X160750238Y-112164761D01*
X160655000Y-112212380D01*
X160369285Y-112212380D01*
X160274047Y-112164761D01*
X160226428Y-112117142D01*
X161226428Y-111307619D02*
X161274047Y-111260000D01*
X161369285Y-111212380D01*
X161607380Y-111212380D01*
X161702619Y-111260000D01*
X161750238Y-111307619D01*
X161797857Y-111402857D01*
X161797857Y-111498095D01*
X161750238Y-111640952D01*
X161178809Y-112212380D01*
X161797857Y-112212380D01*
%TO.C,J31*%
X139525476Y-111212380D02*
X139525476Y-111926666D01*
X139477857Y-112069523D01*
X139382619Y-112164761D01*
X139239761Y-112212380D01*
X139144523Y-112212380D01*
X139906428Y-111212380D02*
X140525476Y-111212380D01*
X140192142Y-111593333D01*
X140335000Y-111593333D01*
X140430238Y-111640952D01*
X140477857Y-111688571D01*
X140525476Y-111783809D01*
X140525476Y-112021904D01*
X140477857Y-112117142D01*
X140430238Y-112164761D01*
X140335000Y-112212380D01*
X140049285Y-112212380D01*
X139954047Y-112164761D01*
X139906428Y-112117142D01*
X141477857Y-112212380D02*
X140906428Y-112212380D01*
X141192142Y-112212380D02*
X141192142Y-111212380D01*
X141096904Y-111355238D01*
X141001666Y-111450476D01*
X140906428Y-111498095D01*
%TO.C,J16*%
X182070476Y-100036380D02*
X182070476Y-100750666D01*
X182022857Y-100893523D01*
X181927619Y-100988761D01*
X181784761Y-101036380D01*
X181689523Y-101036380D01*
X183070476Y-101036380D02*
X182499047Y-101036380D01*
X182784761Y-101036380D02*
X182784761Y-100036380D01*
X182689523Y-100179238D01*
X182594285Y-100274476D01*
X182499047Y-100322095D01*
X183927619Y-100036380D02*
X183737142Y-100036380D01*
X183641904Y-100084000D01*
X183594285Y-100131619D01*
X183499047Y-100274476D01*
X183451428Y-100464952D01*
X183451428Y-100845904D01*
X183499047Y-100941142D01*
X183546666Y-100988761D01*
X183641904Y-101036380D01*
X183832380Y-101036380D01*
X183927619Y-100988761D01*
X183975238Y-100941142D01*
X184022857Y-100845904D01*
X184022857Y-100607809D01*
X183975238Y-100512571D01*
X183927619Y-100464952D01*
X183832380Y-100417333D01*
X183641904Y-100417333D01*
X183546666Y-100464952D01*
X183499047Y-100512571D01*
X183451428Y-100607809D01*
%TO.C,J15*%
X161750476Y-100036380D02*
X161750476Y-100750666D01*
X161702857Y-100893523D01*
X161607619Y-100988761D01*
X161464761Y-101036380D01*
X161369523Y-101036380D01*
X162750476Y-101036380D02*
X162179047Y-101036380D01*
X162464761Y-101036380D02*
X162464761Y-100036380D01*
X162369523Y-100179238D01*
X162274285Y-100274476D01*
X162179047Y-100322095D01*
X163655238Y-100036380D02*
X163179047Y-100036380D01*
X163131428Y-100512571D01*
X163179047Y-100464952D01*
X163274285Y-100417333D01*
X163512380Y-100417333D01*
X163607619Y-100464952D01*
X163655238Y-100512571D01*
X163702857Y-100607809D01*
X163702857Y-100845904D01*
X163655238Y-100941142D01*
X163607619Y-100988761D01*
X163512380Y-101036380D01*
X163274285Y-101036380D01*
X163179047Y-100988761D01*
X163131428Y-100941142D01*
%TO.C,J14*%
X141430476Y-100036380D02*
X141430476Y-100750666D01*
X141382857Y-100893523D01*
X141287619Y-100988761D01*
X141144761Y-101036380D01*
X141049523Y-101036380D01*
X142430476Y-101036380D02*
X141859047Y-101036380D01*
X142144761Y-101036380D02*
X142144761Y-100036380D01*
X142049523Y-100179238D01*
X141954285Y-100274476D01*
X141859047Y-100322095D01*
X143287619Y-100369714D02*
X143287619Y-101036380D01*
X143049523Y-99988761D02*
X142811428Y-100703047D01*
X143430476Y-100703047D01*
%TO.C,J18*%
X141938476Y-79716380D02*
X141938476Y-80430666D01*
X141890857Y-80573523D01*
X141795619Y-80668761D01*
X141652761Y-80716380D01*
X141557523Y-80716380D01*
X142938476Y-80716380D02*
X142367047Y-80716380D01*
X142652761Y-80716380D02*
X142652761Y-79716380D01*
X142557523Y-79859238D01*
X142462285Y-79954476D01*
X142367047Y-80002095D01*
X143509904Y-80144952D02*
X143414666Y-80097333D01*
X143367047Y-80049714D01*
X143319428Y-79954476D01*
X143319428Y-79906857D01*
X143367047Y-79811619D01*
X143414666Y-79764000D01*
X143509904Y-79716380D01*
X143700380Y-79716380D01*
X143795619Y-79764000D01*
X143843238Y-79811619D01*
X143890857Y-79906857D01*
X143890857Y-79954476D01*
X143843238Y-80049714D01*
X143795619Y-80097333D01*
X143700380Y-80144952D01*
X143509904Y-80144952D01*
X143414666Y-80192571D01*
X143367047Y-80240190D01*
X143319428Y-80335428D01*
X143319428Y-80525904D01*
X143367047Y-80621142D01*
X143414666Y-80668761D01*
X143509904Y-80716380D01*
X143700380Y-80716380D01*
X143795619Y-80668761D01*
X143843238Y-80621142D01*
X143890857Y-80525904D01*
X143890857Y-80335428D01*
X143843238Y-80240190D01*
X143795619Y-80192571D01*
X143700380Y-80144952D01*
%TO.C,J25*%
X161242476Y-79716380D02*
X161242476Y-80430666D01*
X161194857Y-80573523D01*
X161099619Y-80668761D01*
X160956761Y-80716380D01*
X160861523Y-80716380D01*
X161671047Y-79811619D02*
X161718666Y-79764000D01*
X161813904Y-79716380D01*
X162052000Y-79716380D01*
X162147238Y-79764000D01*
X162194857Y-79811619D01*
X162242476Y-79906857D01*
X162242476Y-80002095D01*
X162194857Y-80144952D01*
X161623428Y-80716380D01*
X162242476Y-80716380D01*
X163147238Y-79716380D02*
X162671047Y-79716380D01*
X162623428Y-80192571D01*
X162671047Y-80144952D01*
X162766285Y-80097333D01*
X163004380Y-80097333D01*
X163099619Y-80144952D01*
X163147238Y-80192571D01*
X163194857Y-80287809D01*
X163194857Y-80525904D01*
X163147238Y-80621142D01*
X163099619Y-80668761D01*
X163004380Y-80716380D01*
X162766285Y-80716380D01*
X162671047Y-80668761D01*
X162623428Y-80621142D01*
%TO.C,J27*%
X178522380Y-88439523D02*
X179236666Y-88439523D01*
X179379523Y-88487142D01*
X179474761Y-88582380D01*
X179522380Y-88725238D01*
X179522380Y-88820476D01*
X178617619Y-88010952D02*
X178570000Y-87963333D01*
X178522380Y-87868095D01*
X178522380Y-87630000D01*
X178570000Y-87534761D01*
X178617619Y-87487142D01*
X178712857Y-87439523D01*
X178808095Y-87439523D01*
X178950952Y-87487142D01*
X179522380Y-88058571D01*
X179522380Y-87439523D01*
X178522380Y-87106190D02*
X178522380Y-86439523D01*
X179522380Y-86868095D01*
%TO.C,J3*%
X152066666Y-128357380D02*
X152066666Y-129071666D01*
X152019047Y-129214523D01*
X151923809Y-129309761D01*
X151780952Y-129357380D01*
X151685714Y-129357380D01*
X152447619Y-128357380D02*
X153066666Y-128357380D01*
X152733333Y-128738333D01*
X152876190Y-128738333D01*
X152971428Y-128785952D01*
X153019047Y-128833571D01*
X153066666Y-128928809D01*
X153066666Y-129166904D01*
X153019047Y-129262142D01*
X152971428Y-129309761D01*
X152876190Y-129357380D01*
X152590476Y-129357380D01*
X152495238Y-129309761D01*
X152447619Y-129262142D01*
%TO.C,J7*%
X154606666Y-128357380D02*
X154606666Y-129071666D01*
X154559047Y-129214523D01*
X154463809Y-129309761D01*
X154320952Y-129357380D01*
X154225714Y-129357380D01*
X154987619Y-128357380D02*
X155654285Y-128357380D01*
X155225714Y-129357380D01*
%TO.C,J11*%
X156670476Y-128357380D02*
X156670476Y-129071666D01*
X156622857Y-129214523D01*
X156527619Y-129309761D01*
X156384761Y-129357380D01*
X156289523Y-129357380D01*
X157670476Y-129357380D02*
X157099047Y-129357380D01*
X157384761Y-129357380D02*
X157384761Y-128357380D01*
X157289523Y-128500238D01*
X157194285Y-128595476D01*
X157099047Y-128643095D01*
X158622857Y-129357380D02*
X158051428Y-129357380D01*
X158337142Y-129357380D02*
X158337142Y-128357380D01*
X158241904Y-128500238D01*
X158146666Y-128595476D01*
X158051428Y-128643095D01*
%TO.C,J13*%
X159845476Y-128357380D02*
X159845476Y-129071666D01*
X159797857Y-129214523D01*
X159702619Y-129309761D01*
X159559761Y-129357380D01*
X159464523Y-129357380D01*
X160845476Y-129357380D02*
X160274047Y-129357380D01*
X160559761Y-129357380D02*
X160559761Y-128357380D01*
X160464523Y-128500238D01*
X160369285Y-128595476D01*
X160274047Y-128643095D01*
X161178809Y-128357380D02*
X161797857Y-128357380D01*
X161464523Y-128738333D01*
X161607380Y-128738333D01*
X161702619Y-128785952D01*
X161750238Y-128833571D01*
X161797857Y-128928809D01*
X161797857Y-129166904D01*
X161750238Y-129262142D01*
X161702619Y-129309761D01*
X161607380Y-129357380D01*
X161321666Y-129357380D01*
X161226428Y-129309761D01*
X161178809Y-129262142D01*
%TO.C,J12*%
X165060380Y-125777523D02*
X165774666Y-125777523D01*
X165917523Y-125825142D01*
X166012761Y-125920380D01*
X166060380Y-126063238D01*
X166060380Y-126158476D01*
X166060380Y-124777523D02*
X166060380Y-125348952D01*
X166060380Y-125063238D02*
X165060380Y-125063238D01*
X165203238Y-125158476D01*
X165298476Y-125253714D01*
X165346095Y-125348952D01*
X165155619Y-124396571D02*
X165108000Y-124348952D01*
X165060380Y-124253714D01*
X165060380Y-124015619D01*
X165108000Y-123920380D01*
X165155619Y-123872761D01*
X165250857Y-123825142D01*
X165346095Y-123825142D01*
X165488952Y-123872761D01*
X166060380Y-124444190D01*
X166060380Y-123825142D01*
%TO.C,J6*%
X165060380Y-128349333D02*
X165774666Y-128349333D01*
X165917523Y-128396952D01*
X166012761Y-128492190D01*
X166060380Y-128635047D01*
X166060380Y-128730285D01*
X165060380Y-127444571D02*
X165060380Y-127635047D01*
X165108000Y-127730285D01*
X165155619Y-127777904D01*
X165298476Y-127873142D01*
X165488952Y-127920761D01*
X165869904Y-127920761D01*
X165965142Y-127873142D01*
X166012761Y-127825523D01*
X166060380Y-127730285D01*
X166060380Y-127539809D01*
X166012761Y-127444571D01*
X165965142Y-127396952D01*
X165869904Y-127349333D01*
X165631809Y-127349333D01*
X165536571Y-127396952D01*
X165488952Y-127444571D01*
X165441333Y-127539809D01*
X165441333Y-127730285D01*
X165488952Y-127825523D01*
X165536571Y-127873142D01*
X165631809Y-127920761D01*
%TO.C,J8*%
X179792380Y-126063333D02*
X180506666Y-126063333D01*
X180649523Y-126110952D01*
X180744761Y-126206190D01*
X180792380Y-126349047D01*
X180792380Y-126444285D01*
X180220952Y-125444285D02*
X180173333Y-125539523D01*
X180125714Y-125587142D01*
X180030476Y-125634761D01*
X179982857Y-125634761D01*
X179887619Y-125587142D01*
X179840000Y-125539523D01*
X179792380Y-125444285D01*
X179792380Y-125253809D01*
X179840000Y-125158571D01*
X179887619Y-125110952D01*
X179982857Y-125063333D01*
X180030476Y-125063333D01*
X180125714Y-125110952D01*
X180173333Y-125158571D01*
X180220952Y-125253809D01*
X180220952Y-125444285D01*
X180268571Y-125539523D01*
X180316190Y-125587142D01*
X180411428Y-125634761D01*
X180601904Y-125634761D01*
X180697142Y-125587142D01*
X180744761Y-125539523D01*
X180792380Y-125444285D01*
X180792380Y-125253809D01*
X180744761Y-125158571D01*
X180697142Y-125110952D01*
X180601904Y-125063333D01*
X180411428Y-125063333D01*
X180316190Y-125110952D01*
X180268571Y-125158571D01*
X180220952Y-125253809D01*
%TO.C,J9*%
X197572380Y-126063333D02*
X198286666Y-126063333D01*
X198429523Y-126110952D01*
X198524761Y-126206190D01*
X198572380Y-126349047D01*
X198572380Y-126444285D01*
X198572380Y-125539523D02*
X198572380Y-125349047D01*
X198524761Y-125253809D01*
X198477142Y-125206190D01*
X198334285Y-125110952D01*
X198143809Y-125063333D01*
X197762857Y-125063333D01*
X197667619Y-125110952D01*
X197620000Y-125158571D01*
X197572380Y-125253809D01*
X197572380Y-125444285D01*
X197620000Y-125539523D01*
X197667619Y-125587142D01*
X197762857Y-125634761D01*
X198000952Y-125634761D01*
X198096190Y-125587142D01*
X198143809Y-125539523D01*
X198191428Y-125444285D01*
X198191428Y-125253809D01*
X198143809Y-125158571D01*
X198096190Y-125110952D01*
X198000952Y-125063333D01*
%TO.C,J39*%
X134072380Y-75104523D02*
X134786666Y-75104523D01*
X134929523Y-75152142D01*
X135024761Y-75247380D01*
X135072380Y-75390238D01*
X135072380Y-75485476D01*
X134072380Y-74723571D02*
X134072380Y-74104523D01*
X134453333Y-74437857D01*
X134453333Y-74295000D01*
X134500952Y-74199761D01*
X134548571Y-74152142D01*
X134643809Y-74104523D01*
X134881904Y-74104523D01*
X134977142Y-74152142D01*
X135024761Y-74199761D01*
X135072380Y-74295000D01*
X135072380Y-74580714D01*
X135024761Y-74675952D01*
X134977142Y-74723571D01*
X135072380Y-73628333D02*
X135072380Y-73437857D01*
X135024761Y-73342619D01*
X134977142Y-73295000D01*
X134834285Y-73199761D01*
X134643809Y-73152142D01*
X134262857Y-73152142D01*
X134167619Y-73199761D01*
X134120000Y-73247380D01*
X134072380Y-73342619D01*
X134072380Y-73533095D01*
X134120000Y-73628333D01*
X134167619Y-73675952D01*
X134262857Y-73723571D01*
X134500952Y-73723571D01*
X134596190Y-73675952D01*
X134643809Y-73628333D01*
X134691428Y-73533095D01*
X134691428Y-73342619D01*
X134643809Y-73247380D01*
X134596190Y-73199761D01*
X134500952Y-73152142D01*
%TO.C,J19*%
X179692380Y-82873904D02*
X179692380Y-83445333D01*
X179654285Y-83559619D01*
X179578095Y-83635809D01*
X179463809Y-83673904D01*
X179387619Y-83673904D01*
X180492380Y-83673904D02*
X180035238Y-83673904D01*
X180263809Y-83673904D02*
X180263809Y-82873904D01*
X180187619Y-82988190D01*
X180111428Y-83064380D01*
X180035238Y-83102476D01*
X180873333Y-83673904D02*
X181025714Y-83673904D01*
X181101904Y-83635809D01*
X181140000Y-83597714D01*
X181216190Y-83483428D01*
X181254285Y-83331047D01*
X181254285Y-83026285D01*
X181216190Y-82950095D01*
X181178095Y-82912000D01*
X181101904Y-82873904D01*
X180949523Y-82873904D01*
X180873333Y-82912000D01*
X180835238Y-82950095D01*
X180797142Y-83026285D01*
X180797142Y-83216761D01*
X180835238Y-83292952D01*
X180873333Y-83331047D01*
X180949523Y-83369142D01*
X181101904Y-83369142D01*
X181178095Y-83331047D01*
X181216190Y-83292952D01*
X181254285Y-83216761D01*
%TO.C,J20*%
X182232380Y-82873904D02*
X182232380Y-83445333D01*
X182194285Y-83559619D01*
X182118095Y-83635809D01*
X182003809Y-83673904D01*
X181927619Y-83673904D01*
X182575238Y-82950095D02*
X182613333Y-82912000D01*
X182689523Y-82873904D01*
X182880000Y-82873904D01*
X182956190Y-82912000D01*
X182994285Y-82950095D01*
X183032380Y-83026285D01*
X183032380Y-83102476D01*
X182994285Y-83216761D01*
X182537142Y-83673904D01*
X183032380Y-83673904D01*
X183527619Y-82873904D02*
X183603809Y-82873904D01*
X183680000Y-82912000D01*
X183718095Y-82950095D01*
X183756190Y-83026285D01*
X183794285Y-83178666D01*
X183794285Y-83369142D01*
X183756190Y-83521523D01*
X183718095Y-83597714D01*
X183680000Y-83635809D01*
X183603809Y-83673904D01*
X183527619Y-83673904D01*
X183451428Y-83635809D01*
X183413333Y-83597714D01*
X183375238Y-83521523D01*
X183337142Y-83369142D01*
X183337142Y-83178666D01*
X183375238Y-83026285D01*
X183413333Y-82950095D01*
X183451428Y-82912000D01*
X183527619Y-82873904D01*
%TO.C,J21*%
X184772380Y-82873904D02*
X184772380Y-83445333D01*
X184734285Y-83559619D01*
X184658095Y-83635809D01*
X184543809Y-83673904D01*
X184467619Y-83673904D01*
X185115238Y-82950095D02*
X185153333Y-82912000D01*
X185229523Y-82873904D01*
X185420000Y-82873904D01*
X185496190Y-82912000D01*
X185534285Y-82950095D01*
X185572380Y-83026285D01*
X185572380Y-83102476D01*
X185534285Y-83216761D01*
X185077142Y-83673904D01*
X185572380Y-83673904D01*
X186334285Y-83673904D02*
X185877142Y-83673904D01*
X186105714Y-83673904D02*
X186105714Y-82873904D01*
X186029523Y-82988190D01*
X185953333Y-83064380D01*
X185877142Y-83102476D01*
%TO.C,J22*%
X187312380Y-82873904D02*
X187312380Y-83445333D01*
X187274285Y-83559619D01*
X187198095Y-83635809D01*
X187083809Y-83673904D01*
X187007619Y-83673904D01*
X187655238Y-82950095D02*
X187693333Y-82912000D01*
X187769523Y-82873904D01*
X187960000Y-82873904D01*
X188036190Y-82912000D01*
X188074285Y-82950095D01*
X188112380Y-83026285D01*
X188112380Y-83102476D01*
X188074285Y-83216761D01*
X187617142Y-83673904D01*
X188112380Y-83673904D01*
X188417142Y-82950095D02*
X188455238Y-82912000D01*
X188531428Y-82873904D01*
X188721904Y-82873904D01*
X188798095Y-82912000D01*
X188836190Y-82950095D01*
X188874285Y-83026285D01*
X188874285Y-83102476D01*
X188836190Y-83216761D01*
X188379047Y-83673904D01*
X188874285Y-83673904D01*
%TO.C,J23*%
X189852380Y-82873904D02*
X189852380Y-83445333D01*
X189814285Y-83559619D01*
X189738095Y-83635809D01*
X189623809Y-83673904D01*
X189547619Y-83673904D01*
X190195238Y-82950095D02*
X190233333Y-82912000D01*
X190309523Y-82873904D01*
X190500000Y-82873904D01*
X190576190Y-82912000D01*
X190614285Y-82950095D01*
X190652380Y-83026285D01*
X190652380Y-83102476D01*
X190614285Y-83216761D01*
X190157142Y-83673904D01*
X190652380Y-83673904D01*
X190919047Y-82873904D02*
X191414285Y-82873904D01*
X191147619Y-83178666D01*
X191261904Y-83178666D01*
X191338095Y-83216761D01*
X191376190Y-83254857D01*
X191414285Y-83331047D01*
X191414285Y-83521523D01*
X191376190Y-83597714D01*
X191338095Y-83635809D01*
X191261904Y-83673904D01*
X191033333Y-83673904D01*
X190957142Y-83635809D01*
X190919047Y-83597714D01*
%TO.C,J24*%
X192392380Y-82873904D02*
X192392380Y-83445333D01*
X192354285Y-83559619D01*
X192278095Y-83635809D01*
X192163809Y-83673904D01*
X192087619Y-83673904D01*
X192735238Y-82950095D02*
X192773333Y-82912000D01*
X192849523Y-82873904D01*
X193040000Y-82873904D01*
X193116190Y-82912000D01*
X193154285Y-82950095D01*
X193192380Y-83026285D01*
X193192380Y-83102476D01*
X193154285Y-83216761D01*
X192697142Y-83673904D01*
X193192380Y-83673904D01*
X193878095Y-83140571D02*
X193878095Y-83673904D01*
X193687619Y-82835809D02*
X193497142Y-83407238D01*
X193992380Y-83407238D01*
%TO.C,J29*%
X196456380Y-83381904D02*
X196456380Y-83953333D01*
X196418285Y-84067619D01*
X196342095Y-84143809D01*
X196227809Y-84181904D01*
X196151619Y-84181904D01*
X196799238Y-83458095D02*
X196837333Y-83420000D01*
X196913523Y-83381904D01*
X197104000Y-83381904D01*
X197180190Y-83420000D01*
X197218285Y-83458095D01*
X197256380Y-83534285D01*
X197256380Y-83610476D01*
X197218285Y-83724761D01*
X196761142Y-84181904D01*
X197256380Y-84181904D01*
X197637333Y-84181904D02*
X197789714Y-84181904D01*
X197865904Y-84143809D01*
X197904000Y-84105714D01*
X197980190Y-83991428D01*
X198018285Y-83839047D01*
X198018285Y-83534285D01*
X197980190Y-83458095D01*
X197942095Y-83420000D01*
X197865904Y-83381904D01*
X197713523Y-83381904D01*
X197637333Y-83420000D01*
X197599238Y-83458095D01*
X197561142Y-83534285D01*
X197561142Y-83724761D01*
X197599238Y-83800952D01*
X197637333Y-83839047D01*
X197713523Y-83877142D01*
X197865904Y-83877142D01*
X197942095Y-83839047D01*
X197980190Y-83800952D01*
X198018285Y-83724761D01*
%TO.C,J2*%
X208581666Y-116292380D02*
X208581666Y-117006666D01*
X208534047Y-117149523D01*
X208438809Y-117244761D01*
X208295952Y-117292380D01*
X208200714Y-117292380D01*
X209010238Y-116387619D02*
X209057857Y-116340000D01*
X209153095Y-116292380D01*
X209391190Y-116292380D01*
X209486428Y-116340000D01*
X209534047Y-116387619D01*
X209581666Y-116482857D01*
X209581666Y-116578095D01*
X209534047Y-116720952D01*
X208962619Y-117292380D01*
X209581666Y-117292380D01*
%TO.C,J35*%
X163274476Y-73112380D02*
X163274476Y-73826666D01*
X163226857Y-73969523D01*
X163131619Y-74064761D01*
X162988761Y-74112380D01*
X162893523Y-74112380D01*
X163655428Y-73112380D02*
X164274476Y-73112380D01*
X163941142Y-73493333D01*
X164084000Y-73493333D01*
X164179238Y-73540952D01*
X164226857Y-73588571D01*
X164274476Y-73683809D01*
X164274476Y-73921904D01*
X164226857Y-74017142D01*
X164179238Y-74064761D01*
X164084000Y-74112380D01*
X163798285Y-74112380D01*
X163703047Y-74064761D01*
X163655428Y-74017142D01*
X165179238Y-73112380D02*
X164703047Y-73112380D01*
X164655428Y-73588571D01*
X164703047Y-73540952D01*
X164798285Y-73493333D01*
X165036380Y-73493333D01*
X165131619Y-73540952D01*
X165179238Y-73588571D01*
X165226857Y-73683809D01*
X165226857Y-73921904D01*
X165179238Y-74017142D01*
X165131619Y-74064761D01*
X165036380Y-74112380D01*
X164798285Y-74112380D01*
X164703047Y-74064761D01*
X164655428Y-74017142D01*
%TO.C,J34*%
X150955476Y-73112380D02*
X150955476Y-73826666D01*
X150907857Y-73969523D01*
X150812619Y-74064761D01*
X150669761Y-74112380D01*
X150574523Y-74112380D01*
X151336428Y-73112380D02*
X151955476Y-73112380D01*
X151622142Y-73493333D01*
X151765000Y-73493333D01*
X151860238Y-73540952D01*
X151907857Y-73588571D01*
X151955476Y-73683809D01*
X151955476Y-73921904D01*
X151907857Y-74017142D01*
X151860238Y-74064761D01*
X151765000Y-74112380D01*
X151479285Y-74112380D01*
X151384047Y-74064761D01*
X151336428Y-74017142D01*
X152812619Y-73445714D02*
X152812619Y-74112380D01*
X152574523Y-73064761D02*
X152336428Y-73779047D01*
X152955476Y-73779047D01*
%TO.C,J5*%
X142541666Y-73747380D02*
X142541666Y-74461666D01*
X142494047Y-74604523D01*
X142398809Y-74699761D01*
X142255952Y-74747380D01*
X142160714Y-74747380D01*
X143494047Y-73747380D02*
X143017857Y-73747380D01*
X142970238Y-74223571D01*
X143017857Y-74175952D01*
X143113095Y-74128333D01*
X143351190Y-74128333D01*
X143446428Y-74175952D01*
X143494047Y-74223571D01*
X143541666Y-74318809D01*
X143541666Y-74556904D01*
X143494047Y-74652142D01*
X143446428Y-74699761D01*
X143351190Y-74747380D01*
X143113095Y-74747380D01*
X143017857Y-74699761D01*
X142970238Y-74652142D01*
%TO.C,U1*%
X135382095Y-92416380D02*
X135382095Y-93225904D01*
X135429714Y-93321142D01*
X135477333Y-93368761D01*
X135572571Y-93416380D01*
X135763047Y-93416380D01*
X135858285Y-93368761D01*
X135905904Y-93321142D01*
X135953523Y-93225904D01*
X135953523Y-92416380D01*
X136953523Y-93416380D02*
X136382095Y-93416380D01*
X136667809Y-93416380D02*
X136667809Y-92416380D01*
X136572571Y-92559238D01*
X136477333Y-92654476D01*
X136382095Y-92702095D01*
%TO.C,U2*%
X124714095Y-75144380D02*
X124714095Y-75953904D01*
X124761714Y-76049142D01*
X124809333Y-76096761D01*
X124904571Y-76144380D01*
X125095047Y-76144380D01*
X125190285Y-76096761D01*
X125237904Y-76049142D01*
X125285523Y-75953904D01*
X125285523Y-75144380D01*
X125714095Y-75239619D02*
X125761714Y-75192000D01*
X125856952Y-75144380D01*
X126095047Y-75144380D01*
X126190285Y-75192000D01*
X126237904Y-75239619D01*
X126285523Y-75334857D01*
X126285523Y-75430095D01*
X126237904Y-75572952D01*
X125666476Y-76144380D01*
X126285523Y-76144380D01*
%TO.C,U3*%
X135382095Y-98512380D02*
X135382095Y-99321904D01*
X135429714Y-99417142D01*
X135477333Y-99464761D01*
X135572571Y-99512380D01*
X135763047Y-99512380D01*
X135858285Y-99464761D01*
X135905904Y-99417142D01*
X135953523Y-99321904D01*
X135953523Y-98512380D01*
X136334476Y-98512380D02*
X136953523Y-98512380D01*
X136620190Y-98893333D01*
X136763047Y-98893333D01*
X136858285Y-98940952D01*
X136905904Y-98988571D01*
X136953523Y-99083809D01*
X136953523Y-99321904D01*
X136905904Y-99417142D01*
X136858285Y-99464761D01*
X136763047Y-99512380D01*
X136477333Y-99512380D01*
X136382095Y-99464761D01*
X136334476Y-99417142D01*
%TO.C,U4*%
X120650095Y-113752380D02*
X120650095Y-114561904D01*
X120697714Y-114657142D01*
X120745333Y-114704761D01*
X120840571Y-114752380D01*
X121031047Y-114752380D01*
X121126285Y-114704761D01*
X121173904Y-114657142D01*
X121221523Y-114561904D01*
X121221523Y-113752380D01*
X122126285Y-114085714D02*
X122126285Y-114752380D01*
X121888190Y-113704761D02*
X121650095Y-114419047D01*
X122269142Y-114419047D01*
%TD*%
M02*
