%TF.GenerationSoftware,KiCad,Pcbnew,(5.1.6-0-10_14)*%
%TF.CreationDate,2020-10-31T20:27:49+00:00*%
%TF.ProjectId,DeWinCNC,44655769-6e43-44e4-932e-6b696361645f,0.5*%
%TF.SameCoordinates,Original*%
%TF.FileFunction,Profile,NP*%
%FSLAX46Y46*%
G04 Gerber Fmt 4.6, Leading zero omitted, Abs format (unit mm)*
G04 Created by KiCad (PCBNEW (5.1.6-0-10_14)) date 2020-10-31 20:27:49*
%MOMM*%
%LPD*%
G01*
G04 APERTURE LIST*
%TA.AperFunction,Profile*%
%ADD10C,0.150000*%
%TD*%
G04 APERTURE END LIST*
D10*
X111252000Y-31496000D02*
X111252000Y-50292000D01*
X210820000Y-31496000D02*
X210820000Y-50292000D01*
X209550000Y-51562000D02*
X183388000Y-51562000D01*
X138684000Y-51562000D02*
X112522000Y-51562000D01*
X138684000Y-51562000D02*
X139700000Y-51562000D01*
X182372000Y-51562000D02*
X183388000Y-51562000D01*
X182372000Y-51562000D02*
X139700000Y-51562000D01*
X111252000Y-50292000D02*
G75*
G03*
X112522000Y-51562000I1270000J0D01*
G01*
X209550000Y-51562000D02*
G75*
G03*
X210820000Y-50292000I0J1270000D01*
G01*
X182372000Y-30226000D02*
X139700000Y-30226000D01*
X111252000Y-31496000D02*
G75*
G02*
X112522000Y-30226000I1270000J0D01*
G01*
X209550000Y-30226000D02*
G75*
G02*
X210820000Y-31496000I0J-1270000D01*
G01*
X209550000Y-30226000D02*
X183388000Y-30226000D01*
X138684000Y-30226000D02*
X112522000Y-30226000D01*
X138684000Y-30226000D02*
X139700000Y-30226000D01*
X182372000Y-30226000D02*
X183388000Y-30226000D01*
X182372000Y-52578000D02*
X183388000Y-52578000D01*
X138684000Y-52578000D02*
X139700000Y-52578000D01*
X194564000Y-66040000D02*
X194056000Y-66040000D01*
X194564000Y-68072000D02*
X194564000Y-66040000D01*
X194056000Y-68072000D02*
X194564000Y-68072000D01*
X194056000Y-66040000D02*
X194056000Y-68072000D01*
X192024000Y-66040000D02*
X191516000Y-66040000D01*
X192024000Y-68072000D02*
X192024000Y-66040000D01*
X191516000Y-68072000D02*
X192024000Y-68072000D01*
X191516000Y-66040000D02*
X191516000Y-68072000D01*
X189484000Y-66040000D02*
X188976000Y-66040000D01*
X189484000Y-68072000D02*
X189484000Y-66040000D01*
X188976000Y-68072000D02*
X189484000Y-68072000D01*
X188976000Y-66040000D02*
X188976000Y-68072000D01*
X186944000Y-66040000D02*
X186436000Y-66040000D01*
X186944000Y-68072000D02*
X186944000Y-66040000D01*
X186436000Y-68072000D02*
X186944000Y-68072000D01*
X186436000Y-66040000D02*
X186436000Y-68072000D01*
X184404000Y-66040000D02*
X183896000Y-66040000D01*
X184404000Y-68072000D02*
X184404000Y-66040000D01*
X183896000Y-68072000D02*
X184404000Y-68072000D01*
X183896000Y-66040000D02*
X183896000Y-68072000D01*
X181864000Y-66040000D02*
X181356000Y-66040000D01*
X181864000Y-68072000D02*
X181864000Y-66040000D01*
X181356000Y-68072000D02*
X181864000Y-68072000D01*
X181356000Y-66040000D02*
X181356000Y-68072000D01*
X179324000Y-66040000D02*
X178816000Y-66040000D01*
X179324000Y-68072000D02*
X179324000Y-66040000D01*
X178816000Y-68072000D02*
X179324000Y-68072000D01*
X178816000Y-66040000D02*
X178816000Y-68072000D01*
X176784000Y-66040000D02*
X176276000Y-66040000D01*
X176784000Y-68072000D02*
X176784000Y-66040000D01*
X176276000Y-68072000D02*
X176784000Y-68072000D01*
X176276000Y-66040000D02*
X176276000Y-68072000D01*
X138684000Y-52578000D02*
X112522000Y-52578000D01*
X209550000Y-52578000D02*
X183388000Y-52578000D01*
X209550000Y-52578000D02*
G75*
G02*
X210820000Y-53848000I0J-1270000D01*
G01*
X111252000Y-53848000D02*
G75*
G02*
X112522000Y-52578000I1270000J0D01*
G01*
X182372000Y-52578000D02*
X139700000Y-52578000D01*
X112522000Y-66040000D02*
G75*
G02*
X111252000Y-64770000I0J1270000D01*
G01*
X116244841Y-62484000D02*
G75*
G03*
X116244841Y-62484000I-1436841J0D01*
G01*
X208700841Y-62484000D02*
G75*
G03*
X208700841Y-62484000I-1436841J0D01*
G01*
X173736000Y-66040000D02*
X173736000Y-68072000D01*
X196596000Y-68072000D02*
X200152000Y-68072000D01*
X196596000Y-66040000D02*
X196596000Y-68072000D01*
X200152000Y-66040000D02*
X196596000Y-66040000D01*
X209550000Y-66040000D02*
X200152000Y-66040000D01*
X112395000Y-68072000D02*
X173736000Y-68072000D01*
X112522000Y-66040000D02*
X173736000Y-66040000D01*
X209550000Y-68072000D02*
X200152000Y-68072000D01*
X210820000Y-53848000D02*
X210820000Y-64770000D01*
X111252000Y-53848000D02*
X111252000Y-64770000D01*
X210820000Y-64770000D02*
G75*
G02*
X209550000Y-66040000I-1270000J0D01*
G01*
X111125000Y-69342000D02*
G75*
G02*
X112395000Y-68072000I1270000J0D01*
G01*
X112395000Y-129540000D02*
G75*
G02*
X111125000Y-128270000I0J1270000D01*
G01*
X210820000Y-128270000D02*
G75*
G02*
X209550000Y-129540000I-1270000J0D01*
G01*
X209550000Y-68072000D02*
G75*
G02*
X210820000Y-69342000I0J-1270000D01*
G01*
X111125000Y-128270000D02*
X111125000Y-69342000D01*
X209550000Y-129540000D02*
X112395000Y-129540000D01*
X210820000Y-69342000D02*
X210820000Y-128270000D01*
M02*
