%TF.GenerationSoftware,KiCad,Pcbnew,(5.1.6-0-10_14)*%
%TF.CreationDate,2020-11-07T00:26:36+00:00*%
%TF.ProjectId,DeWinCNC,44655769-6e43-44e4-932e-6b696361645f,0.11*%
%TF.SameCoordinates,Original*%
%TF.FileFunction,Soldermask,Top*%
%TF.FilePolarity,Negative*%
%FSLAX46Y46*%
G04 Gerber Fmt 4.6, Leading zero omitted, Abs format (unit mm)*
G04 Created by KiCad (PCBNEW (5.1.6-0-10_14)) date 2020-11-07 00:26:36*
%MOMM*%
%LPD*%
G01*
G04 APERTURE LIST*
%ADD10C,4.000000*%
%ADD11C,1.600000*%
%ADD12R,1.600000X1.600000*%
%ADD13O,1.700000X1.700000*%
%ADD14R,1.700000X1.700000*%
%ADD15O,1.727200X1.727200*%
%ADD16R,1.727200X1.727200*%
%ADD17O,1.400000X1.400000*%
%ADD18C,1.400000*%
%ADD19R,3.000000X3.000000*%
%ADD20C,3.000000*%
%ADD21C,2.010000*%
%ADD22O,1.800000X1.800000*%
%ADD23R,1.800000X1.800000*%
%ADD24O,1.905000X2.000000*%
%ADD25R,1.905000X2.000000*%
%ADD26C,1.200000*%
%ADD27R,1.200000X1.200000*%
%ADD28C,2.000000*%
%ADD29C,1.800000*%
%ADD30C,4.064000*%
%ADD31O,3.000000X2.000000*%
%ADD32R,3.000000X2.000000*%
G04 APERTURE END LIST*
D10*
%TO.C,J52*%
X157450000Y-141755000D03*
X124150000Y-141755000D03*
D11*
X132490000Y-143175000D03*
X135260000Y-143175000D03*
X138030000Y-143175000D03*
X140800000Y-143175000D03*
X143570000Y-143175000D03*
X146340000Y-143175000D03*
X149110000Y-143175000D03*
X131105000Y-140335000D03*
X133875000Y-140335000D03*
X136645000Y-140335000D03*
X139415000Y-140335000D03*
X142185000Y-140335000D03*
X144955000Y-140335000D03*
X147725000Y-140335000D03*
D12*
X150495000Y-140335000D03*
%TD*%
D13*
%TO.C,J51*%
X177800000Y-134620000D03*
X175260000Y-134620000D03*
X172720000Y-134620000D03*
X170180000Y-134620000D03*
D14*
X167640000Y-134620000D03*
%TD*%
D15*
%TO.C,U6*%
X170180000Y-147955000D03*
X167640000Y-147955000D03*
X170180000Y-145415000D03*
X167640000Y-145415000D03*
X170180000Y-142875000D03*
X167640000Y-142875000D03*
X170180000Y-140335000D03*
D16*
X167640000Y-140335000D03*
%TD*%
D14*
%TO.C,J50*%
X177800000Y-124460000D03*
%TD*%
D13*
%TO.C,JM2*%
X151130000Y-71120000D03*
X148590000Y-71120000D03*
X146050000Y-71120000D03*
X143510000Y-71120000D03*
X140970000Y-71120000D03*
X138430000Y-71120000D03*
X135890000Y-71120000D03*
X133350000Y-71120000D03*
X130810000Y-71120000D03*
D14*
X128270000Y-71120000D03*
%TD*%
%TO.C,JM5*%
X137160000Y-119380000D03*
D13*
X139700000Y-119380000D03*
X142240000Y-119380000D03*
X144780000Y-119380000D03*
X147320000Y-119380000D03*
X149860000Y-119380000D03*
X152400000Y-119380000D03*
X154940000Y-119380000D03*
%TD*%
D14*
%TO.C,JM1*%
X160020000Y-119380000D03*
D13*
X162560000Y-119380000D03*
X165100000Y-119380000D03*
X167640000Y-119380000D03*
X170180000Y-119380000D03*
X172720000Y-119380000D03*
X175260000Y-119380000D03*
X177800000Y-119380000D03*
%TD*%
D14*
%TO.C,JM6*%
X182880000Y-119380000D03*
D13*
X185420000Y-119380000D03*
X187960000Y-119380000D03*
X190500000Y-119380000D03*
X193040000Y-119380000D03*
X195580000Y-119380000D03*
X198120000Y-119380000D03*
X200660000Y-119380000D03*
%TD*%
D14*
%TO.C,JM3*%
X154940000Y-71120000D03*
D13*
X157480000Y-71120000D03*
X160020000Y-71120000D03*
X162560000Y-71120000D03*
X165100000Y-71120000D03*
X167640000Y-71120000D03*
X170180000Y-71120000D03*
X172720000Y-71120000D03*
%TD*%
D14*
%TO.C,JM4*%
X178308000Y-71120000D03*
D13*
X180848000Y-71120000D03*
X183388000Y-71120000D03*
X185928000Y-71120000D03*
X188468000Y-71120000D03*
X191008000Y-71120000D03*
X193548000Y-71120000D03*
X196088000Y-71120000D03*
%TD*%
%TO.C,J40*%
X195580000Y-62992000D03*
X193040000Y-62992000D03*
X190500000Y-62992000D03*
X187960000Y-62992000D03*
X185420000Y-62992000D03*
X182880000Y-62992000D03*
X180340000Y-62992000D03*
D14*
X177800000Y-62992000D03*
%TD*%
D17*
%TO.C,R4*%
X121920000Y-103124000D03*
D18*
X121412000Y-106680000D03*
%TD*%
D17*
%TO.C,R6*%
X121412000Y-82804000D03*
D18*
X120904000Y-86360000D03*
%TD*%
D13*
%TO.C,J1*%
X203174000Y-71120000D03*
X205714000Y-71120000D03*
X203174000Y-73660000D03*
X205714000Y-73660000D03*
X203174000Y-76200000D03*
X205714000Y-76200000D03*
X203174000Y-78740000D03*
X205714000Y-78740000D03*
X203174000Y-81280000D03*
X205714000Y-81280000D03*
X203174000Y-83820000D03*
X205714000Y-83820000D03*
X203174000Y-86360000D03*
X205714000Y-86360000D03*
X203174000Y-88900000D03*
X205714000Y-88900000D03*
X203174000Y-91440000D03*
X205714000Y-91440000D03*
X203174000Y-93980000D03*
X205714000Y-93980000D03*
X203174000Y-96520000D03*
X205714000Y-96520000D03*
X203174000Y-99060000D03*
X205714000Y-99060000D03*
X203174000Y-101600000D03*
X205714000Y-101600000D03*
X203174000Y-104140000D03*
X205714000Y-104140000D03*
X203174000Y-106680000D03*
X205714000Y-106680000D03*
X203174000Y-109220000D03*
X205714000Y-109220000D03*
X203174000Y-111760000D03*
X205714000Y-111760000D03*
X203174000Y-114300000D03*
D14*
X205714000Y-114300000D03*
%TD*%
D19*
%TO.C,J43*%
X157988000Y-55372000D03*
D20*
X152908000Y-55372000D03*
X147828000Y-55372000D03*
%TD*%
%TO.C,J41*%
X115316000Y-55372000D03*
X120396000Y-55372000D03*
D19*
X125476000Y-55372000D03*
%TD*%
%TO.C,J42*%
X141732000Y-55372000D03*
D20*
X136652000Y-55372000D03*
X131572000Y-55372000D03*
%TD*%
%TO.C,J47*%
X157988000Y-63500000D03*
X152908000Y-63500000D03*
D19*
X147828000Y-63500000D03*
%TD*%
D21*
%TO.C,F1*%
X124480000Y-123628000D03*
X119380000Y-122428000D03*
%TD*%
D22*
%TO.C,D6*%
X119380000Y-119888000D03*
D23*
X119380000Y-117348000D03*
%TD*%
D22*
%TO.C,D5*%
X133604000Y-122428000D03*
D23*
X133604000Y-119888000D03*
%TD*%
D13*
%TO.C,J4*%
X129032000Y-127000000D03*
D14*
X126492000Y-127000000D03*
%TD*%
D13*
%TO.C,J10*%
X119888000Y-127000000D03*
D14*
X122428000Y-127000000D03*
%TD*%
D11*
%TO.C,C10*%
X133096000Y-127468000D03*
X133096000Y-124968000D03*
%TD*%
%TO.C,C9*%
X130008000Y-123444000D03*
X127508000Y-123444000D03*
%TD*%
D24*
%TO.C,U5*%
X129032000Y-119380000D03*
X126492000Y-119380000D03*
D25*
X123952000Y-119380000D03*
%TD*%
D11*
%TO.C,C5*%
X136184000Y-127000000D03*
X138684000Y-127000000D03*
%TD*%
%TO.C,C7*%
X173228000Y-79248000D03*
X175728000Y-79248000D03*
%TD*%
D13*
%TO.C,J37*%
X175260000Y-76200000D03*
X172720000Y-76200000D03*
D14*
X170180000Y-76200000D03*
%TD*%
D17*
%TO.C,R8*%
X200940000Y-78232000D03*
D18*
X198400000Y-78232000D03*
%TD*%
D17*
%TO.C,R9*%
X200940000Y-76200000D03*
D18*
X198400000Y-76200000D03*
%TD*%
D17*
%TO.C,R10*%
X171196000Y-79248000D03*
D18*
X169296000Y-79248000D03*
%TD*%
D26*
%TO.C,C6*%
X200152000Y-73128000D03*
D27*
X200152000Y-71628000D03*
%TD*%
D19*
%TO.C,J46*%
X206756000Y-55372000D03*
D20*
X201676000Y-55372000D03*
X196596000Y-55372000D03*
%TD*%
D19*
%TO.C,J45*%
X190500000Y-55372000D03*
D20*
X185420000Y-55372000D03*
X180340000Y-55372000D03*
%TD*%
D19*
%TO.C,J44*%
X174244000Y-55372000D03*
D20*
X169164000Y-55372000D03*
X164084000Y-55372000D03*
%TD*%
D14*
%TO.C,J38*%
X140970000Y-96520000D03*
D13*
X140970000Y-93980000D03*
X143510000Y-96520000D03*
X143510000Y-93980000D03*
X146050000Y-96520000D03*
X146050000Y-93980000D03*
X148590000Y-96520000D03*
X148590000Y-93980000D03*
X151130000Y-96520000D03*
X151130000Y-93980000D03*
X153670000Y-96520000D03*
X153670000Y-93980000D03*
X156210000Y-96520000D03*
X156210000Y-93980000D03*
X158750000Y-96520000D03*
X158750000Y-93980000D03*
X161290000Y-96520000D03*
X161290000Y-93980000D03*
X163830000Y-96520000D03*
X163830000Y-93980000D03*
X166370000Y-96520000D03*
X166370000Y-93980000D03*
X168910000Y-96520000D03*
X168910000Y-93980000D03*
X171450000Y-96520000D03*
X171450000Y-93980000D03*
X173990000Y-96520000D03*
X173990000Y-93980000D03*
X176530000Y-96520000D03*
X176530000Y-93980000D03*
X179070000Y-96520000D03*
X179070000Y-93980000D03*
X181610000Y-96520000D03*
X181610000Y-93980000D03*
X184150000Y-96520000D03*
X184150000Y-93980000D03*
X186690000Y-96520000D03*
X186690000Y-93980000D03*
X189230000Y-96520000D03*
X189230000Y-93980000D03*
%TD*%
D28*
%TO.C,RESET*%
X148105000Y-123190000D03*
X148105000Y-127690000D03*
X141605000Y-123190000D03*
X141605000Y-127690000D03*
%TD*%
D26*
%TO.C,C4*%
X136676000Y-123444000D03*
D27*
X138176000Y-123444000D03*
%TD*%
D18*
%TO.C,R5*%
X119385000Y-96520000D03*
D17*
X121285000Y-96520000D03*
%TD*%
D23*
%TO.C,D4*%
X119380000Y-111760000D03*
D29*
X119380000Y-109220000D03*
%TD*%
D23*
%TO.C,D3*%
X119380000Y-101600000D03*
D29*
X119380000Y-99060000D03*
%TD*%
D23*
%TO.C,D2*%
X119380000Y-91440000D03*
D29*
X119380000Y-88900000D03*
%TD*%
%TO.C,D1*%
X119380000Y-78740000D03*
D23*
X119380000Y-81280000D03*
%TD*%
D17*
%TO.C,R7*%
X121285000Y-76200000D03*
D18*
X119385000Y-76200000D03*
%TD*%
%TO.C,R1*%
X182245000Y-85090000D03*
D17*
X184145000Y-85090000D03*
%TD*%
D18*
%TO.C,R2*%
X187325000Y-85090000D03*
D17*
X189225000Y-85090000D03*
%TD*%
%TO.C,R3*%
X194305000Y-85090000D03*
D18*
X192405000Y-85090000D03*
%TD*%
D27*
%TO.C,C1*%
X198120000Y-97790000D03*
D26*
X199620000Y-97790000D03*
%TD*%
D27*
%TO.C,C2*%
X198120000Y-92710000D03*
D26*
X199620000Y-92710000D03*
%TD*%
%TO.C,C3*%
X199620000Y-87630000D03*
D27*
X198120000Y-87630000D03*
%TD*%
D20*
%TO.C,J36*%
X113665000Y-125730000D03*
D19*
X113665000Y-120650000D03*
%TD*%
D13*
%TO.C,J33*%
X189230000Y-113030000D03*
X186690000Y-113030000D03*
D14*
X184150000Y-113030000D03*
%TD*%
D13*
%TO.C,J32*%
X168910000Y-113030000D03*
X166370000Y-113030000D03*
D14*
X163830000Y-113030000D03*
%TD*%
D13*
%TO.C,J31*%
X148590000Y-113030000D03*
X146050000Y-113030000D03*
D14*
X143510000Y-113030000D03*
%TD*%
D20*
%TO.C,J16*%
X194310000Y-105410000D03*
D19*
X179070000Y-105410000D03*
D20*
X189230000Y-105410000D03*
X184150000Y-105410000D03*
%TD*%
%TO.C,J15*%
X173990000Y-105410000D03*
D19*
X158750000Y-105410000D03*
D20*
X168910000Y-105410000D03*
X163830000Y-105410000D03*
%TD*%
%TO.C,J14*%
X153670000Y-105410000D03*
D19*
X138430000Y-105410000D03*
D20*
X148590000Y-105410000D03*
X143510000Y-105410000D03*
%TD*%
%TO.C,J18*%
X143510000Y-85090000D03*
X148590000Y-85090000D03*
D19*
X138430000Y-85090000D03*
D20*
X153670000Y-85090000D03*
%TD*%
%TO.C,J25*%
X173990000Y-85090000D03*
D19*
X158750000Y-85090000D03*
D20*
X168910000Y-85090000D03*
X163830000Y-85090000D03*
%TD*%
D19*
%TO.C,J30*%
X113665000Y-107950000D03*
D20*
X113665000Y-113030000D03*
%TD*%
D19*
%TO.C,J262*%
X113665000Y-97790000D03*
D20*
X113665000Y-102870000D03*
%TD*%
D19*
%TO.C,J261*%
X113665000Y-87630000D03*
D20*
X113665000Y-92710000D03*
%TD*%
%TO.C,J28*%
X113665000Y-82550000D03*
D19*
X113665000Y-77470000D03*
%TD*%
D30*
%TO.C,P10*%
X205740000Y-119380000D03*
%TD*%
%TO.C,P11*%
X119770000Y-71120000D03*
%TD*%
D13*
%TO.C,J27*%
X194310000Y-87630000D03*
X191770000Y-87630000D03*
X189230000Y-87630000D03*
X186690000Y-87630000D03*
X184150000Y-87630000D03*
D14*
X181610000Y-87630000D03*
%TD*%
%TO.C,J3*%
X152400000Y-127000000D03*
D13*
X152400000Y-124460000D03*
X152400000Y-121920000D03*
%TD*%
D14*
%TO.C,J7*%
X154940000Y-127000000D03*
D13*
X154940000Y-124460000D03*
X154940000Y-121920000D03*
%TD*%
D14*
%TO.C,J11*%
X157480000Y-127000000D03*
D13*
X157480000Y-124460000D03*
X157480000Y-121920000D03*
%TD*%
%TO.C,J13*%
X160020000Y-121920000D03*
X160020000Y-124460000D03*
D14*
X160020000Y-127000000D03*
%TD*%
D13*
%TO.C,J12*%
X175260000Y-124460000D03*
X172720000Y-124460000D03*
X170180000Y-124460000D03*
D14*
X167640000Y-124460000D03*
%TD*%
%TO.C,J6*%
X167640000Y-127000000D03*
D13*
X170180000Y-127000000D03*
X172720000Y-127000000D03*
X175260000Y-127000000D03*
%TD*%
%TO.C,J8*%
X193040000Y-124460000D03*
X193040000Y-127000000D03*
X190500000Y-124460000D03*
X190500000Y-127000000D03*
X187960000Y-124460000D03*
X187960000Y-127000000D03*
X185420000Y-124460000D03*
X185420000Y-127000000D03*
X182880000Y-124460000D03*
D14*
X182880000Y-127000000D03*
%TD*%
D13*
%TO.C,J9*%
X200660000Y-127000000D03*
X200660000Y-124460000D03*
X203200000Y-127000000D03*
X203200000Y-124460000D03*
X205740000Y-127000000D03*
X205740000Y-124460000D03*
X208280000Y-127000000D03*
D14*
X208280000Y-124460000D03*
%TD*%
%TO.C,J39*%
X137160000Y-76200000D03*
D13*
X137160000Y-73660000D03*
%TD*%
D14*
%TO.C,J19*%
X180340000Y-76200000D03*
D13*
X180340000Y-78740000D03*
X180340000Y-81280000D03*
%TD*%
D14*
%TO.C,J20*%
X182880000Y-76200000D03*
D13*
X182880000Y-78740000D03*
X182880000Y-81280000D03*
%TD*%
D14*
%TO.C,J21*%
X185420000Y-76200000D03*
D13*
X185420000Y-78740000D03*
X185420000Y-81280000D03*
%TD*%
D14*
%TO.C,J22*%
X187960000Y-76200000D03*
D13*
X187960000Y-78740000D03*
X187960000Y-81280000D03*
%TD*%
D14*
%TO.C,J23*%
X190500000Y-76200000D03*
D13*
X190500000Y-78740000D03*
X190500000Y-81280000D03*
%TD*%
%TO.C,J24*%
X193040000Y-81280000D03*
X193040000Y-78740000D03*
D14*
X193040000Y-76200000D03*
%TD*%
D13*
%TO.C,J29*%
X196088000Y-73660000D03*
X196088000Y-76200000D03*
X196088000Y-78740000D03*
D14*
X196088000Y-81280000D03*
%TD*%
D13*
%TO.C,J2*%
X208280000Y-71120000D03*
X208280000Y-73660000D03*
X208280000Y-76200000D03*
X208280000Y-78740000D03*
X208280000Y-81280000D03*
X208280000Y-83820000D03*
X208280000Y-86360000D03*
X208280000Y-88900000D03*
X208280000Y-91440000D03*
X208280000Y-93980000D03*
X208280000Y-96520000D03*
X208280000Y-99060000D03*
X208280000Y-101600000D03*
X208280000Y-104140000D03*
X208280000Y-106680000D03*
X208280000Y-109220000D03*
X208280000Y-111760000D03*
D14*
X208280000Y-114300000D03*
%TD*%
D13*
%TO.C,J35*%
X165100000Y-76200000D03*
X162560000Y-76200000D03*
D14*
X160020000Y-76200000D03*
%TD*%
%TO.C,J34*%
X149860000Y-76200000D03*
D13*
X152400000Y-76200000D03*
X154940000Y-76200000D03*
%TD*%
%TO.C,J5*%
X144780000Y-76200000D03*
X142240000Y-76200000D03*
D14*
X139700000Y-76200000D03*
%TD*%
D31*
%TO.C,U1*%
X130810000Y-78740000D03*
X130810000Y-81280000D03*
X130810000Y-88900000D03*
D32*
X130810000Y-93980000D03*
%TD*%
%TO.C,U2*%
X124460000Y-93980000D03*
D31*
X124460000Y-88900000D03*
X124460000Y-81280000D03*
X124460000Y-78740000D03*
%TD*%
%TO.C,U3*%
X130810000Y-98425000D03*
X130810000Y-100965000D03*
X130810000Y-108585000D03*
D32*
X130810000Y-113665000D03*
%TD*%
%TO.C,U4*%
X124460000Y-113665000D03*
D31*
X124460000Y-108585000D03*
X124460000Y-100965000D03*
X124460000Y-98425000D03*
%TD*%
M02*
