M48
INCH,TZ
T1C0.0157
T2C0.0236
T3C0.0276
T4C0.0315
T5C0.0354
T6C0.0394
T7C0.0398
T8C0.0433
T9C0.0472
T10C0.0598
T11C0.1200
%
G90
G05
T1
X49400Y-33800
X50600Y-35800
X51000Y-36200
X51600Y-35800
X52000Y-29400
X52200Y-35600
X52382Y-29018
X52800Y-28800
X53475Y-31200
X53600Y-45400
X55200Y-31600
X59000Y-31000
X59200Y-31600
X59600Y-31200
X59800Y-39200
X60000Y-38800
X62600Y-46200
X64200Y-48000
X64600Y-47800
X65400Y-32600
X65781Y-32819
X67400Y-42400
X67600Y-45400
X67800Y-42200
X68200Y-46000
X69800Y-31200
X69800Y-36000
X70500Y-38700
X71600Y-39600
X72400Y-35200
X73000Y-29000
X73000Y-35400
X74000Y-29000
X75000Y-38600
X75264Y-38864
X75700Y-36300
X75800Y-39200
X77600Y-39600
X79200Y-32200
X79200Y-44200
T2
X78800Y-28200
X78800Y-28791
X78000Y-34500
X78591Y-34500
X78000Y-38500
X78591Y-38500
X53809Y-48600
X54400Y-48600
X78000Y-36500
X78591Y-36500
T3
X78110Y-30000
X79110Y-30000
X71750Y-33500
X72498Y-33500
X66652Y-31200
X67400Y-31200
X73750Y-33500
X74498Y-33500
X47002Y-30000
X47750Y-30000
X75750Y-33500
X76498Y-33500
X47800Y-42000
X48000Y-40600
X78110Y-30800
X79110Y-30800
X47002Y-38000
X47750Y-38000
X47600Y-34000
X47800Y-32600
T4
X50200Y-48600
X51184Y-48600
X52400Y-49200
X52400Y-50184
X68200Y-31200
X69184Y-31200
X53616Y-50000
X54600Y-50000
T5
X47000Y-31000
X47000Y-32000
X47000Y-35000
X47000Y-36000
X47000Y-40000
X47000Y-43000
X47000Y-44000
X52600Y-47200
X52600Y-48200
X47000Y-46200
X47000Y-47200
X47000Y-39000
T6
X73000Y-30000
X73000Y-31000
X73000Y-32000
X70200Y-28000
X71200Y-28000
X72200Y-28000
X73200Y-28000
X74200Y-28000
X75200Y-28000
X76200Y-28000
X77200Y-28000
X79000Y-49000
X79000Y-50000
X80000Y-49000
X80000Y-50000
X81000Y-49000
X81000Y-50000
X82000Y-49000
X82000Y-50000
X61000Y-48000
X61000Y-49000
X61000Y-50000
X72000Y-47000
X73000Y-47000
X74000Y-47000
X75000Y-47000
X76000Y-47000
X77000Y-47000
X78000Y-47000
X79000Y-47000
X66000Y-49000
X67000Y-49000
X68000Y-49000
X69000Y-49000
X63000Y-30000
X64000Y-30000
X65000Y-30000
X72000Y-30000
X72000Y-31000
X72000Y-32000
X75000Y-30000
X75000Y-31000
X75000Y-32000
X70000Y-24800
X71000Y-24800
X72000Y-24800
X73000Y-24800
X74000Y-24800
X75000Y-24800
X76000Y-24800
X77000Y-24800
X64500Y-44500
X65500Y-44500
X66500Y-44500
X60000Y-48000
X60000Y-49000
X60000Y-50000
X66000Y-50000
X67000Y-50000
X68000Y-50000
X69000Y-50000
X63000Y-48000
X63000Y-49000
X63000Y-50000
X67000Y-30000
X68000Y-30000
X69000Y-30000
X72500Y-44500
X73500Y-44500
X74500Y-44500
X79990Y-28000
X79990Y-29000
X79990Y-30000
X79990Y-31000
X79990Y-32000
X79990Y-33000
X79990Y-34000
X79990Y-35000
X79990Y-36000
X79990Y-37000
X79990Y-38000
X79990Y-39000
X79990Y-40000
X79990Y-41000
X79990Y-42000
X79990Y-43000
X79990Y-44000
X79990Y-45000
X80990Y-28000
X80990Y-29000
X80990Y-30000
X80990Y-31000
X80990Y-32000
X80990Y-33000
X80990Y-34000
X80990Y-35000
X80990Y-36000
X80990Y-37000
X80990Y-38000
X80990Y-39000
X80990Y-40000
X80990Y-41000
X80990Y-42000
X80990Y-43000
X80990Y-44000
X80990Y-45000
X54000Y-29000
X54000Y-30000
X49800Y-50000
X50800Y-50000
X55000Y-30000
X56000Y-30000
X57000Y-30000
X72000Y-49000
X72000Y-50000
X73000Y-49000
X73000Y-50000
X74000Y-49000
X74000Y-50000
X75000Y-49000
X75000Y-50000
X76000Y-49000
X76000Y-50000
X55500Y-37000
X55500Y-38000
X56500Y-37000
X56500Y-38000
X57500Y-37000
X57500Y-38000
X58500Y-37000
X58500Y-38000
X59500Y-37000
X59500Y-38000
X60500Y-37000
X60500Y-38000
X61500Y-37000
X61500Y-38000
X62500Y-37000
X62500Y-38000
X63500Y-37000
X63500Y-38000
X64500Y-37000
X64500Y-38000
X65500Y-37000
X65500Y-38000
X66500Y-37000
X66500Y-38000
X67500Y-37000
X67500Y-38000
X68500Y-37000
X68500Y-38000
X69500Y-37000
X69500Y-38000
X70500Y-37000
X70500Y-38000
X71500Y-37000
X71500Y-38000
X72500Y-37000
X72500Y-38000
X73500Y-37000
X73500Y-38000
X74500Y-37000
X74500Y-38000
X82000Y-28000
X82000Y-29000
X82000Y-30000
X82000Y-31000
X82000Y-32000
X82000Y-33000
X82000Y-34000
X82000Y-35000
X82000Y-36000
X82000Y-37000
X82000Y-38000
X82000Y-39000
X82000Y-40000
X82000Y-41000
X82000Y-42000
X82000Y-43000
X82000Y-44000
X82000Y-45000
X50500Y-28000
X51500Y-28000
X52500Y-28000
X53500Y-28000
X54500Y-28000
X55500Y-28000
X56500Y-28000
X57500Y-28000
X58500Y-28000
X59500Y-28000
X54000Y-47000
X55000Y-47000
X56000Y-47000
X57000Y-47000
X58000Y-47000
X59000Y-47000
X60000Y-47000
X61000Y-47000
X71000Y-30000
X71000Y-31000
X71000Y-32000
X77200Y-29000
X77200Y-30000
X77200Y-31000
X77200Y-32000
X47200Y-50000
X48200Y-50000
X61000Y-28000
X62000Y-28000
X63000Y-28000
X64000Y-28000
X65000Y-28000
X66000Y-28000
X67000Y-28000
X68000Y-28000
X71500Y-34500
X72500Y-34500
X73500Y-34500
X74500Y-34500
X75500Y-34500
X76500Y-34500
X62000Y-48000
X62000Y-49000
X62000Y-50000
X59000Y-30000
X60000Y-30000
X61000Y-30000
X74000Y-30000
X74000Y-31000
X74000Y-32000
X76000Y-30000
X76000Y-31000
X76000Y-32000
X63000Y-47000
X64000Y-47000
X65000Y-47000
X66000Y-47000
X67000Y-47000
X68000Y-47000
X69000Y-47000
X70000Y-47000
X56500Y-44500
X57500Y-44500
X58500Y-44500
T7
X47000Y-48200
X49008Y-48672
T8
X48800Y-47000
X49800Y-47000
X50800Y-47000
X55750Y-48500
X55750Y-50272
X58309Y-48500
X58309Y-50272
T9
X51500Y-31000
X51500Y-32000
X51500Y-35000
X51500Y-37000
X49000Y-38750
X49000Y-39750
X49000Y-42750
X49000Y-44750
X51500Y-38750
X51500Y-39750
X51500Y-42750
X51500Y-44750
X49000Y-31000
X49000Y-32000
X49000Y-35000
X49000Y-37000
T10
X54500Y-41500
X56500Y-41500
X58500Y-41500
X60500Y-41500
X44750Y-34500
X44750Y-36500
X44750Y-42500
X44750Y-44500
X62500Y-41500
X64500Y-41500
X66500Y-41500
X68500Y-41500
X45400Y-21800
X47400Y-21800
X49400Y-21800
X44750Y-47500
X44750Y-49500
X62500Y-33500
X64500Y-33500
X66500Y-33500
X68500Y-33500
X44750Y-30500
X44750Y-32500
X58200Y-25000
X60200Y-25000
X62200Y-25000
X44750Y-38500
X44750Y-40500
X70500Y-41500
X72500Y-41500
X74500Y-41500
X76500Y-41500
X58200Y-21800
X60200Y-21800
X62200Y-21800
X71000Y-21800
X73000Y-21800
X75000Y-21800
X51800Y-21800
X53800Y-21800
X55800Y-21800
X64600Y-21800
X66600Y-21800
X68600Y-21800
X77400Y-21800
X79400Y-21800
X81400Y-21800
X54500Y-33500
X56500Y-33500
X58500Y-33500
X60500Y-33500
T11
X81000Y-47000
X47154Y-28000
T0
M30
